%TF.GenerationSoftware,KiCad,Pcbnew,7.0.7*%
%TF.CreationDate,2023-09-03T20:27:55-07:00*%
%TF.ProjectId,keyboard,6b657962-6f61-4726-942e-6b696361645f,rev?*%
%TF.SameCoordinates,Original*%
%TF.FileFunction,Copper,L1,Top*%
%TF.FilePolarity,Positive*%
%FSLAX46Y46*%
G04 Gerber Fmt 4.6, Leading zero omitted, Abs format (unit mm)*
G04 Created by KiCad (PCBNEW 7.0.7) date 2023-09-03 20:27:55*
%MOMM*%
%LPD*%
G01*
G04 APERTURE LIST*
G04 Aperture macros list*
%AMRoundRect*
0 Rectangle with rounded corners*
0 $1 Rounding radius*
0 $2 $3 $4 $5 $6 $7 $8 $9 X,Y pos of 4 corners*
0 Add a 4 corners polygon primitive as box body*
4,1,4,$2,$3,$4,$5,$6,$7,$8,$9,$2,$3,0*
0 Add four circle primitives for the rounded corners*
1,1,$1+$1,$2,$3*
1,1,$1+$1,$4,$5*
1,1,$1+$1,$6,$7*
1,1,$1+$1,$8,$9*
0 Add four rect primitives between the rounded corners*
20,1,$1+$1,$2,$3,$4,$5,0*
20,1,$1+$1,$4,$5,$6,$7,0*
20,1,$1+$1,$6,$7,$8,$9,0*
20,1,$1+$1,$8,$9,$2,$3,0*%
%AMHorizOval*
0 Thick line with rounded ends*
0 $1 width*
0 $2 $3 position (X,Y) of the first rounded end (center of the circle)*
0 $4 $5 position (X,Y) of the second rounded end (center of the circle)*
0 Add line between two ends*
20,1,$1,$2,$3,$4,$5,0*
0 Add two circle primitives to create the rounded ends*
1,1,$1,$2,$3*
1,1,$1,$4,$5*%
%AMRotRect*
0 Rectangle, with rotation*
0 The origin of the aperture is its center*
0 $1 length*
0 $2 width*
0 $3 Rotation angle, in degrees counterclockwise*
0 Add horizontal line*
21,1,$1,$2,0,0,$3*%
G04 Aperture macros list end*
%TA.AperFunction,ComponentPad*%
%ADD10O,2.416000X1.208000*%
%TD*%
%TA.AperFunction,ComponentPad*%
%ADD11O,2.616000X1.308000*%
%TD*%
%TA.AperFunction,ComponentPad*%
%ADD12O,1.308000X2.616000*%
%TD*%
%TA.AperFunction,SMDPad,CuDef*%
%ADD13R,2.600000X2.600000*%
%TD*%
%TA.AperFunction,ComponentPad*%
%ADD14R,1.600000X1.600000*%
%TD*%
%TA.AperFunction,ComponentPad*%
%ADD15O,1.600000X1.600000*%
%TD*%
%TA.AperFunction,SMDPad,CuDef*%
%ADD16RotRect,2.600000X2.600000X340.000000*%
%TD*%
%TA.AperFunction,SMDPad,CuDef*%
%ADD17R,1.700000X0.820000*%
%TD*%
%TA.AperFunction,SMDPad,CuDef*%
%ADD18RoundRect,0.205000X-0.645000X-0.205000X0.645000X-0.205000X0.645000X0.205000X-0.645000X0.205000X0*%
%TD*%
%TA.AperFunction,SMDPad,CuDef*%
%ADD19RotRect,2.600000X2.600000X10.000000*%
%TD*%
%TA.AperFunction,SMDPad,CuDef*%
%ADD20RotRect,1.700000X0.820000X340.000000*%
%TD*%
%TA.AperFunction,SMDPad,CuDef*%
%ADD21RoundRect,0.205000X-0.676216X0.027966X0.535988X-0.413240X0.676216X-0.027966X-0.535988X0.413240X0*%
%TD*%
%TA.AperFunction,SMDPad,CuDef*%
%ADD22RotRect,1.700000X0.820000X320.000000*%
%TD*%
%TA.AperFunction,SMDPad,CuDef*%
%ADD23RoundRect,0.205000X-0.625870X0.257559X0.362327X-0.571637X0.625870X-0.257559X-0.362327X0.571637X0*%
%TD*%
%TA.AperFunction,ComponentPad*%
%ADD24RotRect,1.600000X1.600000X230.000000*%
%TD*%
%TA.AperFunction,ComponentPad*%
%ADD25HorizOval,1.600000X0.000000X0.000000X0.000000X0.000000X0*%
%TD*%
%TA.AperFunction,SMDPad,CuDef*%
%ADD26RotRect,2.600000X2.600000X320.000000*%
%TD*%
%TA.AperFunction,ComponentPad*%
%ADD27RotRect,1.600000X1.600000X250.000000*%
%TD*%
%TA.AperFunction,ComponentPad*%
%ADD28HorizOval,1.600000X0.000000X0.000000X0.000000X0.000000X0*%
%TD*%
%TA.AperFunction,SMDPad,CuDef*%
%ADD29RotRect,1.700000X0.820000X10.000000*%
%TD*%
%TA.AperFunction,SMDPad,CuDef*%
%ADD30RoundRect,0.205000X-0.599603X-0.313889X0.670799X-0.089883X0.599603X0.313889X-0.670799X0.089883X0*%
%TD*%
%TA.AperFunction,ComponentPad*%
%ADD31RotRect,1.600000X1.600000X280.000000*%
%TD*%
%TA.AperFunction,ComponentPad*%
%ADD32HorizOval,1.600000X0.000000X0.000000X0.000000X0.000000X0*%
%TD*%
%TA.AperFunction,SMDPad,CuDef*%
%ADD33R,2.610000X1.400000*%
%TD*%
%TA.AperFunction,ViaPad*%
%ADD34C,0.800000*%
%TD*%
%TA.AperFunction,Conductor*%
%ADD35C,0.250000*%
%TD*%
G04 APERTURE END LIST*
D10*
%TO.P,REF\u002A\u002A,1*%
%TO.N,N/C*%
X224150000Y-76720000D03*
%TO.P,REF\u002A\u002A,2*%
X219450000Y-71120000D03*
D11*
%TO.P,REF\u002A\u002A,3*%
X211950000Y-75920000D03*
D10*
%TO.P,REF\u002A\u002A,4*%
X222250000Y-71120000D03*
D12*
%TO.P,REF\u002A\u002A,5*%
X209050000Y-72820000D03*
D10*
%TO.P,REF\u002A\u002A,6*%
X221350000Y-75920000D03*
%TD*%
%TO.P,REF\u002A\u002A,1*%
%TO.N,N/C*%
X224155000Y-65520000D03*
%TO.P,REF\u002A\u002A,4*%
X222255000Y-71120000D03*
%TO.P,REF\u002A\u002A,6*%
X221355000Y-66320000D03*
%TO.P,REF\u002A\u002A,2*%
X219455000Y-71120000D03*
D11*
%TO.P,REF\u002A\u002A,3*%
X211955000Y-66320000D03*
D12*
%TO.P,REF\u002A\u002A,5*%
X209055000Y-69420000D03*
%TD*%
D13*
%TO.P,REF\u002A\u002A,1*%
%TO.N,N/C*%
X96725000Y-94950000D03*
%TO.P,REF\u002A\u002A,2*%
X108275000Y-92750000D03*
%TD*%
D14*
%TO.P,REF\u002A\u002A,1*%
%TO.N,N/C*%
X51000000Y-82380000D03*
D15*
%TO.P,REF\u002A\u002A,2*%
X51000000Y-90000000D03*
%TD*%
D16*
%TO.P,REF\u002A\u002A,1*%
%TO.N,N/C*%
X174002870Y-127343518D03*
%TO.P,REF\u002A\u002A,2*%
X185608764Y-129226527D03*
%TD*%
D13*
%TO.P,REF\u002A\u002A,1*%
%TO.N,N/C*%
X136725000Y-56950000D03*
%TO.P,REF\u002A\u002A,2*%
X148275000Y-54750000D03*
%TD*%
D17*
%TO.P,REF\u002A\u002A,1*%
%TO.N,N/C*%
X157450000Y-84750000D03*
%TO.P,REF\u002A\u002A,2*%
X157450000Y-83250000D03*
D18*
%TO.P,REF\u002A\u002A,3*%
X162550000Y-83250000D03*
D17*
%TO.P,REF\u002A\u002A,4*%
X162550000Y-84750000D03*
%TD*%
D14*
%TO.P,REF\u002A\u002A,1*%
%TO.N,N/C*%
X51000000Y-63380000D03*
D15*
%TO.P,REF\u002A\u002A,2*%
X51000000Y-71000000D03*
%TD*%
D17*
%TO.P,REF\u002A\u002A,1*%
%TO.N,N/C*%
X77450000Y-84700000D03*
%TO.P,REF\u002A\u002A,2*%
X77450000Y-83200000D03*
D18*
%TO.P,REF\u002A\u002A,3*%
X82550000Y-83200000D03*
D17*
%TO.P,REF\u002A\u002A,4*%
X82550000Y-84700000D03*
%TD*%
D13*
%TO.P,REF\u002A\u002A,1*%
%TO.N,N/C*%
X56725000Y-76000000D03*
%TO.P,REF\u002A\u002A,2*%
X68275000Y-73800000D03*
%TD*%
D17*
%TO.P,REF\u002A\u002A,1*%
%TO.N,N/C*%
X157450000Y-46750000D03*
%TO.P,REF\u002A\u002A,2*%
X157450000Y-45250000D03*
D18*
%TO.P,REF\u002A\u002A,3*%
X162550000Y-45250000D03*
D17*
%TO.P,REF\u002A\u002A,4*%
X162550000Y-46750000D03*
%TD*%
%TO.P,REF\u002A\u002A,1*%
%TO.N,N/C*%
X97450000Y-27700000D03*
%TO.P,REF\u002A\u002A,2*%
X97450000Y-26200000D03*
D18*
%TO.P,REF\u002A\u002A,3*%
X102550000Y-26200000D03*
D17*
%TO.P,REF\u002A\u002A,4*%
X102550000Y-27700000D03*
%TD*%
D13*
%TO.P,REF\u002A\u002A,1*%
%TO.N,N/C*%
X76725000Y-37950000D03*
%TO.P,REF\u002A\u002A,2*%
X88275000Y-35750000D03*
%TD*%
D14*
%TO.P,REF\u002A\u002A,1*%
%TO.N,N/C*%
X111000000Y-44330000D03*
D15*
%TO.P,REF\u002A\u002A,2*%
X111000000Y-51950000D03*
%TD*%
D17*
%TO.P,REF\u002A\u002A,1*%
%TO.N,N/C*%
X177450000Y-46700000D03*
%TO.P,REF\u002A\u002A,2*%
X177450000Y-45200000D03*
D18*
%TO.P,REF\u002A\u002A,3*%
X182550000Y-45200000D03*
D17*
%TO.P,REF\u002A\u002A,4*%
X182550000Y-46700000D03*
%TD*%
%TO.P,REF\u002A\u002A,1*%
%TO.N,N/C*%
X151949999Y-109699999D03*
%TO.P,REF\u002A\u002A,2*%
X151949999Y-108199999D03*
D18*
%TO.P,REF\u002A\u002A,3*%
X157049999Y-108199999D03*
D17*
%TO.P,REF\u002A\u002A,4*%
X157049999Y-109699999D03*
%TD*%
D14*
%TO.P,REF\u002A\u002A,1*%
%TO.N,N/C*%
X131000000Y-25330000D03*
D15*
%TO.P,REF\u002A\u002A,2*%
X131000000Y-32950000D03*
%TD*%
D14*
%TO.P,REF\u002A\u002A,1*%
%TO.N,N/C*%
X111000000Y-82330000D03*
D15*
%TO.P,REF\u002A\u002A,2*%
X111000000Y-89950000D03*
%TD*%
D19*
%TO.P,REF\u002A\u002A,1*%
%TO.N,N/C*%
X126819526Y-121011139D03*
%TO.P,REF\u002A\u002A,2*%
X137812030Y-116838925D03*
%TD*%
D13*
%TO.P,REF\u002A\u002A,1*%
%TO.N,N/C*%
X136725000Y-94950000D03*
%TO.P,REF\u002A\u002A,2*%
X148275000Y-92750000D03*
%TD*%
D14*
%TO.P,REF\u002A\u002A,1*%
%TO.N,N/C*%
X171000000Y-44330000D03*
D15*
%TO.P,REF\u002A\u002A,2*%
X171000000Y-51950000D03*
%TD*%
D14*
%TO.P,REF\u002A\u002A,1*%
%TO.N,N/C*%
X171000000Y-25330000D03*
D15*
%TO.P,REF\u002A\u002A,2*%
X171000000Y-32950000D03*
%TD*%
D17*
%TO.P,REF\u002A\u002A,1*%
%TO.N,N/C*%
X177450000Y-27700000D03*
%TO.P,REF\u002A\u002A,2*%
X177450000Y-26200000D03*
D18*
%TO.P,REF\u002A\u002A,3*%
X182550000Y-26200000D03*
D17*
%TO.P,REF\u002A\u002A,4*%
X182550000Y-27700000D03*
%TD*%
D13*
%TO.P,REF\u002A\u002A,1*%
%TO.N,N/C*%
X96725000Y-37950000D03*
%TO.P,REF\u002A\u002A,2*%
X108275000Y-35750000D03*
%TD*%
D14*
%TO.P,REF\u002A\u002A,1*%
%TO.N,N/C*%
X51000000Y-101380000D03*
D15*
%TO.P,REF\u002A\u002A,2*%
X51000000Y-109000000D03*
%TD*%
D14*
%TO.P,REF\u002A\u002A,1*%
%TO.N,N/C*%
X131000000Y-63330000D03*
D15*
%TO.P,REF\u002A\u002A,2*%
X131000000Y-70950000D03*
%TD*%
D17*
%TO.P,REF\u002A\u002A,1*%
%TO.N,N/C*%
X137450000Y-46700000D03*
%TO.P,REF\u002A\u002A,2*%
X137450000Y-45200000D03*
D18*
%TO.P,REF\u002A\u002A,3*%
X142550000Y-45200000D03*
D17*
%TO.P,REF\u002A\u002A,4*%
X142550000Y-46700000D03*
%TD*%
D20*
%TO.P,REF\u002A\u002A,1*%
%TO.N,N/C*%
X178189853Y-117959633D03*
%TO.P,REF\u002A\u002A,2*%
X178702883Y-116550094D03*
D21*
%TO.P,REF\u002A\u002A,3*%
X183495315Y-118294397D03*
D20*
%TO.P,REF\u002A\u002A,4*%
X182982285Y-119703936D03*
%TD*%
D17*
%TO.P,REF\u002A\u002A,1*%
%TO.N,N/C*%
X157450000Y-27750000D03*
%TO.P,REF\u002A\u002A,2*%
X157450000Y-26250000D03*
D18*
%TO.P,REF\u002A\u002A,3*%
X162550000Y-26250000D03*
D17*
%TO.P,REF\u002A\u002A,4*%
X162550000Y-27750000D03*
%TD*%
%TO.P,REF\u002A\u002A,1*%
%TO.N,N/C*%
X57450000Y-103750000D03*
%TO.P,REF\u002A\u002A,2*%
X57450000Y-102250000D03*
D18*
%TO.P,REF\u002A\u002A,3*%
X62550000Y-102250000D03*
D17*
%TO.P,REF\u002A\u002A,4*%
X62550000Y-103750000D03*
%TD*%
%TO.P,REF\u002A\u002A,1*%
%TO.N,N/C*%
X117450000Y-84700000D03*
%TO.P,REF\u002A\u002A,2*%
X117450000Y-83200000D03*
D18*
%TO.P,REF\u002A\u002A,3*%
X122550000Y-83200000D03*
D17*
%TO.P,REF\u002A\u002A,4*%
X122550000Y-84700000D03*
%TD*%
D13*
%TO.P,REF\u002A\u002A,1*%
%TO.N,N/C*%
X76725000Y-75950000D03*
%TO.P,REF\u002A\u002A,2*%
X88275000Y-73750000D03*
%TD*%
%TO.P,REF\u002A\u002A,1*%
%TO.N,N/C*%
X156725000Y-76000000D03*
%TO.P,REF\u002A\u002A,2*%
X168275000Y-73800000D03*
%TD*%
D14*
%TO.P,REF\u002A\u002A,1*%
%TO.N,N/C*%
X51000000Y-44380000D03*
D15*
%TO.P,REF\u002A\u002A,2*%
X51000000Y-52000000D03*
%TD*%
D17*
%TO.P,REF\u002A\u002A,1*%
%TO.N,N/C*%
X137450000Y-27700000D03*
%TO.P,REF\u002A\u002A,2*%
X137450000Y-26200000D03*
D18*
%TO.P,REF\u002A\u002A,3*%
X142550000Y-26200000D03*
D17*
%TO.P,REF\u002A\u002A,4*%
X142550000Y-27700000D03*
%TD*%
%TO.P,REF\u002A\u002A,1*%
%TO.N,N/C*%
X77450000Y-103700000D03*
%TO.P,REF\u002A\u002A,2*%
X77450000Y-102200000D03*
D18*
%TO.P,REF\u002A\u002A,3*%
X82550000Y-102200000D03*
D17*
%TO.P,REF\u002A\u002A,4*%
X82550000Y-103700000D03*
%TD*%
%TO.P,REF\u002A\u002A,1*%
%TO.N,N/C*%
X77450000Y-46700000D03*
%TO.P,REF\u002A\u002A,2*%
X77450000Y-45200000D03*
D18*
%TO.P,REF\u002A\u002A,3*%
X82550000Y-45200000D03*
D17*
%TO.P,REF\u002A\u002A,4*%
X82550000Y-46700000D03*
%TD*%
D14*
%TO.P,REF\u002A\u002A,1*%
%TO.N,N/C*%
X171000000Y-63330000D03*
D15*
%TO.P,REF\u002A\u002A,2*%
X171000000Y-70950000D03*
%TD*%
D13*
%TO.P,REF\u002A\u002A,1*%
%TO.N,N/C*%
X56725000Y-95000000D03*
%TO.P,REF\u002A\u002A,2*%
X68275000Y-92800000D03*
%TD*%
D17*
%TO.P,REF\u002A\u002A,1*%
%TO.N,N/C*%
X97450000Y-103700000D03*
%TO.P,REF\u002A\u002A,2*%
X97450000Y-102200000D03*
D18*
%TO.P,REF\u002A\u002A,3*%
X102550000Y-102200000D03*
D17*
%TO.P,REF\u002A\u002A,4*%
X102550000Y-103700000D03*
%TD*%
D22*
%TO.P,REF\u002A\u002A,1*%
%TO.N,N/C*%
X199972892Y-133125980D03*
%TO.P,REF\u002A\u002A,2*%
X200937073Y-131976913D03*
D23*
%TO.P,REF\u002A\u002A,3*%
X204843900Y-135255130D03*
D22*
%TO.P,REF\u002A\u002A,4*%
X203879719Y-136404197D03*
%TD*%
D17*
%TO.P,REF\u002A\u002A,1*%
%TO.N,N/C*%
X57450000Y-84750000D03*
%TO.P,REF\u002A\u002A,2*%
X57450000Y-83250000D03*
D18*
%TO.P,REF\u002A\u002A,3*%
X62550000Y-83250000D03*
D17*
%TO.P,REF\u002A\u002A,4*%
X62550000Y-84750000D03*
%TD*%
D14*
%TO.P,REF\u002A\u002A,1*%
%TO.N,N/C*%
X171000000Y-82330000D03*
D15*
%TO.P,REF\u002A\u002A,2*%
X171000000Y-89950000D03*
%TD*%
D13*
%TO.P,REF\u002A\u002A,1*%
%TO.N,N/C*%
X116725000Y-75950000D03*
%TO.P,REF\u002A\u002A,2*%
X128275000Y-73750000D03*
%TD*%
%TO.P,REF\u002A\u002A,1*%
%TO.N,N/C*%
X176725000Y-94950000D03*
%TO.P,REF\u002A\u002A,2*%
X188275000Y-92750000D03*
%TD*%
%TO.P,REF\u002A\u002A,1*%
%TO.N,N/C*%
X116725000Y-37950000D03*
%TO.P,REF\u002A\u002A,2*%
X128275000Y-35750000D03*
%TD*%
D24*
%TO.P,REF\u002A\u002A,1*%
%TO.N,N/C*%
X196555312Y-127164475D03*
D25*
%TO.P,REF\u002A\u002A,2*%
X191657270Y-133001734D03*
%TD*%
D14*
%TO.P,REF\u002A\u002A,1*%
%TO.N,N/C*%
X151000000Y-82380000D03*
D15*
%TO.P,REF\u002A\u002A,2*%
X151000000Y-90000000D03*
%TD*%
D17*
%TO.P,REF\u002A\u002A,1*%
%TO.N,N/C*%
X137450000Y-84700000D03*
%TO.P,REF\u002A\u002A,2*%
X137450000Y-83200000D03*
D18*
%TO.P,REF\u002A\u002A,3*%
X142550000Y-83200000D03*
D17*
%TO.P,REF\u002A\u002A,4*%
X142550000Y-84700000D03*
%TD*%
D14*
%TO.P,REF\u002A\u002A,1*%
%TO.N,N/C*%
X131000000Y-44330000D03*
D15*
%TO.P,REF\u002A\u002A,2*%
X131000000Y-51950000D03*
%TD*%
D14*
%TO.P,REF\u002A\u002A,1*%
%TO.N,N/C*%
X145500000Y-107329999D03*
D15*
%TO.P,REF\u002A\u002A,2*%
X145500000Y-114949999D03*
%TD*%
D13*
%TO.P,REF\u002A\u002A,1*%
%TO.N,N/C*%
X56725000Y-114000000D03*
%TO.P,REF\u002A\u002A,2*%
X68275000Y-111800000D03*
%TD*%
%TO.P,REF\u002A\u002A,1*%
%TO.N,N/C*%
X56725000Y-57000000D03*
%TO.P,REF\u002A\u002A,2*%
X68275000Y-54800000D03*
%TD*%
D17*
%TO.P,REF\u002A\u002A,1*%
%TO.N,N/C*%
X77450000Y-27700000D03*
%TO.P,REF\u002A\u002A,2*%
X77450000Y-26200000D03*
D18*
%TO.P,REF\u002A\u002A,3*%
X82550000Y-26200000D03*
D17*
%TO.P,REF\u002A\u002A,4*%
X82550000Y-27700000D03*
%TD*%
%TO.P,REF\u002A\u002A,1*%
%TO.N,N/C*%
X77450000Y-65700000D03*
%TO.P,REF\u002A\u002A,2*%
X77450000Y-64200000D03*
D18*
%TO.P,REF\u002A\u002A,3*%
X82550000Y-64200000D03*
D17*
%TO.P,REF\u002A\u002A,4*%
X82550000Y-65700000D03*
%TD*%
D14*
%TO.P,REF\u002A\u002A,1*%
%TO.N,N/C*%
X91000000Y-25330000D03*
D15*
%TO.P,REF\u002A\u002A,2*%
X91000000Y-32950000D03*
%TD*%
D17*
%TO.P,REF\u002A\u002A,1*%
%TO.N,N/C*%
X97450000Y-46700000D03*
%TO.P,REF\u002A\u002A,2*%
X97450000Y-45200000D03*
D18*
%TO.P,REF\u002A\u002A,3*%
X102550000Y-45200000D03*
D17*
%TO.P,REF\u002A\u002A,4*%
X102550000Y-46700000D03*
%TD*%
D14*
%TO.P,REF\u002A\u002A,1*%
%TO.N,N/C*%
X151000000Y-44380000D03*
D15*
%TO.P,REF\u002A\u002A,2*%
X151000000Y-52000000D03*
%TD*%
D13*
%TO.P,REF\u002A\u002A,1*%
%TO.N,N/C*%
X176725000Y-56950000D03*
%TO.P,REF\u002A\u002A,2*%
X188275000Y-54750000D03*
%TD*%
%TO.P,REF\u002A\u002A,1*%
%TO.N,N/C*%
X96725000Y-113950000D03*
%TO.P,REF\u002A\u002A,2*%
X108275000Y-111750000D03*
%TD*%
D17*
%TO.P,REF\u002A\u002A,1*%
%TO.N,N/C*%
X57450000Y-27750000D03*
%TO.P,REF\u002A\u002A,2*%
X57450000Y-26250000D03*
D18*
%TO.P,REF\u002A\u002A,3*%
X62550000Y-26250000D03*
D17*
%TO.P,REF\u002A\u002A,4*%
X62550000Y-27750000D03*
%TD*%
%TO.P,REF\u002A\u002A,1*%
%TO.N,N/C*%
X57450000Y-46750000D03*
%TO.P,REF\u002A\u002A,2*%
X57450000Y-45250000D03*
D18*
%TO.P,REF\u002A\u002A,3*%
X62550000Y-45250000D03*
D17*
%TO.P,REF\u002A\u002A,4*%
X62550000Y-46750000D03*
%TD*%
D14*
%TO.P,REF\u002A\u002A,1*%
%TO.N,N/C*%
X71000000Y-82330000D03*
D15*
%TO.P,REF\u002A\u002A,2*%
X71000000Y-89950000D03*
%TD*%
D17*
%TO.P,REF\u002A\u002A,1*%
%TO.N,N/C*%
X97450000Y-65700000D03*
%TO.P,REF\u002A\u002A,2*%
X97450000Y-64200000D03*
D18*
%TO.P,REF\u002A\u002A,3*%
X102550000Y-64200000D03*
D17*
%TO.P,REF\u002A\u002A,4*%
X102550000Y-65700000D03*
%TD*%
D14*
%TO.P,REF\u002A\u002A,1*%
%TO.N,N/C*%
X111000000Y-63330000D03*
D15*
%TO.P,REF\u002A\u002A,2*%
X111000000Y-70950000D03*
%TD*%
D13*
%TO.P,REF\u002A\u002A,1*%
%TO.N,N/C*%
X176725000Y-37950000D03*
%TO.P,REF\u002A\u002A,2*%
X188275000Y-35750000D03*
%TD*%
D14*
%TO.P,REF\u002A\u002A,1*%
%TO.N,N/C*%
X71000000Y-25330000D03*
D15*
%TO.P,REF\u002A\u002A,2*%
X71000000Y-32950000D03*
%TD*%
D17*
%TO.P,REF\u002A\u002A,1*%
%TO.N,N/C*%
X177450000Y-84700000D03*
%TO.P,REF\u002A\u002A,2*%
X177450000Y-83200000D03*
D18*
%TO.P,REF\u002A\u002A,3*%
X182550000Y-83200000D03*
D17*
%TO.P,REF\u002A\u002A,4*%
X182550000Y-84700000D03*
%TD*%
D13*
%TO.P,REF\u002A\u002A,1*%
%TO.N,N/C*%
X76725000Y-113950000D03*
%TO.P,REF\u002A\u002A,2*%
X88275000Y-111750000D03*
%TD*%
%TO.P,REF\u002A\u002A,1*%
%TO.N,N/C*%
X156725000Y-38000000D03*
%TO.P,REF\u002A\u002A,2*%
X168275000Y-35800000D03*
%TD*%
D14*
%TO.P,REF\u002A\u002A,1*%
%TO.N,N/C*%
X111000000Y-25330000D03*
D15*
%TO.P,REF\u002A\u002A,2*%
X111000000Y-32950000D03*
%TD*%
D26*
%TO.P,REF\u002A\u002A,1*%
%TO.N,N/C*%
X192828935Y-140511916D03*
%TO.P,REF\u002A\u002A,2*%
X203090881Y-146250815D03*
%TD*%
D14*
%TO.P,REF\u002A\u002A,1*%
%TO.N,N/C*%
X71000000Y-101330000D03*
D15*
%TO.P,REF\u002A\u002A,2*%
X71000000Y-108950000D03*
%TD*%
D13*
%TO.P,REF\u002A\u002A,1*%
%TO.N,N/C*%
X156725000Y-57000000D03*
%TO.P,REF\u002A\u002A,2*%
X168275000Y-54800000D03*
%TD*%
%TO.P,REF\u002A\u002A,1*%
%TO.N,N/C*%
X96725000Y-75950000D03*
%TO.P,REF\u002A\u002A,2*%
X108275000Y-73750000D03*
%TD*%
D17*
%TO.P,REF\u002A\u002A,1*%
%TO.N,N/C*%
X137450000Y-65700000D03*
%TO.P,REF\u002A\u002A,2*%
X137450000Y-64200000D03*
D18*
%TO.P,REF\u002A\u002A,3*%
X142550000Y-64200000D03*
D17*
%TO.P,REF\u002A\u002A,4*%
X142550000Y-65700000D03*
%TD*%
D14*
%TO.P,REF\u002A\u002A,1*%
%TO.N,N/C*%
X151000000Y-63380000D03*
D15*
%TO.P,REF\u002A\u002A,2*%
X151000000Y-71000000D03*
%TD*%
D13*
%TO.P,REF\u002A\u002A,1*%
%TO.N,N/C*%
X136725000Y-37950000D03*
%TO.P,REF\u002A\u002A,2*%
X148275000Y-35750000D03*
%TD*%
D17*
%TO.P,REF\u002A\u002A,1*%
%TO.N,N/C*%
X117450000Y-27700000D03*
%TO.P,REF\u002A\u002A,2*%
X117450000Y-26200000D03*
D18*
%TO.P,REF\u002A\u002A,3*%
X122550000Y-26200000D03*
D17*
%TO.P,REF\u002A\u002A,4*%
X122550000Y-27700000D03*
%TD*%
D14*
%TO.P,REF\u002A\u002A,1*%
%TO.N,N/C*%
X71000000Y-44330000D03*
D15*
%TO.P,REF\u002A\u002A,2*%
X71000000Y-51950000D03*
%TD*%
D13*
%TO.P,REF\u002A\u002A,1*%
%TO.N,N/C*%
X76725000Y-94950000D03*
%TO.P,REF\u002A\u002A,2*%
X88275000Y-92750000D03*
%TD*%
D17*
%TO.P,REF\u002A\u002A,1*%
%TO.N,N/C*%
X57450000Y-65750000D03*
%TO.P,REF\u002A\u002A,2*%
X57450000Y-64250000D03*
D18*
%TO.P,REF\u002A\u002A,3*%
X62550000Y-64250000D03*
D17*
%TO.P,REF\u002A\u002A,4*%
X62550000Y-65750000D03*
%TD*%
D13*
%TO.P,REF\u002A\u002A,1*%
%TO.N,N/C*%
X176725000Y-75950000D03*
%TO.P,REF\u002A\u002A,2*%
X188275000Y-73750000D03*
%TD*%
%TO.P,REF\u002A\u002A,1*%
%TO.N,N/C*%
X116725000Y-94950000D03*
%TO.P,REF\u002A\u002A,2*%
X128275000Y-92750000D03*
%TD*%
D14*
%TO.P,REF\u002A\u002A,1*%
%TO.N,N/C*%
X91000000Y-82330000D03*
D15*
%TO.P,REF\u002A\u002A,2*%
X91000000Y-89950000D03*
%TD*%
D17*
%TO.P,REF\u002A\u002A,1*%
%TO.N,N/C*%
X177450000Y-65700000D03*
%TO.P,REF\u002A\u002A,2*%
X177450000Y-64200000D03*
D18*
%TO.P,REF\u002A\u002A,3*%
X182550000Y-64200000D03*
D17*
%TO.P,REF\u002A\u002A,4*%
X182550000Y-65700000D03*
%TD*%
D13*
%TO.P,REF\u002A\u002A,1*%
%TO.N,N/C*%
X156725000Y-95000000D03*
%TO.P,REF\u002A\u002A,2*%
X168275000Y-92800000D03*
%TD*%
D17*
%TO.P,REF\u002A\u002A,1*%
%TO.N,N/C*%
X157450000Y-65750000D03*
%TO.P,REF\u002A\u002A,2*%
X157450000Y-64250000D03*
D18*
%TO.P,REF\u002A\u002A,3*%
X162550000Y-64250000D03*
D17*
%TO.P,REF\u002A\u002A,4*%
X162550000Y-65750000D03*
%TD*%
D14*
%TO.P,REF\u002A\u002A,1*%
%TO.N,N/C*%
X91000000Y-101330000D03*
D15*
%TO.P,REF\u002A\u002A,2*%
X91000000Y-108950000D03*
%TD*%
D27*
%TO.P,REF\u002A\u002A,1*%
%TO.N,N/C*%
X172939424Y-113526532D03*
D28*
%TO.P,REF\u002A\u002A,2*%
X170333231Y-120686990D03*
%TD*%
D13*
%TO.P,REF\u002A\u002A,1*%
%TO.N,N/C*%
X151225000Y-119950000D03*
%TO.P,REF\u002A\u002A,2*%
X162775000Y-117750000D03*
%TD*%
D29*
%TO.P,REF\u002A\u002A,1*%
%TO.N,N/C*%
X125753618Y-110790964D03*
%TO.P,REF\u002A\u002A,2*%
X125493146Y-109313752D03*
D30*
%TO.P,REF\u002A\u002A,3*%
X130515666Y-108428146D03*
D29*
%TO.P,REF\u002A\u002A,4*%
X130776138Y-109905358D03*
%TD*%
D14*
%TO.P,REF\u002A\u002A,1*%
%TO.N,N/C*%
X151000000Y-25380000D03*
D15*
%TO.P,REF\u002A\u002A,2*%
X151000000Y-33000000D03*
%TD*%
D17*
%TO.P,REF\u002A\u002A,1*%
%TO.N,N/C*%
X97450000Y-84700000D03*
%TO.P,REF\u002A\u002A,2*%
X97450000Y-83200000D03*
D18*
%TO.P,REF\u002A\u002A,3*%
X102550000Y-83200000D03*
D17*
%TO.P,REF\u002A\u002A,4*%
X102550000Y-84700000D03*
%TD*%
D13*
%TO.P,REF\u002A\u002A,1*%
%TO.N,N/C*%
X56725000Y-38000000D03*
%TO.P,REF\u002A\u002A,2*%
X68275000Y-35800000D03*
%TD*%
%TO.P,REF\u002A\u002A,1*%
%TO.N,N/C*%
X116725000Y-56950000D03*
%TO.P,REF\u002A\u002A,2*%
X128275000Y-54750000D03*
%TD*%
D14*
%TO.P,REF\u002A\u002A,1*%
%TO.N,N/C*%
X51000000Y-25380000D03*
D15*
%TO.P,REF\u002A\u002A,2*%
X51000000Y-33000000D03*
%TD*%
D14*
%TO.P,REF\u002A\u002A,1*%
%TO.N,N/C*%
X71000000Y-63330000D03*
D15*
%TO.P,REF\u002A\u002A,2*%
X71000000Y-70950000D03*
%TD*%
D17*
%TO.P,REF\u002A\u002A,1*%
%TO.N,N/C*%
X117450000Y-65700000D03*
%TO.P,REF\u002A\u002A,2*%
X117450000Y-64200000D03*
D18*
%TO.P,REF\u002A\u002A,3*%
X122550000Y-64200000D03*
D17*
%TO.P,REF\u002A\u002A,4*%
X122550000Y-65700000D03*
%TD*%
D31*
%TO.P,REF\u002A\u002A,1*%
%TO.N,N/C*%
X118990062Y-109577000D03*
D32*
%TO.P,REF\u002A\u002A,2*%
X120313261Y-117081235D03*
%TD*%
D13*
%TO.P,REF\u002A\u002A,1*%
%TO.N,N/C*%
X76725000Y-56950000D03*
%TO.P,REF\u002A\u002A,2*%
X88275000Y-54750000D03*
%TD*%
D17*
%TO.P,REF\u002A\u002A,1*%
%TO.N,N/C*%
X117450000Y-46700000D03*
%TO.P,REF\u002A\u002A,2*%
X117450000Y-45200000D03*
D18*
%TO.P,REF\u002A\u002A,3*%
X122550000Y-45200000D03*
D17*
%TO.P,REF\u002A\u002A,4*%
X122550000Y-46700000D03*
%TD*%
D14*
%TO.P,REF\u002A\u002A,1*%
%TO.N,N/C*%
X91000000Y-63330000D03*
D15*
%TO.P,REF\u002A\u002A,2*%
X91000000Y-70950000D03*
%TD*%
D14*
%TO.P,REF\u002A\u002A,1*%
%TO.N,N/C*%
X91000000Y-44330000D03*
D15*
%TO.P,REF\u002A\u002A,2*%
X91000000Y-51950000D03*
%TD*%
D14*
%TO.P,REF\u002A\u002A,1*%
%TO.N,N/C*%
X131000000Y-82330000D03*
D15*
%TO.P,REF\u002A\u002A,2*%
X131000000Y-89950000D03*
%TD*%
D13*
%TO.P,REF\u002A\u002A,1*%
%TO.N,N/C*%
X136725000Y-75950000D03*
%TO.P,REF\u002A\u002A,2*%
X148275000Y-73750000D03*
%TD*%
%TO.P,REF\u002A\u002A,1*%
%TO.N,N/C*%
X96725000Y-56950000D03*
%TO.P,REF\u002A\u002A,2*%
X108275000Y-54750000D03*
%TD*%
D33*
%TO.P,REF\u002A\u002A,2*%
%TO.N,N/C*%
X219660000Y-21490000D03*
%TO.P,REF\u002A\u002A,3*%
X219660000Y-24030000D03*
%TO.P,REF\u002A\u002A,4*%
X219660000Y-26570000D03*
%TO.P,REF\u002A\u002A,5*%
X219660000Y-29110000D03*
%TO.P,REF\u002A\u002A,6*%
X219660000Y-31650000D03*
%TO.P,REF\u002A\u002A,7*%
X219660000Y-34190000D03*
%TO.P,REF\u002A\u002A,8*%
X219660000Y-36730000D03*
%TO.P,REF\u002A\u002A,9*%
X219660000Y-39270000D03*
%TO.P,REF\u002A\u002A,10*%
X219660000Y-41810000D03*
%TO.P,REF\u002A\u002A,11*%
X219660000Y-44350000D03*
%TO.P,REF\u002A\u002A,12*%
X219660000Y-46890000D03*
%TO.P,REF\u002A\u002A,13*%
X219660000Y-49430000D03*
%TO.P,REF\u002A\u002A,14*%
X219660000Y-51970000D03*
%TO.P,REF\u002A\u002A,15*%
X199340000Y-21490000D03*
%TO.P,REF\u002A\u002A,16*%
X199340000Y-24030000D03*
%TO.P,REF\u002A\u002A,17*%
X199340000Y-26570000D03*
%TO.P,REF\u002A\u002A,18*%
X199340000Y-29110000D03*
%TO.P,REF\u002A\u002A,19*%
X199340000Y-31650000D03*
%TO.P,REF\u002A\u002A,20*%
X199340000Y-34190000D03*
%TO.P,REF\u002A\u002A,21*%
X199340000Y-36730000D03*
%TO.P,REF\u002A\u002A,22*%
X199340000Y-39270000D03*
%TO.P,REF\u002A\u002A,23*%
X199340000Y-41810000D03*
%TO.P,REF\u002A\u002A,24*%
X199340000Y-44350000D03*
%TO.P,REF\u002A\u002A,25*%
X199340000Y-46890000D03*
%TO.P,REF\u002A\u002A,26*%
X199340000Y-49430000D03*
%TO.P,REF\u002A\u002A,27*%
X199340000Y-51970000D03*
%TD*%
D34*
%TO.N,*%
X203000000Y-55000000D03*
X97000000Y-82000000D03*
X184000000Y-84000000D03*
X189209377Y-137474745D03*
X157000000Y-63000000D03*
X64000000Y-46000000D03*
X189000000Y-59000000D03*
X144000000Y-84000000D03*
X216000000Y-55500000D03*
X204000000Y-51000000D03*
X201466086Y-147759346D03*
X143000000Y-48000000D03*
X184584253Y-119542080D03*
X212000000Y-55500000D03*
X177000000Y-44000000D03*
X88000000Y-94950000D03*
X56000000Y-45000000D03*
X191000000Y-26000000D03*
X152000000Y-57000000D03*
X190000000Y-42000000D03*
X201295000Y-48500000D03*
X128000000Y-75950000D03*
X63000000Y-67000000D03*
X137000000Y-25000000D03*
X103000000Y-105000000D03*
X183000000Y-86000000D03*
X97000000Y-25000000D03*
X56000000Y-64000000D03*
X96000000Y-26000000D03*
X124000000Y-84000000D03*
X116000000Y-64000000D03*
X148000000Y-75950000D03*
X84000000Y-46000000D03*
X92000000Y-56950000D03*
X63000000Y-48000000D03*
X191000000Y-80000000D03*
X112000000Y-37950000D03*
X116000000Y-45000000D03*
X84000000Y-27000000D03*
X88000000Y-56950000D03*
X83000000Y-29000000D03*
X202000000Y-55500000D03*
X83000000Y-105000000D03*
X83000000Y-48000000D03*
X92000000Y-94950000D03*
X136000000Y-83000000D03*
X132000000Y-75950000D03*
X52000000Y-57000000D03*
X216000000Y-50000000D03*
X57000000Y-101000000D03*
X88000000Y-75950000D03*
X152000000Y-95000000D03*
X192000000Y-61000000D03*
X132000000Y-94950000D03*
X143000000Y-86000000D03*
X197000000Y-33500000D03*
X214000000Y-55500000D03*
X92000000Y-113950000D03*
X123000000Y-67000000D03*
X205000000Y-42000000D03*
X124000000Y-65000000D03*
X112000000Y-94950000D03*
X172000000Y-37950000D03*
X97000000Y-63000000D03*
X108000000Y-37950000D03*
X211000000Y-55000000D03*
X143000000Y-67000000D03*
X178690446Y-115268553D03*
X57000000Y-63000000D03*
X177000000Y-82000000D03*
X124841605Y-108210125D03*
X156000000Y-83000000D03*
X197000000Y-125000000D03*
X183000000Y-48000000D03*
X177000000Y-25000000D03*
X184000000Y-46000000D03*
X88000000Y-113950000D03*
X96000000Y-102000000D03*
X201295000Y-41000000D03*
X103000000Y-86000000D03*
X72000000Y-94950000D03*
X188000000Y-75950000D03*
X189000000Y-78000000D03*
X189000000Y-79000000D03*
X84000000Y-65000000D03*
X84000000Y-84000000D03*
X164000000Y-27000000D03*
X192000000Y-24000000D03*
X193000000Y-26000000D03*
X144000000Y-65000000D03*
X128000000Y-94950000D03*
X172000000Y-94950000D03*
X205440434Y-136800007D03*
X56000000Y-102000000D03*
X103000000Y-67000000D03*
X201295000Y-46000000D03*
X123000000Y-86000000D03*
X72000000Y-37950000D03*
X112000000Y-75950000D03*
X188000000Y-37950000D03*
X199954865Y-130891662D03*
X172000000Y-75950000D03*
X104000000Y-27000000D03*
X192000000Y-80000000D03*
X148000000Y-56950000D03*
X123000000Y-48000000D03*
X143000000Y-29000000D03*
X176000000Y-26000000D03*
X136000000Y-45000000D03*
X177000000Y-63000000D03*
X68000000Y-38000000D03*
X52000000Y-76000000D03*
X124000000Y-27000000D03*
X194000000Y-30000000D03*
X76000000Y-83000000D03*
X184000000Y-65000000D03*
X132000000Y-37950000D03*
X124030445Y-109368580D03*
X208280000Y-134620000D03*
X184597902Y-131199795D03*
X137000000Y-82000000D03*
X52000000Y-114000000D03*
X192000000Y-82000000D03*
X182960520Y-121079444D03*
X205740000Y-139700000D03*
X128000000Y-56950000D03*
X183000000Y-67000000D03*
X97000000Y-44000000D03*
X104000000Y-65000000D03*
X108000000Y-113950000D03*
X57000000Y-44000000D03*
X190000000Y-64000000D03*
X77000000Y-101000000D03*
X117000000Y-82000000D03*
X203000000Y-31500000D03*
X183000000Y-29000000D03*
X146500000Y-119950000D03*
X190000000Y-80000000D03*
X72000000Y-56950000D03*
X205000000Y-50500000D03*
X96000000Y-45000000D03*
X57000000Y-25000000D03*
X56000000Y-83000000D03*
X216000000Y-47500000D03*
X77000000Y-82000000D03*
X177408732Y-115866225D03*
X116000000Y-26000000D03*
X128000000Y-37950000D03*
X172000000Y-56950000D03*
X216000000Y-42000000D03*
X156000000Y-26000000D03*
X96000000Y-64000000D03*
X84000000Y-103000000D03*
X191000000Y-61000000D03*
X215500000Y-23000000D03*
X103000000Y-29000000D03*
X204000000Y-53000000D03*
X168000000Y-57000000D03*
X108000000Y-75950000D03*
X136000000Y-64000000D03*
X92000000Y-37950000D03*
X162499999Y-119950000D03*
X156000000Y-64000000D03*
X103000000Y-48000000D03*
X191000000Y-67000000D03*
X210000000Y-55500000D03*
X92000000Y-75950000D03*
X76000000Y-26000000D03*
X189000000Y-41000000D03*
X205000000Y-34500000D03*
X216000000Y-52500000D03*
X137000000Y-63000000D03*
X188000000Y-94950000D03*
X77000000Y-63000000D03*
X116000000Y-83000000D03*
X192000000Y-63000000D03*
X157000000Y-82000000D03*
X108000000Y-94950000D03*
X168000000Y-95000000D03*
X204000000Y-48500000D03*
X83000000Y-86000000D03*
X124000000Y-46000000D03*
X164000000Y-84000000D03*
X204000000Y-41000000D03*
X63000000Y-105000000D03*
X77000000Y-44000000D03*
X64000000Y-103000000D03*
X131445044Y-111107466D03*
X97000000Y-101000000D03*
X63000000Y-86000000D03*
X201295000Y-51000000D03*
X76000000Y-64000000D03*
X201363698Y-130768407D03*
X203388814Y-137689309D03*
X190000000Y-45000000D03*
X144000000Y-27000000D03*
X52000000Y-38000000D03*
X176000000Y-83000000D03*
X137000000Y-44000000D03*
X83000000Y-67000000D03*
X132082555Y-108964203D03*
X158499999Y-108999999D03*
X205000000Y-47000000D03*
X204000000Y-46000000D03*
X190000000Y-83000000D03*
X136000000Y-26000000D03*
X72000000Y-75950000D03*
X189000000Y-60000000D03*
X157499999Y-110999999D03*
X137923233Y-119053255D03*
X63000000Y-29000000D03*
X68000000Y-76000000D03*
X76000000Y-45000000D03*
X88000000Y-37950000D03*
X188000000Y-56950000D03*
X152000000Y-38000000D03*
X77000000Y-25000000D03*
X205000000Y-37000000D03*
X117000000Y-63000000D03*
X150499999Y-107999999D03*
X132000000Y-56950000D03*
X163000000Y-29000000D03*
X157000000Y-44000000D03*
X163000000Y-86000000D03*
X68000000Y-57000000D03*
X156000000Y-45000000D03*
X52000000Y-95000000D03*
X117000000Y-44000000D03*
X184000000Y-27000000D03*
X209500000Y-135500000D03*
X216000000Y-45000000D03*
X198000000Y-121000000D03*
X191000000Y-42000000D03*
X64000000Y-84000000D03*
X108000000Y-56950000D03*
X57000000Y-82000000D03*
X176000000Y-45000000D03*
X213000000Y-55000000D03*
X157000000Y-25000000D03*
X152000000Y-76000000D03*
X168000000Y-76000000D03*
X76000000Y-102000000D03*
X117000000Y-25000000D03*
X192000000Y-42000000D03*
X169562823Y-125727473D03*
X205000000Y-44500000D03*
X123000000Y-29000000D03*
X148000000Y-37950000D03*
X104000000Y-46000000D03*
X68000000Y-114000000D03*
X144000000Y-46000000D03*
X56000000Y-26000000D03*
X189000000Y-40000000D03*
X215500000Y-25000000D03*
X104000000Y-103000000D03*
X205000000Y-39500000D03*
X163000000Y-67000000D03*
X168000000Y-38000000D03*
X148000000Y-94950000D03*
X191000000Y-29000000D03*
X202000000Y-24000000D03*
X164000000Y-65000000D03*
X164000000Y-46000000D03*
X191000000Y-48000000D03*
X176000000Y-64000000D03*
X72000000Y-113950000D03*
X163000000Y-48000000D03*
X68000000Y-95000000D03*
X190000000Y-61000000D03*
X204000000Y-43500000D03*
X64000000Y-65000000D03*
X215000000Y-55000000D03*
X192000000Y-44000000D03*
X191000000Y-86000000D03*
X201295000Y-43500000D03*
X151499999Y-107000000D03*
X122166310Y-121831626D03*
X96000000Y-83000000D03*
X104000000Y-84000000D03*
X64000000Y-27000000D03*
X112000000Y-56950000D03*
%TD*%
D35*
%TO.N,*%
X193000000Y-26000000D02*
X195000000Y-28000000D01*
X195000000Y-28000000D02*
X195000000Y-55500000D01*
X195000000Y-55500000D02*
X198000000Y-58500000D01*
X198000000Y-58500000D02*
X202000000Y-58500000D01*
X202000000Y-58500000D02*
X204000000Y-56500000D01*
X204000000Y-56500000D02*
X204000000Y-53000000D01*
X157450000Y-85450000D02*
X157450000Y-84750000D01*
X204000000Y-51000000D02*
X201295000Y-51000000D01*
X201295000Y-48500000D02*
X204000000Y-48500000D01*
X201295000Y-46000000D02*
X204000000Y-46000000D01*
X204000000Y-43500000D02*
X201295000Y-43500000D01*
X201295000Y-41000000D02*
X204000000Y-41000000D01*
X157000000Y-25000000D02*
X154000000Y-25000000D01*
X154000000Y-25000000D02*
X152000000Y-27000000D01*
X148000000Y-25000000D02*
X143100000Y-25000000D01*
X152000000Y-27000000D02*
X150000000Y-27000000D01*
X150000000Y-27000000D02*
X148000000Y-25000000D01*
X143100000Y-25000000D02*
X142550000Y-25550000D01*
X177408732Y-115866225D02*
X175529347Y-115182186D01*
X161000000Y-108000000D02*
X159500000Y-108000000D01*
X175529347Y-115182186D02*
X172965922Y-116377531D01*
X172965922Y-116377531D02*
X171086537Y-115693491D01*
X159500000Y-108000000D02*
X158499999Y-108999999D01*
X171086537Y-115693491D02*
X170202447Y-113797553D01*
X170202447Y-113797553D02*
X169404894Y-113000000D01*
X169404894Y-113000000D02*
X166000000Y-113000000D01*
X166000000Y-113000000D02*
X161000000Y-108000000D01*
X142550000Y-65700000D02*
X143300000Y-65700000D01*
X143300000Y-65700000D02*
X144000000Y-65000000D01*
X157000000Y-63000000D02*
X154170000Y-63000000D01*
X154170000Y-63000000D02*
X152170000Y-65000000D01*
X152170000Y-65000000D02*
X150000000Y-65000000D01*
X219660000Y-24030000D02*
X222030000Y-24030000D01*
X222030000Y-24030000D02*
X224790000Y-26790000D01*
X224790000Y-26790000D02*
X224790000Y-53975000D01*
X224790000Y-53975000D02*
X224155000Y-54610000D01*
X224155000Y-59170000D02*
X221355000Y-61970000D01*
X224155000Y-54610000D02*
X224155000Y-59170000D01*
X221355000Y-61970000D02*
X221355000Y-66205000D01*
X157450000Y-28450000D02*
X157450000Y-27750000D01*
X156000000Y-87000000D02*
X144000000Y-87000000D01*
X182550000Y-26200000D02*
X182550000Y-25550000D01*
X63250000Y-27750000D02*
X64000000Y-27000000D01*
X181592440Y-124838216D02*
X182276481Y-122958830D01*
X74000000Y-25000000D02*
X72000000Y-27000000D01*
X91000000Y-62000000D02*
X71000000Y-62000000D01*
X97450000Y-46700000D02*
X97450000Y-47450000D01*
X205959964Y-134625131D02*
X205325991Y-134680597D01*
X157450000Y-66450000D02*
X158000000Y-67000000D01*
X83000000Y-86000000D02*
X97000000Y-86000000D01*
X62550000Y-83250000D02*
X62550000Y-82550000D01*
X105000000Y-45000000D02*
X108000000Y-45000000D01*
X108000000Y-63000000D02*
X110000000Y-65000000D01*
X136000000Y-83000000D02*
X136200000Y-83200000D01*
X199426522Y-133777118D02*
X198792548Y-133832585D01*
X62550000Y-65750000D02*
X63250000Y-65750000D01*
X151500001Y-112999999D02*
X151500000Y-115000000D01*
X173307943Y-115437838D02*
X171428558Y-114753798D01*
X123000000Y-52000000D02*
X121000000Y-54000000D01*
X88000000Y-82000000D02*
X90000000Y-84000000D01*
X83000000Y-82000000D02*
X88000000Y-82000000D01*
X216000000Y-52500000D02*
X216530000Y-51970000D01*
X97450000Y-104550000D02*
X97450000Y-103700000D01*
X56000000Y-27000000D02*
X56000000Y-26000000D01*
X143300000Y-27700000D02*
X144000000Y-27000000D01*
X56000000Y-65000000D02*
X56000000Y-64000000D01*
X77450000Y-65700000D02*
X77450000Y-66450000D01*
X157000000Y-50000000D02*
X156000000Y-49000000D01*
X76000000Y-30000000D02*
X64000000Y-30000000D01*
X83000000Y-50000000D02*
X83000000Y-52000000D01*
X62550000Y-44850000D02*
X62550000Y-45250000D01*
X132050000Y-24000000D02*
X151000000Y-24000000D01*
X117450000Y-28550000D02*
X117450000Y-27700000D01*
X142550000Y-45200000D02*
X142550000Y-44550000D01*
X156500000Y-107000000D02*
X151499999Y-107000000D01*
X171000000Y-81000000D02*
X173000000Y-81000000D01*
X139000000Y-92000000D02*
X137000000Y-90000000D01*
X208280000Y-134280000D02*
X190000000Y-116000000D01*
X183687055Y-119960451D02*
X184584253Y-119542080D01*
X123300000Y-65700000D02*
X124000000Y-65000000D01*
X216000000Y-50000000D02*
X216570000Y-49430000D01*
X108275000Y-73750000D02*
X108275000Y-75675000D01*
X112000000Y-66000000D02*
X114000000Y-64000000D01*
X96000000Y-30000000D02*
X84000000Y-30000000D01*
X79000000Y-35000000D02*
X77000000Y-33000000D01*
X183558193Y-122361157D02*
X185000000Y-122885932D01*
X177000000Y-69000000D02*
X176000000Y-68000000D01*
X162550000Y-63450000D02*
X163000000Y-63000000D01*
X132050000Y-43000000D02*
X151000000Y-43000000D01*
X116725000Y-94950000D02*
X112000000Y-94950000D01*
X179029015Y-126033559D02*
X181592440Y-124838216D01*
X204000000Y-47000000D02*
X199450000Y-47000000D01*
X105000000Y-83000000D02*
X108000000Y-83000000D01*
X171000000Y-63330000D02*
X171000000Y-62000000D01*
X63000000Y-33000000D02*
X61000000Y-35000000D01*
X135974484Y-106000000D02*
X141500000Y-106000000D01*
X192000000Y-25000000D02*
X192000000Y-42000000D01*
X96000000Y-106000000D02*
X97000000Y-107000000D01*
X168000000Y-63000000D02*
X170000000Y-65000000D01*
X162550000Y-44450000D02*
X163000000Y-44000000D01*
X188275000Y-54750000D02*
X188275000Y-56675000D01*
X141000000Y-54000000D02*
X139000000Y-54000000D01*
X162550000Y-65750000D02*
X163250000Y-65750000D01*
X108275000Y-111750000D02*
X108275000Y-113675000D01*
X209500000Y-134500000D02*
X191000000Y-116000000D01*
X103000000Y-69000000D02*
X103000000Y-71000000D01*
X151949999Y-109699999D02*
X151949999Y-110449999D01*
X164000000Y-49000000D02*
X163000000Y-50000000D01*
X71000000Y-43000000D02*
X51000000Y-43000000D01*
X182550000Y-46700000D02*
X183300000Y-46700000D01*
X118000000Y-29000000D02*
X123000000Y-29000000D01*
X103000000Y-82000000D02*
X108000000Y-82000000D01*
X210000000Y-55500000D02*
X210000000Y-40500000D01*
X188275000Y-75675000D02*
X188000000Y-75950000D01*
X70000000Y-104000000D02*
X72000000Y-104000000D01*
X137812030Y-116838924D02*
X138146302Y-118734680D01*
X137000000Y-33000000D02*
X137000000Y-31000000D01*
X82550000Y-64200000D02*
X82550000Y-63550000D01*
X161000000Y-107000000D02*
X166000000Y-112000000D01*
X122000000Y-25000000D02*
X117000000Y-25000000D01*
X172000000Y-85000000D02*
X174000000Y-83000000D01*
X99000000Y-35000000D02*
X97000000Y-33000000D01*
X177450000Y-46700000D02*
X177450000Y-47550000D01*
X205000000Y-49500000D02*
X204000000Y-49500000D01*
X103000000Y-63000000D02*
X108000000Y-63000000D01*
X77450000Y-102200000D02*
X76200000Y-102200000D01*
X82000000Y-82000000D02*
X77000000Y-82000000D01*
X208000000Y-58500000D02*
X204000000Y-62500000D01*
X128275000Y-35750000D02*
X128275000Y-37675000D01*
X204000000Y-34500000D02*
X205000000Y-34500000D01*
X183300000Y-46700000D02*
X184000000Y-46000000D01*
X157000000Y-48000000D02*
X157450000Y-47550000D01*
X158000000Y-67000000D02*
X163000000Y-67000000D01*
X68275000Y-37725000D02*
X68000000Y-38000000D01*
X200817664Y-140753488D02*
X202103238Y-139221399D01*
X94000000Y-83000000D02*
X96000000Y-83000000D01*
X199972892Y-133125980D02*
X199426522Y-133777118D01*
X142000000Y-63000000D02*
X137000000Y-63000000D01*
X137000000Y-67000000D02*
X137450000Y-66550000D01*
X168275000Y-94725000D02*
X168000000Y-95000000D01*
X177322366Y-119027325D02*
X177899137Y-118758371D01*
X123000000Y-29000000D02*
X137000000Y-29000000D01*
X165998231Y-115998231D02*
X160999999Y-110999999D01*
X65000000Y-83000000D02*
X68000000Y-83000000D01*
X117450000Y-66550000D02*
X117450000Y-65700000D01*
X164000000Y-68000000D02*
X163000000Y-69000000D01*
X117450000Y-47450000D02*
X118000000Y-48000000D01*
X122550000Y-82550000D02*
X122000000Y-82000000D01*
X99000000Y-73000000D02*
X97000000Y-71000000D01*
X117000000Y-52000000D02*
X117000000Y-50000000D01*
X185000000Y-64000000D02*
X190000000Y-64000000D01*
X183000000Y-63000000D02*
X192000000Y-63000000D01*
X172000000Y-46000000D02*
X170000000Y-46000000D01*
X117000000Y-44000000D02*
X114000000Y-44000000D01*
X148000000Y-63000000D02*
X150000000Y-65000000D01*
X97450000Y-28450000D02*
X98000000Y-29000000D01*
X77000000Y-107000000D02*
X77000000Y-109000000D01*
X51000000Y-100000000D02*
X51000000Y-101380000D01*
X70000000Y-84000000D02*
X68000000Y-82000000D01*
X77450000Y-27700000D02*
X77450000Y-28550000D01*
X112000000Y-47000000D02*
X114000000Y-45000000D01*
X157050000Y-108200000D02*
X157050000Y-107550000D01*
X83000000Y-29000000D02*
X97000000Y-29000000D01*
X63000000Y-109000000D02*
X63000000Y-107000000D01*
X104000000Y-30000000D02*
X103000000Y-31000000D01*
X159000000Y-92000000D02*
X157000000Y-90000000D01*
X151000000Y-81000000D02*
X151950000Y-81000000D01*
X190000000Y-45000000D02*
X185000000Y-45000000D01*
X74000000Y-82000000D02*
X72000000Y-84000000D01*
X156250000Y-64250000D02*
X157450000Y-64250000D01*
X82550000Y-26200000D02*
X82550000Y-25450000D01*
X188000000Y-125000000D02*
X184079444Y-121079444D01*
X83000000Y-67000000D02*
X97000000Y-67000000D01*
X102550000Y-44450000D02*
X103000000Y-44000000D01*
X62550000Y-45250000D02*
X62550000Y-44550000D01*
X168275000Y-73800000D02*
X168275000Y-75725000D01*
X143000000Y-52000000D02*
X141000000Y-54000000D01*
X70000000Y-65000000D02*
X68000000Y-63000000D01*
X205325991Y-134680597D02*
X205261711Y-134757203D01*
X108275000Y-92750000D02*
X108275000Y-94675000D01*
X208000000Y-55500000D02*
X208000000Y-58500000D01*
X102550000Y-46700000D02*
X103300000Y-46700000D01*
X108000000Y-26000000D02*
X110000000Y-28000000D01*
X120264862Y-111047981D02*
X118295247Y-111395277D01*
X68000000Y-63000000D02*
X63400000Y-63000000D01*
X131000000Y-44330000D02*
X131000000Y-43000000D01*
X117300942Y-110699058D02*
X118295247Y-111395277D01*
X57000000Y-68000000D02*
X56000000Y-67000000D01*
X162550000Y-25550000D02*
X162550000Y-25450000D01*
X207500000Y-140500000D02*
X212000000Y-136000000D01*
X182550000Y-27700000D02*
X183300000Y-27700000D01*
X206500000Y-39500000D02*
X209000000Y-42000000D01*
X172939424Y-113526532D02*
X173069391Y-113169448D01*
X190000000Y-68000000D02*
X190000000Y-80000000D01*
X82550000Y-25550000D02*
X82000000Y-25000000D01*
X102550000Y-101450000D02*
X103000000Y-101000000D01*
X143000000Y-50000000D02*
X143000000Y-52000000D01*
X206500000Y-42000000D02*
X205000000Y-42000000D01*
X203000000Y-31650000D02*
X203000000Y-29500000D01*
X77000000Y-67000000D02*
X63000000Y-67000000D01*
X142550000Y-26200000D02*
X142550000Y-25550000D01*
X102000000Y-63000000D02*
X97000000Y-63000000D01*
X191000000Y-116000000D02*
X191000000Y-86000000D01*
X116000000Y-110413542D02*
X116793229Y-111206771D01*
X58000000Y-48000000D02*
X57450000Y-47450000D01*
X68000000Y-45000000D02*
X70000000Y-47000000D01*
X141500000Y-106000000D02*
X144500000Y-109000000D01*
X176638325Y-120906709D02*
X175954284Y-122786095D01*
X182550000Y-83200000D02*
X182550000Y-82550000D01*
X178000000Y-67000000D02*
X191000000Y-67000000D01*
X187294397Y-118294397D02*
X194558246Y-125558246D01*
X137450000Y-85550000D02*
X137450000Y-84700000D01*
X96000000Y-87000000D02*
X84000000Y-87000000D01*
X177450000Y-66550000D02*
X177000000Y-67000000D01*
X108000000Y-83000000D02*
X110000000Y-85000000D01*
X143000000Y-71000000D02*
X141000000Y-73000000D01*
X83000000Y-33000000D02*
X81000000Y-35000000D01*
X177000000Y-71000000D02*
X177000000Y-69000000D01*
X102550000Y-27700000D02*
X103300000Y-27700000D01*
X56000000Y-84000000D02*
X56750000Y-83250000D01*
X185000000Y-122885932D02*
X187057034Y-124942966D01*
X168000000Y-25000000D02*
X170000000Y-27000000D01*
X84000000Y-68000000D02*
X83000000Y-69000000D01*
X108000000Y-82000000D02*
X110000000Y-84000000D01*
X119000000Y-92000000D02*
X117000000Y-90000000D01*
X116000000Y-68000000D02*
X104000000Y-68000000D01*
X102550000Y-63450000D02*
X103000000Y-63000000D01*
X63400000Y-63000000D02*
X62550000Y-63850000D01*
X57000000Y-33000000D02*
X57000000Y-30000000D01*
X97000000Y-29000000D02*
X97450000Y-28550000D01*
X74000000Y-101000000D02*
X72000000Y-103000000D01*
X172050000Y-24000000D02*
X192000000Y-24000000D01*
X84000000Y-103000000D02*
X85000000Y-102000000D01*
X124000000Y-49000000D02*
X123000000Y-50000000D01*
X151500001Y-111000000D02*
X131552511Y-110999999D01*
X209000000Y-55000000D02*
X209000000Y-59000000D01*
X108275000Y-35750000D02*
X108275000Y-37675000D01*
X76725000Y-75950000D02*
X72000000Y-75950000D01*
X199490800Y-133700514D02*
X199558591Y-134475373D01*
X108000000Y-44000000D02*
X110000000Y-46000000D01*
X77450000Y-103700000D02*
X77450000Y-104550000D01*
X70000000Y-46000000D02*
X68000000Y-44000000D01*
X162775000Y-117750000D02*
X162774999Y-119675000D01*
X137450000Y-27700000D02*
X137450000Y-28450000D01*
X131552511Y-110999999D02*
X131445044Y-111107466D01*
X137000000Y-63000000D02*
X134000000Y-63000000D01*
X156725000Y-38000000D02*
X152000000Y-38000000D01*
X189000000Y-60000000D02*
X112000000Y-60000000D01*
X122550000Y-46700000D02*
X123300000Y-46700000D01*
X108275000Y-113675000D02*
X108000000Y-113950000D01*
X168275000Y-54800000D02*
X168275000Y-56725000D01*
X103300000Y-84700000D02*
X104000000Y-84000000D01*
X83300000Y-103700000D02*
X84000000Y-103000000D01*
X96000000Y-49000000D02*
X84000000Y-49000000D01*
X123000000Y-50000000D02*
X123000000Y-52000000D01*
X178000000Y-29000000D02*
X177450000Y-28450000D01*
X104000000Y-87000000D02*
X103000000Y-88000000D01*
X183388909Y-116978654D02*
X178690446Y-115268553D01*
X76725000Y-113950000D02*
X72000000Y-113950000D01*
X182276481Y-122958830D02*
X183558193Y-122361157D01*
X91000000Y-101330000D02*
X91000000Y-100000000D01*
X148000000Y-44000000D02*
X150000000Y-46000000D01*
X145000000Y-45000000D02*
X148000000Y-45000000D01*
X190000000Y-87000000D02*
X184000000Y-87000000D01*
X157000000Y-67000000D02*
X157450000Y-66550000D01*
X175871367Y-114242493D02*
X173307943Y-115437838D01*
X74000000Y-83000000D02*
X76000000Y-83000000D01*
X117000000Y-63000000D02*
X114000000Y-63000000D01*
X157499999Y-107000000D02*
X161000000Y-107000000D01*
X97000000Y-69000000D02*
X96000000Y-68000000D01*
X56000000Y-48000000D02*
X56000000Y-46000000D01*
X62550000Y-82550000D02*
X62000000Y-82000000D01*
X124000000Y-87000000D02*
X123000000Y-88000000D01*
X124030445Y-109368580D02*
X124262136Y-109530812D01*
X177450000Y-28450000D02*
X177450000Y-27700000D01*
X151000000Y-82380000D02*
X151000000Y-81000000D01*
X136200000Y-64200000D02*
X137450000Y-64200000D01*
X112000000Y-60000000D02*
X108950000Y-56950000D01*
X77450000Y-65700000D02*
X77450000Y-66550000D01*
X150000000Y-85000000D02*
X152000000Y-85000000D01*
X82550000Y-102200000D02*
X82550000Y-101550000D01*
X157450000Y-47550000D02*
X157450000Y-47450000D01*
X132082555Y-108964203D02*
X133046758Y-108000000D01*
X123000000Y-71000000D02*
X121000000Y-73000000D01*
X175954284Y-122786095D02*
X177149630Y-125349521D01*
X62000000Y-101000000D02*
X57000000Y-101000000D01*
X136000000Y-30000000D02*
X124000000Y-30000000D01*
X130000000Y-85000000D02*
X132000000Y-85000000D01*
X61000000Y-54000000D02*
X59000000Y-54000000D01*
X188275000Y-56675000D02*
X188000000Y-56950000D01*
X51000000Y-43000000D02*
X51000000Y-44380000D01*
X192000000Y-116000000D02*
X192000000Y-82000000D01*
X77000000Y-25000000D02*
X74000000Y-25000000D01*
X62550000Y-82850000D02*
X62550000Y-83250000D01*
X97000000Y-50000000D02*
X96000000Y-49000000D01*
X192000000Y-81000000D02*
X172050000Y-81000000D01*
X177408732Y-115866225D02*
X177528267Y-116122570D01*
X162550000Y-84750000D02*
X163250000Y-84750000D01*
X68275000Y-73800000D02*
X68275000Y-75725000D01*
X199450000Y-47000000D02*
X199340000Y-46890000D01*
X122550000Y-44450000D02*
X123000000Y-44000000D01*
X96200000Y-102200000D02*
X97450000Y-102200000D01*
X104000000Y-68000000D02*
X103000000Y-69000000D01*
X148050000Y-38000000D02*
X148000000Y-37950000D01*
X158499999Y-111999999D02*
X161000000Y-111999999D01*
X134000000Y-82000000D02*
X132000000Y-84000000D01*
X176000000Y-64000000D02*
X176200000Y-64200000D01*
X219630000Y-24000000D02*
X219660000Y-24030000D01*
X72000000Y-27000000D02*
X70000000Y-27000000D01*
X62550000Y-64250000D02*
X62550000Y-63550000D01*
X97000000Y-88000000D02*
X96000000Y-87000000D01*
X117000000Y-67000000D02*
X117450000Y-66550000D01*
X64000000Y-49000000D02*
X63000000Y-50000000D01*
X185000000Y-26000000D02*
X191000000Y-26000000D01*
X112000000Y-65000000D02*
X110000000Y-65000000D01*
X121000000Y-73000000D02*
X119000000Y-73000000D01*
X122000000Y-107000000D02*
X124000000Y-105000000D01*
X122000000Y-82000000D02*
X117000000Y-82000000D01*
X118990062Y-109577000D02*
X118924076Y-109202772D01*
X161000000Y-111999999D02*
X166062411Y-117062410D01*
X203000000Y-55000000D02*
X203000000Y-56000000D01*
X162550000Y-83250000D02*
X162550000Y-82550000D01*
X121000000Y-35000000D02*
X119000000Y-35000000D01*
X96000000Y-83000000D02*
X96200000Y-83200000D01*
X185608764Y-129226528D02*
X184950374Y-131035435D01*
X171000000Y-44330000D02*
X171000000Y-43000000D01*
X144000000Y-87000000D02*
X143000000Y-88000000D01*
X61000000Y-35000000D02*
X59000000Y-35000000D01*
X134000000Y-63000000D02*
X132000000Y-65000000D01*
X148000000Y-83000000D02*
X150000000Y-85000000D01*
X82000000Y-44000000D02*
X77000000Y-44000000D01*
X101000000Y-35000000D02*
X99000000Y-35000000D01*
X122550000Y-84700000D02*
X123300000Y-84700000D01*
X56000000Y-29000000D02*
X56000000Y-27000000D01*
X177450000Y-85450000D02*
X178000000Y-86000000D01*
X125883494Y-114118970D02*
X126230790Y-116088587D01*
X194000000Y-64500000D02*
X194000000Y-80000000D01*
X191000000Y-130000000D02*
X193427874Y-130000000D01*
X112000000Y-84000000D02*
X110000000Y-84000000D01*
X132074969Y-106000000D02*
X130385429Y-107689540D01*
X148000000Y-45000000D02*
X150000000Y-47000000D01*
X128275000Y-94675000D02*
X128000000Y-94950000D01*
X163000000Y-90000000D02*
X161000000Y-92000000D01*
X156250000Y-83250000D02*
X157450000Y-83250000D01*
X205000000Y-57000000D02*
X202500000Y-59500000D01*
X183000000Y-69000000D02*
X183000000Y-71000000D01*
X126819526Y-121011138D02*
X122166310Y-121831626D01*
X77000000Y-109000000D02*
X79000000Y-111000000D01*
X84000000Y-30000000D02*
X83000000Y-31000000D01*
X117450000Y-66450000D02*
X118000000Y-67000000D01*
X148275000Y-54750000D02*
X148275000Y-56675000D01*
X124000000Y-105000000D02*
X144000000Y-105000000D01*
X177528267Y-116122570D02*
X178702884Y-116550095D01*
X117000000Y-50000000D02*
X116000000Y-49000000D01*
X216000000Y-45000000D02*
X216650000Y-44350000D01*
X182000000Y-44000000D02*
X177000000Y-44000000D01*
X130000000Y-28000000D02*
X132000000Y-28000000D01*
X151225000Y-119950000D02*
X146500000Y-119950000D01*
X174000000Y-82000000D02*
X172000000Y-84000000D01*
X118990062Y-109577000D02*
X121567062Y-107000000D01*
X183495315Y-118294397D02*
X183717628Y-117683596D01*
X124000000Y-68000000D02*
X123000000Y-69000000D01*
X163000000Y-29000000D02*
X177000000Y-29000000D01*
X141000000Y-35000000D02*
X139000000Y-35000000D01*
X118468895Y-112380085D02*
X120438510Y-112032788D01*
X148000000Y-26000000D02*
X150000000Y-28000000D01*
X207000000Y-55000000D02*
X207000000Y-58000000D01*
X117000000Y-69000000D02*
X116000000Y-68000000D01*
X77000000Y-33000000D02*
X77000000Y-31000000D01*
X137000000Y-52000000D02*
X137000000Y-50000000D01*
X64000000Y-68000000D02*
X63000000Y-69000000D01*
X143000000Y-31000000D02*
X143000000Y-33000000D01*
X88000000Y-101000000D02*
X90000000Y-103000000D01*
X205193920Y-133982345D02*
X201363698Y-130768407D01*
X142499999Y-107999998D02*
X144500000Y-110000000D01*
X145000000Y-83000000D02*
X148000000Y-83000000D01*
X63400000Y-25000000D02*
X62550000Y-25850000D01*
X76725000Y-94950000D02*
X72000000Y-94950000D01*
X99000000Y-54000000D02*
X97000000Y-52000000D01*
X122550000Y-63550000D02*
X122000000Y-63000000D01*
X123000000Y-67000000D02*
X137000000Y-67000000D01*
X168000000Y-83000000D02*
X170000000Y-85000000D01*
X157000000Y-52000000D02*
X157000000Y-50000000D01*
X101000000Y-92000000D02*
X99000000Y-92000000D01*
X82550000Y-82550000D02*
X82000000Y-82000000D01*
X189000000Y-79000000D02*
X71000000Y-79000000D01*
X170000000Y-66000000D02*
X172000000Y-66000000D01*
X88275000Y-75675000D02*
X88000000Y-75950000D01*
X183000000Y-71000000D02*
X181000000Y-73000000D01*
X176000000Y-30000000D02*
X164000000Y-30000000D01*
X150700000Y-108200000D02*
X151950000Y-108200000D01*
X77000000Y-29000000D02*
X63000000Y-29000000D01*
X133046758Y-108000000D02*
X142499999Y-107999998D01*
X88275000Y-35750000D02*
X88275000Y-37675000D01*
X84000000Y-27000000D02*
X85000000Y-26000000D01*
X77450000Y-104450000D02*
X78000000Y-105000000D01*
X136725000Y-37950000D02*
X132000000Y-37950000D01*
X162000000Y-63000000D02*
X157000000Y-63000000D01*
X148499999Y-106999999D02*
X151499999Y-107000000D01*
X162550000Y-27750000D02*
X163250000Y-27750000D01*
X120438510Y-112032788D02*
X122060829Y-109715877D01*
X123000000Y-82000000D02*
X128000000Y-82000000D01*
X117000000Y-110398116D02*
X117300942Y-110699058D01*
X59000000Y-92000000D02*
X57000000Y-90000000D01*
X165000000Y-64000000D02*
X168000000Y-64000000D01*
X211250000Y-135250000D02*
X209285520Y-137214480D01*
X114000000Y-44000000D02*
X112000000Y-46000000D01*
X197000000Y-54500000D02*
X199000000Y-56500000D01*
X116200000Y-64200000D02*
X117450000Y-64200000D01*
X82550000Y-45200000D02*
X82550000Y-44550000D01*
X121000000Y-54000000D02*
X119000000Y-54000000D01*
X103000000Y-88000000D02*
X103000000Y-90000000D01*
X169500000Y-38000000D02*
X168000000Y-38000000D01*
X162550000Y-82550000D02*
X162550000Y-82450000D01*
X213000000Y-55000000D02*
X213000000Y-48000000D01*
X92000000Y-84000000D02*
X90000000Y-84000000D01*
X125000000Y-26000000D02*
X128000000Y-26000000D01*
X172000000Y-47000000D02*
X174000000Y-45000000D01*
X163000000Y-31000000D02*
X163000000Y-33000000D01*
X72000000Y-46000000D02*
X70000000Y-46000000D01*
X72000000Y-47000000D02*
X74000000Y-45000000D01*
X168000000Y-82000000D02*
X170000000Y-84000000D01*
X108950000Y-56950000D02*
X108000000Y-56950000D01*
X182550000Y-82550000D02*
X182000000Y-82000000D01*
X77450000Y-47450000D02*
X78000000Y-48000000D01*
X102550000Y-44550000D02*
X102000000Y-44000000D01*
X132000000Y-85000000D02*
X134000000Y-83000000D01*
X112000000Y-27000000D02*
X110000000Y-27000000D01*
X65000000Y-45000000D02*
X68000000Y-45000000D01*
X68000000Y-44000000D02*
X63400000Y-44000000D01*
X121000000Y-92000000D02*
X119000000Y-92000000D01*
X148275000Y-94675000D02*
X148000000Y-94950000D01*
X94000000Y-44000000D02*
X92000000Y-46000000D01*
X85000000Y-26000000D02*
X88000000Y-26000000D01*
X167405282Y-111405282D02*
X171000000Y-111405282D01*
X82550000Y-25450000D02*
X83000000Y-25000000D01*
X68275000Y-54800000D02*
X68275000Y-56725000D01*
X205000000Y-47000000D02*
X204000000Y-47000000D01*
X97450000Y-103700000D02*
X97450000Y-104450000D01*
X188275000Y-73750000D02*
X188275000Y-75675000D01*
X162000000Y-82000000D02*
X157000000Y-82000000D01*
X134000000Y-44000000D02*
X132000000Y-46000000D01*
X68000000Y-101000000D02*
X63400000Y-101000000D01*
X144000000Y-65000000D02*
X145000000Y-64000000D01*
X110000000Y-85000000D02*
X112000000Y-85000000D01*
X128000000Y-45000000D02*
X130000000Y-47000000D01*
X57000000Y-87000000D02*
X56000000Y-86000000D01*
X124000000Y-65000000D02*
X125000000Y-64000000D01*
X177450000Y-65700000D02*
X177450000Y-66450000D01*
X78000000Y-105000000D02*
X83000000Y-105000000D01*
X117000000Y-33000000D02*
X117000000Y-31000000D01*
X156000000Y-30000000D02*
X144000000Y-30000000D01*
X210000000Y-40500000D02*
X206500000Y-37000000D01*
X56725000Y-38000000D02*
X52000000Y-38000000D01*
X117450000Y-27700000D02*
X117450000Y-28450000D01*
X148275000Y-73750000D02*
X148275000Y-75675000D01*
X62550000Y-44550000D02*
X62000000Y-44000000D01*
X212000000Y-55500000D02*
X212000000Y-44000000D01*
X117450000Y-46700000D02*
X117450000Y-47450000D01*
X168275000Y-56725000D02*
X168000000Y-57000000D01*
X151000000Y-62000000D02*
X151950000Y-62000000D01*
X134000000Y-25000000D02*
X132000000Y-27000000D01*
X78000000Y-29000000D02*
X83000000Y-29000000D01*
X151950000Y-110549999D02*
X151500001Y-111000000D01*
X77000000Y-71000000D02*
X77000000Y-69000000D01*
X68275000Y-113725000D02*
X68000000Y-114000000D01*
X62550000Y-103750000D02*
X63250000Y-103750000D01*
X82550000Y-26200000D02*
X82550000Y-25550000D01*
X162550000Y-63550000D02*
X162000000Y-63000000D01*
X176000000Y-83000000D02*
X176200000Y-83200000D01*
X205000000Y-39500000D02*
X206500000Y-39500000D01*
X138146302Y-118734680D02*
X137923233Y-119053255D01*
X56725000Y-114000000D02*
X52000000Y-114000000D01*
X157050000Y-108200000D02*
X157050000Y-107449999D01*
X74000000Y-44000000D02*
X72000000Y-46000000D01*
X125000000Y-83000000D02*
X128000000Y-83000000D01*
X132050000Y-81000000D02*
X151000000Y-81000000D01*
X88000000Y-26000000D02*
X90000000Y-28000000D01*
X103000000Y-52000000D02*
X101000000Y-54000000D01*
X152000000Y-62000000D02*
X171000000Y-62000000D01*
X157450000Y-47450000D02*
X158000000Y-48000000D01*
X97450000Y-66450000D02*
X98000000Y-67000000D01*
X97450000Y-27700000D02*
X97450000Y-28450000D01*
X91000000Y-63330000D02*
X91000000Y-62000000D01*
X184950374Y-131035435D02*
X184597902Y-131199795D01*
X68000000Y-26000000D02*
X70000000Y-28000000D01*
X166062411Y-117062410D02*
X169000000Y-117062410D01*
X72000000Y-65000000D02*
X70000000Y-65000000D01*
X142550000Y-82550000D02*
X143100000Y-82000000D01*
X76200000Y-102200000D02*
X76000000Y-102000000D01*
X114000000Y-26000000D02*
X116000000Y-26000000D01*
X61000000Y-92000000D02*
X59000000Y-92000000D01*
X96725000Y-75950000D02*
X92000000Y-75950000D01*
X174000000Y-45000000D02*
X176000000Y-45000000D01*
X94000000Y-63000000D02*
X92000000Y-65000000D01*
X121567062Y-107000000D02*
X122000000Y-107000000D01*
X137000000Y-88000000D02*
X136000000Y-87000000D01*
X176040652Y-119624997D02*
X176638325Y-120906709D01*
X104000000Y-106000000D02*
X114000000Y-106000000D01*
X76200000Y-45200000D02*
X76000000Y-45000000D01*
X199530000Y-42000000D02*
X199340000Y-41810000D01*
X157050000Y-107449999D02*
X157499999Y-107000000D01*
X142550000Y-63550000D02*
X142000000Y-63000000D01*
X123000000Y-48000000D02*
X137000000Y-48000000D01*
X68275000Y-75725000D02*
X68000000Y-76000000D01*
X122550000Y-45200000D02*
X122550000Y-44550000D01*
X92000000Y-104000000D02*
X94000000Y-102000000D01*
X193000000Y-116000000D02*
X198000000Y-121000000D01*
X152000000Y-66000000D02*
X154000000Y-64000000D01*
X194558246Y-125558246D02*
X194558246Y-127643418D01*
X183000000Y-52000000D02*
X181000000Y-54000000D01*
X88275000Y-111750000D02*
X88275000Y-113675000D01*
X156000000Y-83000000D02*
X156250000Y-83250000D01*
X117000000Y-88000000D02*
X116000000Y-87000000D01*
X132000000Y-46000000D02*
X130000000Y-46000000D01*
X96000000Y-102000000D02*
X96200000Y-102200000D01*
X51000000Y-24000000D02*
X51000000Y-25380000D01*
X169000000Y-115998231D02*
X177322366Y-119027325D01*
X157450000Y-66450000D02*
X157450000Y-65750000D01*
X204000000Y-51970000D02*
X199340000Y-51970000D01*
X98000000Y-105000000D02*
X103000000Y-105000000D01*
X123000000Y-63000000D02*
X128000000Y-63000000D01*
X97000000Y-71000000D02*
X97000000Y-69000000D01*
X191000000Y-61000000D02*
X191000000Y-48000000D01*
X163000000Y-82000000D02*
X168000000Y-82000000D01*
X91000000Y-62000000D02*
X131000000Y-62000000D01*
X143000000Y-33000000D02*
X141000000Y-35000000D01*
X77450000Y-66550000D02*
X77000000Y-67000000D01*
X163250000Y-27750000D02*
X165000000Y-26000000D01*
X130517317Y-117363609D02*
X132139637Y-115046698D01*
X126521005Y-111975707D02*
X131445044Y-111107466D01*
X59000000Y-54000000D02*
X57000000Y-52000000D01*
X81000000Y-35000000D02*
X79000000Y-35000000D01*
X205000000Y-42000000D02*
X204000000Y-42000000D01*
X83000000Y-90000000D02*
X81000000Y-92000000D01*
X170000000Y-47000000D02*
X172000000Y-47000000D01*
X208280000Y-134620000D02*
X208280000Y-134280000D01*
X212000000Y-44000000D02*
X214000000Y-42000000D01*
X152000000Y-85000000D02*
X154000000Y-83000000D01*
X160999999Y-110999999D02*
X160000000Y-110999999D01*
X174002869Y-127343518D02*
X169562823Y-125727473D01*
X81000000Y-111000000D02*
X83000000Y-109000000D01*
X138000000Y-86000000D02*
X143000000Y-86000000D01*
X209285520Y-137214480D02*
X205959964Y-134625131D01*
X182550000Y-84700000D02*
X183300000Y-84700000D01*
X97000000Y-82000000D02*
X94000000Y-82000000D01*
X70000000Y-103000000D02*
X68000000Y-101000000D01*
X214000000Y-42000000D02*
X216000000Y-42000000D01*
X72000000Y-28000000D02*
X74000000Y-26000000D01*
X182000000Y-25000000D02*
X177000000Y-25000000D01*
X130402794Y-107788021D02*
X130385429Y-107689540D01*
X162550000Y-45250000D02*
X162550000Y-44550000D01*
X74000000Y-45000000D02*
X76000000Y-45000000D01*
X150000000Y-66000000D02*
X152000000Y-66000000D01*
X189000000Y-118000000D02*
X189000000Y-117956748D01*
X157000000Y-69000000D02*
X156000000Y-68000000D01*
X193848439Y-125848439D02*
X193848439Y-126000000D01*
X85000000Y-83000000D02*
X88000000Y-83000000D01*
X82550000Y-103700000D02*
X83300000Y-103700000D01*
X201500000Y-23000000D02*
X200470000Y-24030000D01*
X204454251Y-136886287D02*
X205440434Y-136800007D01*
X190000000Y-49000000D02*
X184000000Y-49000000D01*
X90050000Y-78000000D02*
X88000000Y-75950000D01*
X116200000Y-26200000D02*
X117450000Y-26200000D01*
X57450000Y-66450000D02*
X57450000Y-65750000D01*
X82550000Y-45200000D02*
X82550000Y-44450000D01*
X158000000Y-48000000D02*
X163000000Y-48000000D01*
X56000000Y-103000000D02*
X56000000Y-102000000D01*
X91000000Y-44330000D02*
X91000000Y-43000000D01*
X83000000Y-63000000D02*
X88000000Y-63000000D01*
X176200000Y-26200000D02*
X177450000Y-26200000D01*
X128000000Y-25000000D02*
X130000000Y-27000000D01*
X77450000Y-26200000D02*
X76200000Y-26200000D01*
X125901219Y-111628050D02*
X125753618Y-110790963D01*
X148000000Y-82000000D02*
X150000000Y-84000000D01*
X64000000Y-106000000D02*
X76000000Y-106000000D01*
X216610000Y-46890000D02*
X219660000Y-46890000D01*
X70000000Y-85000000D02*
X72000000Y-85000000D01*
X82550000Y-44450000D02*
X83000000Y-44000000D01*
X102550000Y-84700000D02*
X103300000Y-84700000D01*
X57000000Y-52000000D02*
X57000000Y-49000000D01*
X129765643Y-107341883D02*
X130402794Y-107788021D01*
X151000000Y-25380000D02*
X151000000Y-24000000D01*
X83300000Y-65700000D02*
X84000000Y-65000000D01*
X150000000Y-28000000D02*
X152000000Y-28000000D01*
X132000000Y-66000000D02*
X134000000Y-64000000D01*
X178690446Y-115268553D02*
X175871367Y-114242493D01*
X132050000Y-62000000D02*
X151000000Y-62000000D01*
X183000000Y-44000000D02*
X182550000Y-44450000D01*
X56750000Y-45250000D02*
X57450000Y-45250000D01*
X122550000Y-83200000D02*
X122550000Y-82450000D01*
X63000000Y-67000000D02*
X58000000Y-67000000D01*
X112000000Y-28000000D02*
X114000000Y-26000000D01*
X125000000Y-64000000D02*
X128000000Y-64000000D01*
X156000000Y-26000000D02*
X156250000Y-26250000D01*
X117000000Y-25000000D02*
X114000000Y-25000000D01*
X58000000Y-86000000D02*
X57450000Y-85450000D01*
X215000000Y-55000000D02*
X215000000Y-51000000D01*
X117450000Y-85450000D02*
X118000000Y-86000000D01*
X104000000Y-49000000D02*
X103000000Y-50000000D01*
X131000000Y-25330000D02*
X131000000Y-24000000D01*
X124000000Y-30000000D02*
X123000000Y-31000000D01*
X170000000Y-28000000D02*
X172000000Y-28000000D01*
X187057034Y-124942966D02*
X187057034Y-126057034D01*
X82000000Y-63000000D02*
X77000000Y-63000000D01*
X137450000Y-65700000D02*
X137450000Y-66450000D01*
X199610000Y-37000000D02*
X199340000Y-36730000D01*
X149500000Y-38000000D02*
X148050000Y-38000000D01*
X174000000Y-25000000D02*
X172000000Y-27000000D01*
X71000000Y-43000000D02*
X71000000Y-44330000D01*
X124000000Y-46000000D02*
X125000000Y-45000000D01*
X98000000Y-86000000D02*
X103000000Y-86000000D01*
X122550000Y-45200000D02*
X122550000Y-44450000D01*
X97000000Y-101000000D02*
X94000000Y-101000000D01*
X184000000Y-87000000D02*
X183000000Y-88000000D01*
X117000000Y-90000000D02*
X117000000Y-88000000D01*
X116000000Y-83000000D02*
X116200000Y-83200000D01*
X56000000Y-103000000D02*
X56000000Y-105000000D01*
X57450000Y-104450000D02*
X57450000Y-103750000D01*
X141000000Y-73000000D02*
X139000000Y-73000000D01*
X177000000Y-63000000D02*
X174000000Y-63000000D01*
X83000000Y-109000000D02*
X83000000Y-107000000D01*
X103000000Y-44000000D02*
X108000000Y-44000000D01*
X104000000Y-27000000D02*
X105000000Y-26000000D01*
X117000000Y-29000000D02*
X117450000Y-28550000D01*
X91000000Y-100000000D02*
X118980124Y-100000000D01*
X123300000Y-46700000D02*
X124000000Y-46000000D01*
X123000000Y-44000000D02*
X128000000Y-44000000D01*
X97000000Y-90000000D02*
X97000000Y-88000000D01*
X97000000Y-63000000D02*
X94000000Y-63000000D01*
X142550000Y-83200000D02*
X142550000Y-82550000D01*
X63000000Y-50000000D02*
X63000000Y-52000000D01*
X122550000Y-83200000D02*
X122550000Y-82550000D01*
X144000000Y-84000000D02*
X145000000Y-83000000D01*
X81000000Y-54000000D02*
X79000000Y-54000000D01*
X189000000Y-40000000D02*
X171500000Y-40000000D01*
X102000000Y-82000000D02*
X97000000Y-82000000D01*
X194073025Y-128567027D02*
X195605113Y-129852602D01*
X156725000Y-76000000D02*
X152000000Y-76000000D01*
X117450000Y-85550000D02*
X117450000Y-84700000D01*
X96200000Y-45200000D02*
X97450000Y-45200000D01*
X121000000Y-113964636D02*
X124725038Y-113307811D01*
X138000000Y-48000000D02*
X143000000Y-48000000D01*
X177450000Y-46700000D02*
X177450000Y-47450000D01*
X92000000Y-27000000D02*
X90000000Y-27000000D01*
X207000000Y-55000000D02*
X207000000Y-46000000D01*
X208000000Y-43500000D02*
X206500000Y-42000000D01*
X207000000Y-58000000D02*
X203500000Y-61500000D01*
X193000000Y-25000000D02*
X192000000Y-25000000D01*
X209000000Y-59000000D02*
X204500000Y-63500000D01*
X201500000Y-57500000D02*
X198500000Y-57500000D01*
X116793229Y-111206771D02*
X118468895Y-112380085D01*
X216000000Y-55500000D02*
X216000000Y-52500000D01*
X157000000Y-88000000D02*
X156000000Y-87000000D01*
X102550000Y-103700000D02*
X103300000Y-103700000D01*
X83300000Y-46700000D02*
X84000000Y-46000000D01*
X157000000Y-33000000D02*
X157000000Y-31000000D01*
X206500000Y-34500000D02*
X211000000Y-39000000D01*
X56000000Y-65000000D02*
X56750000Y-64250000D01*
X81000000Y-73000000D02*
X79000000Y-73000000D01*
X199000000Y-56500000D02*
X201000000Y-56500000D01*
X201430000Y-26570000D02*
X203000000Y-25000000D01*
X82550000Y-83200000D02*
X82550000Y-82450000D01*
X204000000Y-62500000D02*
X194500000Y-62500000D01*
X119000000Y-54000000D02*
X117000000Y-52000000D01*
X184000000Y-49000000D02*
X183000000Y-50000000D01*
X118000000Y-48000000D02*
X123000000Y-48000000D01*
X132321443Y-112321443D02*
X132642886Y-112000000D01*
X111000000Y-43000000D02*
X111000000Y-44330000D01*
X216000000Y-47500000D02*
X216610000Y-46890000D01*
X190984807Y-128984807D02*
X188000000Y-126000000D01*
X97450000Y-47450000D02*
X98000000Y-48000000D01*
X131000000Y-24000000D02*
X132050000Y-24000000D01*
X116000000Y-87000000D02*
X104000000Y-87000000D01*
X200470000Y-24030000D02*
X199340000Y-24030000D01*
X131000000Y-63330000D02*
X131000000Y-62000000D01*
X182550000Y-82450000D02*
X183000000Y-82000000D01*
X91000000Y-43000000D02*
X131000000Y-43000000D01*
X56000000Y-86000000D02*
X56000000Y-84000000D01*
X177450000Y-47550000D02*
X177000000Y-48000000D01*
X126230790Y-116088587D02*
X128547701Y-117710906D01*
X97000000Y-86000000D02*
X97450000Y-85550000D01*
X64000000Y-103000000D02*
X65000000Y-102000000D01*
X143000000Y-90000000D02*
X141000000Y-92000000D01*
X184584253Y-119542080D02*
X187542080Y-119542080D01*
X78000000Y-67000000D02*
X83000000Y-67000000D01*
X176725000Y-56950000D02*
X172000000Y-56950000D01*
X137450000Y-47450000D02*
X138000000Y-48000000D01*
X182550000Y-44450000D02*
X182550000Y-45200000D01*
X123000000Y-69000000D02*
X123000000Y-71000000D01*
X83000000Y-48000000D02*
X97000000Y-48000000D01*
X199340000Y-39270000D02*
X199570000Y-39500000D01*
X148275000Y-56675000D02*
X148000000Y-56950000D01*
X70000000Y-47000000D02*
X72000000Y-47000000D01*
X56000000Y-84000000D02*
X56000000Y-83000000D01*
X77000000Y-82000000D02*
X74000000Y-82000000D01*
X152000000Y-46000000D02*
X150000000Y-46000000D01*
X128275000Y-75675000D02*
X128000000Y-75950000D01*
X116725000Y-75950000D02*
X112000000Y-75950000D01*
X184000000Y-84000000D02*
X185000000Y-83000000D01*
X76200000Y-83200000D02*
X76000000Y-83000000D01*
X103300000Y-103700000D02*
X104000000Y-103000000D01*
X131000000Y-82330000D02*
X131000000Y-81000000D01*
X172000000Y-27000000D02*
X170000000Y-27000000D01*
X188275000Y-35750000D02*
X188275000Y-37675000D01*
X177450000Y-85550000D02*
X177000000Y-86000000D01*
X103000000Y-29000000D02*
X117000000Y-29000000D01*
X137000000Y-90000000D02*
X137000000Y-88000000D01*
X122550000Y-44550000D02*
X122000000Y-44000000D01*
X77000000Y-63000000D02*
X74000000Y-63000000D01*
X142550000Y-25550000D02*
X142000000Y-25000000D01*
X56750000Y-26250000D02*
X57450000Y-26250000D01*
X134000000Y-64000000D02*
X136000000Y-64000000D01*
X128000000Y-26000000D02*
X130000000Y-28000000D01*
X151500000Y-115000000D02*
X153499999Y-117000000D01*
X183000000Y-82000000D02*
X192000000Y-82000000D01*
X68000000Y-25000000D02*
X63400000Y-25000000D01*
X157499999Y-110999999D02*
X160000000Y-110999999D01*
X191000000Y-29000000D02*
X178000000Y-29000000D01*
X205500000Y-44500000D02*
X205000000Y-44500000D01*
X103300000Y-46700000D02*
X104000000Y-46000000D01*
X110000000Y-66000000D02*
X112000000Y-66000000D01*
X176725000Y-37950000D02*
X172000000Y-37950000D01*
X197000000Y-33500000D02*
X197000000Y-54500000D01*
X124725038Y-113307811D02*
X125883494Y-114118970D01*
X176725000Y-94950000D02*
X172000000Y-94950000D01*
X205000000Y-34500000D02*
X206500000Y-34500000D01*
X152500000Y-111000000D02*
X151950000Y-110450000D01*
X116200000Y-45200000D02*
X117450000Y-45200000D01*
X205000000Y-50500000D02*
X205000000Y-49500000D01*
X108275000Y-37675000D02*
X108000000Y-37950000D01*
X77450000Y-47550000D02*
X77000000Y-48000000D01*
X151000000Y-43000000D02*
X151950000Y-43000000D01*
X111000000Y-44330000D02*
X111000000Y-43950000D01*
X82550000Y-65700000D02*
X83300000Y-65700000D01*
X114000000Y-63000000D02*
X112000000Y-65000000D01*
X163000000Y-88000000D02*
X163000000Y-90000000D01*
X154000000Y-44000000D02*
X152000000Y-46000000D01*
X174000000Y-44000000D02*
X172000000Y-46000000D01*
X192000000Y-44000000D02*
X183000000Y-44000000D01*
X176000000Y-87000000D02*
X164000000Y-87000000D01*
X177000000Y-25000000D02*
X174000000Y-25000000D01*
X102550000Y-65700000D02*
X103300000Y-65700000D01*
X171000000Y-82330000D02*
X171000000Y-81000000D01*
X62000000Y-44000000D02*
X57000000Y-44000000D01*
X63250000Y-65750000D02*
X64000000Y-65000000D01*
X68000000Y-102000000D02*
X70000000Y-104000000D01*
X194500000Y-62500000D02*
X193000000Y-64000000D01*
X108000000Y-64000000D02*
X110000000Y-66000000D01*
X181000000Y-73000000D02*
X179000000Y-73000000D01*
X116000000Y-26000000D02*
X116200000Y-26200000D01*
X97000000Y-33000000D02*
X97000000Y-31000000D01*
X57450000Y-47450000D02*
X57450000Y-46750000D01*
X68275000Y-111800000D02*
X68275000Y-113725000D01*
X193000000Y-64000000D02*
X193000000Y-80000000D01*
X117000000Y-31000000D02*
X116000000Y-30000000D01*
X57450000Y-85450000D02*
X57450000Y-84750000D01*
X176725000Y-75950000D02*
X172000000Y-75950000D01*
X59000000Y-111000000D02*
X61000000Y-111000000D01*
X56000000Y-103000000D02*
X56750000Y-102250000D01*
X97000000Y-52000000D02*
X97000000Y-50000000D01*
X123000000Y-33000000D02*
X121000000Y-35000000D01*
X132000000Y-27000000D02*
X130000000Y-27000000D01*
X196000000Y-28000000D02*
X193000000Y-25000000D01*
X162550000Y-25550000D02*
X162000000Y-25000000D01*
X163000000Y-52000000D02*
X161000000Y-54000000D01*
X171000000Y-43000000D02*
X173000000Y-43000000D01*
X111000000Y-81000000D02*
X111000000Y-82330000D01*
X91000000Y-81000000D02*
X131000000Y-81000000D01*
X97000000Y-105000000D02*
X97450000Y-104550000D01*
X136000000Y-49000000D02*
X124000000Y-49000000D01*
X144500000Y-109000000D02*
X146500000Y-109000000D01*
X137450000Y-84700000D02*
X137450000Y-85450000D01*
X192000000Y-63000000D02*
X192000000Y-80000000D01*
X102550000Y-101550000D02*
X102000000Y-101000000D01*
X154000000Y-83000000D02*
X156000000Y-83000000D01*
X92000000Y-65000000D02*
X90000000Y-65000000D01*
X164000000Y-87000000D02*
X163000000Y-88000000D01*
X96725000Y-37950000D02*
X92000000Y-37950000D01*
X117450000Y-84700000D02*
X117450000Y-85450000D01*
X57000000Y-49000000D02*
X56000000Y-48000000D01*
X64000000Y-46000000D02*
X65000000Y-45000000D01*
X152000000Y-84000000D02*
X150000000Y-84000000D01*
X103000000Y-71000000D02*
X101000000Y-73000000D01*
X83000000Y-31000000D02*
X83000000Y-33000000D01*
X162550000Y-82550000D02*
X162000000Y-82000000D01*
X63000000Y-86000000D02*
X58000000Y-86000000D01*
X156250000Y-45250000D02*
X157450000Y-45250000D01*
X204000000Y-39500000D02*
X205000000Y-39500000D01*
X123000000Y-88000000D02*
X123000000Y-90000000D01*
X163000000Y-71000000D02*
X161000000Y-73000000D01*
X169000000Y-115998231D02*
X165998231Y-115998231D01*
X196000000Y-55000000D02*
X196000000Y-28000000D01*
X56725000Y-95000000D02*
X52000000Y-95000000D01*
X77450000Y-85550000D02*
X77000000Y-86000000D01*
X88000000Y-63000000D02*
X90000000Y-65000000D01*
X198422777Y-129606088D02*
X199954865Y-130891662D01*
X190000000Y-116000000D02*
X190000000Y-87000000D01*
X179000000Y-35000000D02*
X177000000Y-33000000D01*
X57000000Y-71000000D02*
X57000000Y-68000000D01*
X101000000Y-54000000D02*
X99000000Y-54000000D01*
X88000000Y-44000000D02*
X90000000Y-46000000D01*
X143000000Y-86000000D02*
X157000000Y-86000000D01*
X77450000Y-84700000D02*
X77450000Y-85550000D01*
X144000000Y-105000000D02*
X161000000Y-105000000D01*
X163000000Y-48000000D02*
X177000000Y-48000000D01*
X91000000Y-24000000D02*
X131000000Y-24000000D01*
X165000000Y-83000000D02*
X168000000Y-83000000D01*
X118990062Y-100009938D02*
X118990062Y-109577000D01*
X83000000Y-105000000D02*
X97000000Y-105000000D01*
X56000000Y-67000000D02*
X56000000Y-65000000D01*
X196555312Y-125555312D02*
X189000000Y-118000000D01*
X128950000Y-56950000D02*
X131000000Y-59000000D01*
X114000000Y-25000000D02*
X112000000Y-27000000D01*
X191000000Y-67000000D02*
X191000000Y-80000000D01*
X137450000Y-28550000D02*
X137450000Y-27700000D01*
X199490000Y-44500000D02*
X199340000Y-44350000D01*
X91000000Y-25330000D02*
X91000000Y-24000000D01*
X122550000Y-64200000D02*
X122550000Y-63450000D01*
X152500000Y-41000000D02*
X149500000Y-38000000D01*
X137450000Y-47550000D02*
X137450000Y-46700000D01*
X61000000Y-73000000D02*
X59000000Y-73000000D01*
X176200000Y-45200000D02*
X177450000Y-45200000D01*
X56725000Y-57000000D02*
X52000000Y-57000000D01*
X164000000Y-30000000D02*
X163000000Y-31000000D01*
X136000000Y-68000000D02*
X124000000Y-68000000D01*
X157000000Y-29000000D02*
X157450000Y-28550000D01*
X77000000Y-48000000D02*
X63000000Y-48000000D01*
X83000000Y-88000000D02*
X83000000Y-90000000D01*
X168275000Y-75725000D02*
X168000000Y-76000000D01*
X144000000Y-46000000D02*
X145000000Y-45000000D01*
X108000000Y-45000000D02*
X110000000Y-47000000D01*
X88275000Y-56675000D02*
X88000000Y-56950000D01*
X128275000Y-92750000D02*
X128275000Y-94675000D01*
X144500000Y-105000000D02*
X145500000Y-106000000D01*
X156000000Y-49000000D02*
X144000000Y-49000000D01*
X123000000Y-31000000D02*
X123000000Y-33000000D01*
X177450000Y-84700000D02*
X177450000Y-85550000D01*
X168275000Y-92800000D02*
X168275000Y-94725000D01*
X199650000Y-34500000D02*
X199340000Y-34190000D01*
X85000000Y-102000000D02*
X88000000Y-102000000D01*
X134000000Y-45000000D02*
X136000000Y-45000000D01*
X103000000Y-67000000D02*
X117000000Y-67000000D01*
X96000000Y-64000000D02*
X96200000Y-64200000D01*
X163000000Y-25000000D02*
X168000000Y-25000000D01*
X79000000Y-54000000D02*
X77000000Y-52000000D01*
X181000000Y-54000000D02*
X179000000Y-54000000D01*
X105000000Y-102000000D02*
X116000000Y-102000000D01*
X76000000Y-49000000D02*
X64000000Y-49000000D01*
X92000000Y-103000000D02*
X90000000Y-103000000D01*
X94000000Y-102000000D02*
X96000000Y-102000000D01*
X166000000Y-112000000D02*
X170042840Y-112000000D01*
X183000000Y-90000000D02*
X181000000Y-92000000D01*
X184000000Y-68000000D02*
X183000000Y-69000000D01*
X63000000Y-52000000D02*
X61000000Y-54000000D01*
X177000000Y-31000000D02*
X176000000Y-30000000D01*
X105000000Y-64000000D02*
X108000000Y-64000000D01*
X63000000Y-107000000D02*
X64000000Y-106000000D01*
X142550000Y-63550000D02*
X143100000Y-63000000D01*
X108275000Y-94675000D02*
X108000000Y-94950000D01*
X116725000Y-56950000D02*
X112000000Y-56950000D01*
X157000000Y-71000000D02*
X157000000Y-69000000D01*
X199979517Y-131173430D02*
X200937073Y-131976915D01*
X206000000Y-48000000D02*
X205000000Y-47000000D01*
X96000000Y-45000000D02*
X96200000Y-45200000D01*
X176000000Y-49000000D02*
X164000000Y-49000000D01*
X91000000Y-24000000D02*
X71000000Y-24000000D01*
X199954865Y-130891662D02*
X199979517Y-131173430D01*
X92000000Y-85000000D02*
X94000000Y-83000000D01*
X151950000Y-110450000D02*
X151950000Y-110549999D01*
X94000000Y-82000000D02*
X92000000Y-84000000D01*
X148000000Y-64000000D02*
X150000000Y-66000000D01*
X124000000Y-27000000D02*
X125000000Y-26000000D01*
X163000000Y-44000000D02*
X168000000Y-44000000D01*
X117000000Y-101000000D02*
X117000000Y-110398116D01*
X204843900Y-135255130D02*
X204843900Y-135162688D01*
X82550000Y-102200000D02*
X82550000Y-101450000D01*
X82550000Y-82450000D02*
X83000000Y-82000000D01*
X114000000Y-83000000D02*
X116000000Y-83000000D01*
X79000000Y-111000000D02*
X81000000Y-111000000D01*
X137000000Y-31000000D02*
X136000000Y-30000000D01*
X125536198Y-112149355D02*
X125901219Y-111628050D01*
X77450000Y-104550000D02*
X77000000Y-105000000D01*
X120964636Y-114000000D02*
X121000000Y-113964636D01*
X83000000Y-25000000D02*
X88000000Y-25000000D01*
X174000000Y-83000000D02*
X176000000Y-83000000D01*
X116000000Y-45000000D02*
X116200000Y-45200000D01*
X82000000Y-25000000D02*
X77000000Y-25000000D01*
X98000000Y-67000000D02*
X103000000Y-67000000D01*
X134000000Y-26000000D02*
X136000000Y-26000000D01*
X162000000Y-44000000D02*
X157000000Y-44000000D01*
X144000000Y-105000000D02*
X144500000Y-105000000D01*
X111000000Y-25330000D02*
X111000000Y-24950000D01*
X195605113Y-129852602D02*
X198422777Y-129606088D01*
X207000000Y-46000000D02*
X205500000Y-44500000D01*
X183300000Y-27700000D02*
X184000000Y-27000000D01*
X182550000Y-25450000D02*
X183000000Y-25000000D01*
X70000000Y-66000000D02*
X72000000Y-66000000D01*
X103000000Y-90000000D02*
X101000000Y-92000000D01*
X136000000Y-87000000D02*
X124000000Y-87000000D01*
X179000000Y-92000000D02*
X177000000Y-90000000D01*
X97450000Y-47550000D02*
X97450000Y-46700000D01*
X181000000Y-92000000D02*
X179000000Y-92000000D01*
X182550000Y-64200000D02*
X182550000Y-63550000D01*
X151000000Y-63380000D02*
X151000000Y-62000000D01*
X118980124Y-100000000D02*
X118990062Y-100009938D01*
X193000000Y-80000000D02*
X192000000Y-81000000D01*
X157450000Y-85550000D02*
X157450000Y-85450000D01*
X110000000Y-47000000D02*
X112000000Y-47000000D01*
X77450000Y-103700000D02*
X77450000Y-104450000D01*
X161000000Y-35000000D02*
X159000000Y-35000000D01*
X205000000Y-55000000D02*
X205000000Y-57000000D01*
X142550000Y-84700000D02*
X143300000Y-84700000D01*
X99000000Y-92000000D02*
X97000000Y-90000000D01*
X177450000Y-27700000D02*
X177450000Y-28550000D01*
X102550000Y-102200000D02*
X102550000Y-101550000D01*
X117000000Y-71000000D02*
X117000000Y-69000000D01*
X77450000Y-28450000D02*
X78000000Y-29000000D01*
X57000000Y-109000000D02*
X59000000Y-111000000D01*
X102550000Y-45200000D02*
X102550000Y-44550000D01*
X128000000Y-63000000D02*
X130000000Y-65000000D01*
X63250000Y-46750000D02*
X64000000Y-46000000D01*
X56750000Y-83250000D02*
X57450000Y-83250000D01*
X184079444Y-121079444D02*
X182960520Y-121079444D01*
X111000000Y-82330000D02*
X111000000Y-81950000D01*
X205261711Y-134757203D02*
X205193920Y-133982345D01*
X204000000Y-34500000D02*
X199650000Y-34500000D01*
X177450000Y-84700000D02*
X177450000Y-85450000D01*
X196555312Y-127164475D02*
X196799571Y-126873378D01*
X96000000Y-26000000D02*
X96200000Y-26200000D01*
X77000000Y-52000000D02*
X77000000Y-50000000D01*
X168275000Y-35800000D02*
X168275000Y-37725000D01*
X83000000Y-52000000D02*
X81000000Y-54000000D01*
X122550000Y-26200000D02*
X122550000Y-25550000D01*
X114000000Y-111000000D02*
X117000000Y-114000000D01*
X183000000Y-33000000D02*
X181000000Y-35000000D01*
X182550000Y-83200000D02*
X182550000Y-82450000D01*
X142000000Y-44000000D02*
X137000000Y-44000000D01*
X202000000Y-24000000D02*
X219630000Y-24000000D01*
X102550000Y-64200000D02*
X102550000Y-63450000D01*
X122000000Y-44000000D02*
X117000000Y-44000000D01*
X63400000Y-101000000D02*
X62550000Y-101850000D01*
X63000000Y-105000000D02*
X58000000Y-105000000D01*
X168000000Y-64000000D02*
X170000000Y-66000000D01*
X204913930Y-140500000D02*
X207500000Y-140500000D01*
X62550000Y-26250000D02*
X62550000Y-25550000D01*
X182550000Y-45200000D02*
X182550000Y-44550000D01*
X215500000Y-23000000D02*
X201500000Y-23000000D01*
X137000000Y-48000000D02*
X137450000Y-47550000D01*
X178000000Y-86000000D02*
X191000000Y-86000000D01*
X171000000Y-25330000D02*
X171000000Y-24000000D01*
X85000000Y-64000000D02*
X88000000Y-64000000D01*
X145500000Y-106000000D02*
X145500000Y-107329999D01*
X157450000Y-28450000D02*
X158000000Y-29000000D01*
X82550000Y-83200000D02*
X82550000Y-82550000D01*
X63000000Y-29000000D02*
X58000000Y-29000000D01*
X102000000Y-101000000D02*
X97000000Y-101000000D01*
X198500000Y-57500000D02*
X196000000Y-55000000D01*
X111000000Y-24000000D02*
X111000000Y-25330000D01*
X96725000Y-113950000D02*
X92000000Y-113950000D01*
X216000000Y-42000000D02*
X219470000Y-42000000D01*
X124262136Y-109530812D02*
X125493146Y-109313752D01*
X152000000Y-47000000D02*
X154000000Y-45000000D01*
X199972892Y-133125980D02*
X199490800Y-133700514D01*
X120949209Y-113000000D02*
X121000000Y-112949209D01*
X157000000Y-82000000D02*
X154000000Y-82000000D01*
X123000000Y-86000000D02*
X137000000Y-86000000D01*
X142550000Y-44550000D02*
X143100000Y-44000000D01*
X204000000Y-42000000D02*
X199530000Y-42000000D01*
X162550000Y-82450000D02*
X163000000Y-82000000D01*
X161000000Y-54000000D02*
X159000000Y-54000000D01*
X97450000Y-85450000D02*
X98000000Y-86000000D01*
X63250000Y-103750000D02*
X64000000Y-103000000D01*
X77450000Y-66450000D02*
X78000000Y-67000000D01*
X71000000Y-81000000D02*
X71000000Y-82330000D01*
X152000000Y-81000000D02*
X171000000Y-81000000D01*
X165000000Y-26000000D02*
X168000000Y-26000000D01*
X208000000Y-55500000D02*
X208000000Y-43500000D01*
X214000000Y-49500000D02*
X216000000Y-47500000D01*
X142550000Y-44550000D02*
X142000000Y-44000000D01*
X132000000Y-28000000D02*
X134000000Y-26000000D01*
X111000000Y-63330000D02*
X111000000Y-62950000D01*
X102550000Y-82550000D02*
X102000000Y-82000000D01*
X168275000Y-37725000D02*
X168000000Y-38000000D01*
X156725000Y-95000000D02*
X152000000Y-95000000D01*
X103000000Y-48000000D02*
X117000000Y-48000000D01*
X170233212Y-112190372D02*
X171428558Y-114753798D01*
X99000000Y-111000000D02*
X101000000Y-111000000D01*
X157500000Y-112999999D02*
X158499999Y-111999999D01*
X162550000Y-46750000D02*
X163250000Y-46750000D01*
X124841605Y-108210125D02*
X121887180Y-108731069D01*
X83000000Y-101000000D02*
X88000000Y-101000000D01*
X91000000Y-43000000D02*
X71000000Y-43000000D01*
X68000000Y-83000000D02*
X70000000Y-85000000D01*
X122060829Y-109715877D02*
X124030445Y-109368580D01*
X156000000Y-68000000D02*
X144000000Y-68000000D01*
X77450000Y-64200000D02*
X76200000Y-64200000D01*
X70000000Y-27000000D02*
X68000000Y-25000000D01*
X142550000Y-82550000D02*
X142000000Y-82000000D01*
X136000000Y-64000000D02*
X136200000Y-64200000D01*
X94000000Y-64000000D02*
X96000000Y-64000000D01*
X128275000Y-54750000D02*
X128275000Y-56675000D01*
X124841605Y-108210125D02*
X129765643Y-107341883D01*
X96200000Y-64200000D02*
X97450000Y-64200000D01*
X117450000Y-28450000D02*
X118000000Y-29000000D01*
X192000000Y-24000000D02*
X191950000Y-24000000D01*
X157050000Y-107550000D02*
X156500000Y-107000000D01*
X128000000Y-56950000D02*
X128950000Y-56950000D01*
X177450000Y-65700000D02*
X177450000Y-66550000D01*
X103000000Y-107000000D02*
X104000000Y-106000000D01*
X76000000Y-106000000D02*
X77000000Y-107000000D01*
X137000000Y-44000000D02*
X134000000Y-44000000D01*
X122550000Y-27700000D02*
X123300000Y-27700000D01*
X183000000Y-25000000D02*
X192000000Y-25000000D01*
X142000000Y-82000000D02*
X137000000Y-82000000D01*
X116200000Y-83200000D02*
X117450000Y-83200000D01*
X71000000Y-100000000D02*
X71000000Y-101330000D01*
X158000000Y-86000000D02*
X163000000Y-86000000D01*
X104000000Y-103000000D02*
X105000000Y-102000000D01*
X62550000Y-27750000D02*
X63250000Y-27750000D01*
X172000000Y-66000000D02*
X174000000Y-64000000D01*
X72000000Y-66000000D02*
X74000000Y-64000000D01*
X163000000Y-67000000D02*
X177000000Y-67000000D01*
X124000000Y-84000000D02*
X125000000Y-83000000D01*
X114000000Y-82000000D02*
X112000000Y-84000000D01*
X143100000Y-44000000D02*
X148000000Y-44000000D01*
X143300000Y-46700000D02*
X144000000Y-46000000D01*
X182000000Y-63000000D02*
X177000000Y-63000000D01*
X121887180Y-108731069D02*
X120264862Y-111047981D01*
X203512071Y-139098141D02*
X204913930Y-140500000D01*
X108275000Y-75675000D02*
X108000000Y-75950000D01*
X172000000Y-28000000D02*
X174000000Y-26000000D01*
X88000000Y-83000000D02*
X90000000Y-85000000D01*
X161000000Y-73000000D02*
X159000000Y-73000000D01*
X130776138Y-109905358D02*
X131514744Y-109775122D01*
X143000000Y-69000000D02*
X143000000Y-71000000D01*
X146500000Y-109000000D02*
X148499999Y-106999999D01*
X122550000Y-26200000D02*
X122550000Y-25450000D01*
X146500000Y-110000000D02*
X148500000Y-108000000D01*
X152000000Y-43000000D02*
X171000000Y-43000000D01*
X198792548Y-133832585D02*
X193015193Y-128984807D01*
X128275000Y-73750000D02*
X128275000Y-75675000D01*
X62550000Y-84750000D02*
X63250000Y-84750000D01*
X205000000Y-37000000D02*
X204000000Y-37000000D01*
X138000000Y-67000000D02*
X143000000Y-67000000D01*
X179000000Y-54000000D02*
X177000000Y-52000000D01*
X163250000Y-46750000D02*
X165000000Y-45000000D01*
X199570000Y-39500000D02*
X204000000Y-39500000D01*
X74000000Y-63000000D02*
X72000000Y-65000000D01*
X201853515Y-147725450D02*
X201466086Y-147759346D01*
X157499999Y-110999999D02*
X152500000Y-111000000D01*
X148275000Y-75675000D02*
X148000000Y-75950000D01*
X83000000Y-44000000D02*
X88000000Y-44000000D01*
X88275000Y-113675000D02*
X88000000Y-113950000D01*
X211000000Y-39000000D02*
X211000000Y-55000000D01*
X212000000Y-136000000D02*
X192000000Y-116000000D01*
X203000000Y-29500000D02*
X202610000Y-29110000D01*
X102550000Y-83200000D02*
X102550000Y-82450000D01*
X188275000Y-92750000D02*
X188275000Y-94675000D01*
X216530000Y-51970000D02*
X219660000Y-51970000D01*
X169000000Y-117062410D02*
X176040652Y-119624997D01*
X202610000Y-29110000D02*
X199340000Y-29110000D01*
X132000000Y-47000000D02*
X134000000Y-45000000D01*
X83000000Y-71000000D02*
X81000000Y-73000000D01*
X177899137Y-118758371D02*
X178189854Y-117959632D01*
X114000000Y-45000000D02*
X116000000Y-45000000D01*
X62550000Y-101850000D02*
X62550000Y-102250000D01*
X162550000Y-63550000D02*
X162550000Y-63450000D01*
X116000000Y-64000000D02*
X116200000Y-64200000D01*
X96200000Y-26200000D02*
X97450000Y-26200000D01*
X202500000Y-59500000D02*
X197500000Y-59500000D01*
X104000000Y-46000000D02*
X105000000Y-45000000D01*
X57000000Y-90000000D02*
X57000000Y-87000000D01*
X204843900Y-135162688D02*
X205325991Y-134680597D01*
X145000000Y-26000000D02*
X148000000Y-26000000D01*
X205740000Y-139700000D02*
X205399505Y-139700000D01*
X131514744Y-109775122D02*
X132082555Y-108964203D01*
X115000000Y-111000000D02*
X117000000Y-113000000D01*
X64000000Y-65000000D02*
X65000000Y-64000000D01*
X104000000Y-65000000D02*
X105000000Y-64000000D01*
X71000000Y-62000000D02*
X71000000Y-63330000D01*
X131000000Y-43000000D02*
X132050000Y-43000000D01*
X154000000Y-26000000D02*
X156000000Y-26000000D01*
X193427874Y-130000000D02*
X197383716Y-133955842D01*
X125000000Y-45000000D02*
X128000000Y-45000000D01*
X195000000Y-63500000D02*
X194000000Y-64500000D01*
X162550000Y-26250000D02*
X162550000Y-25550000D01*
X171000000Y-24000000D02*
X173000000Y-24000000D01*
X183300000Y-65700000D02*
X184000000Y-65000000D01*
X176000000Y-68000000D02*
X164000000Y-68000000D01*
X163000000Y-69000000D02*
X163000000Y-71000000D01*
X82550000Y-63450000D02*
X83000000Y-63000000D01*
X183000000Y-31000000D02*
X183000000Y-33000000D01*
X62550000Y-25550000D02*
X62000000Y-25000000D01*
X101000000Y-73000000D02*
X99000000Y-73000000D01*
X177450000Y-47450000D02*
X178000000Y-48000000D01*
X62550000Y-102250000D02*
X62550000Y-101550000D01*
X77450000Y-84700000D02*
X77450000Y-85450000D01*
X97450000Y-65700000D02*
X97450000Y-66450000D01*
X56725000Y-76000000D02*
X52000000Y-76000000D01*
X168000000Y-26000000D02*
X170000000Y-28000000D01*
X79000000Y-92000000D02*
X77000000Y-90000000D01*
X83300000Y-27700000D02*
X84000000Y-27000000D01*
X68275000Y-92800000D02*
X68275000Y-94725000D01*
X156000000Y-64000000D02*
X156250000Y-64250000D01*
X196555312Y-127164475D02*
X196555312Y-125555312D01*
X188000000Y-126000000D02*
X188000000Y-125000000D01*
X215000000Y-51000000D02*
X216000000Y-50000000D01*
X213000000Y-48000000D02*
X216000000Y-45000000D01*
X192000000Y-62000000D02*
X172050000Y-62000000D01*
X103000000Y-31000000D02*
X103000000Y-33000000D01*
X97000000Y-31000000D02*
X96000000Y-30000000D01*
X177450000Y-28550000D02*
X177000000Y-29000000D01*
X62000000Y-25000000D02*
X57000000Y-25000000D01*
X90000000Y-85000000D02*
X92000000Y-85000000D01*
X148275000Y-35750000D02*
X148275000Y-37675000D01*
X56750000Y-102250000D02*
X57450000Y-102250000D01*
X198000000Y-141000000D02*
X200817664Y-140753488D01*
X56750000Y-64250000D02*
X57450000Y-64250000D01*
X205000000Y-55000000D02*
X205000000Y-50500000D01*
X122000000Y-63000000D02*
X117000000Y-63000000D01*
X77450000Y-46700000D02*
X77450000Y-47450000D01*
X176000000Y-26000000D02*
X176200000Y-26200000D01*
X148500000Y-108000000D02*
X150499999Y-107999999D01*
X77000000Y-101000000D02*
X74000000Y-101000000D01*
X184000000Y-65000000D02*
X185000000Y-64000000D01*
X176200000Y-64200000D02*
X177450000Y-64200000D01*
X199410000Y-49500000D02*
X199340000Y-49430000D01*
X117000000Y-82000000D02*
X114000000Y-82000000D01*
X148275000Y-92750000D02*
X148275000Y-94675000D01*
X157000000Y-90000000D02*
X157000000Y-88000000D01*
X154000000Y-45000000D02*
X156000000Y-45000000D01*
X88000000Y-45000000D02*
X90000000Y-47000000D01*
X184000000Y-30000000D02*
X183000000Y-31000000D01*
X154000000Y-82000000D02*
X152000000Y-84000000D01*
X154000000Y-64000000D02*
X156000000Y-64000000D01*
X157450000Y-47450000D02*
X157450000Y-46750000D01*
X204000000Y-44500000D02*
X199490000Y-44500000D01*
X157050000Y-109699999D02*
X157800000Y-109699999D01*
X137000000Y-50000000D02*
X136000000Y-49000000D01*
X188275000Y-37675000D02*
X188000000Y-37950000D01*
X117000000Y-114000000D02*
X120964636Y-114000000D01*
X97000000Y-25000000D02*
X94000000Y-25000000D01*
X157450000Y-85450000D02*
X158000000Y-86000000D01*
X203000000Y-60500000D02*
X197000000Y-60500000D01*
X132139637Y-115046698D02*
X131792340Y-113077081D01*
X64000000Y-27000000D02*
X65000000Y-26000000D01*
X84000000Y-106000000D02*
X96000000Y-106000000D01*
X58000000Y-29000000D02*
X57450000Y-28450000D01*
X162000000Y-25000000D02*
X157000000Y-25000000D01*
X88275000Y-73750000D02*
X88275000Y-75675000D01*
X157000000Y-44000000D02*
X154000000Y-44000000D01*
X209000000Y-42000000D02*
X209000000Y-55000000D01*
X141000000Y-92000000D02*
X139000000Y-92000000D01*
X97000000Y-44000000D02*
X94000000Y-44000000D01*
X97450000Y-28550000D02*
X97450000Y-27700000D01*
X119000000Y-35000000D02*
X117000000Y-33000000D01*
X163000000Y-86000000D02*
X177000000Y-86000000D01*
X137000000Y-86000000D02*
X137450000Y-85550000D01*
X63400000Y-44000000D02*
X62550000Y-44850000D01*
X143000000Y-29000000D02*
X157000000Y-29000000D01*
X57450000Y-28450000D02*
X57450000Y-27750000D01*
X90000000Y-104000000D02*
X92000000Y-104000000D01*
X176200000Y-83200000D02*
X177450000Y-83200000D01*
X168000000Y-45000000D02*
X170000000Y-47000000D01*
X102550000Y-102200000D02*
X102550000Y-101450000D01*
X84000000Y-49000000D02*
X83000000Y-50000000D01*
X125753618Y-110790963D02*
X125883854Y-111529569D01*
X121000000Y-112949209D02*
X125536198Y-112149355D01*
X142550000Y-64200000D02*
X142550000Y-63550000D01*
X179000000Y-73000000D02*
X177000000Y-71000000D01*
X172000000Y-65000000D02*
X170000000Y-65000000D01*
X177000000Y-33000000D02*
X177000000Y-31000000D01*
X199558591Y-134475373D02*
X203388814Y-137689309D01*
X204000000Y-53000000D02*
X204000000Y-51970000D01*
X91000000Y-100000000D02*
X71000000Y-100000000D01*
X118000000Y-67000000D02*
X123000000Y-67000000D01*
X119000000Y-73000000D02*
X117000000Y-71000000D01*
X114000000Y-106000000D02*
X114000000Y-111000000D01*
X162550000Y-25450000D02*
X163000000Y-25000000D01*
X187057034Y-126057034D02*
X191000000Y-130000000D01*
X63000000Y-88000000D02*
X63000000Y-90000000D01*
X163250000Y-65750000D02*
X165000000Y-64000000D01*
X112000000Y-85000000D02*
X114000000Y-83000000D01*
X137000000Y-69000000D02*
X136000000Y-68000000D01*
X199065565Y-128840043D02*
X201363698Y-130768407D01*
X82000000Y-101000000D02*
X77000000Y-101000000D01*
X97450000Y-85550000D02*
X97450000Y-84700000D01*
X76000000Y-68000000D02*
X64000000Y-68000000D01*
X63000000Y-71000000D02*
X61000000Y-73000000D01*
X94000000Y-26000000D02*
X96000000Y-26000000D01*
X125883854Y-111529569D02*
X126521005Y-111975707D01*
X137000000Y-25000000D02*
X134000000Y-25000000D01*
X150499999Y-107999999D02*
X150700000Y-108200000D01*
X68275000Y-56725000D02*
X68000000Y-57000000D01*
X63000000Y-31000000D02*
X63000000Y-33000000D01*
X177000000Y-52000000D02*
X177000000Y-50000000D01*
X123000000Y-90000000D02*
X121000000Y-92000000D01*
X116000000Y-49000000D02*
X104000000Y-49000000D01*
X128000000Y-44000000D02*
X130000000Y-46000000D01*
X85000000Y-45000000D02*
X88000000Y-45000000D01*
X161000000Y-105000000D02*
X167405282Y-111405282D01*
X132000000Y-65000000D02*
X130000000Y-65000000D01*
X103000000Y-50000000D02*
X103000000Y-52000000D01*
X136200000Y-26200000D02*
X137450000Y-26200000D01*
X219470000Y-42000000D02*
X219660000Y-41810000D01*
X62550000Y-101550000D02*
X62000000Y-101000000D01*
X199340000Y-26570000D02*
X201430000Y-26570000D01*
X196555312Y-127164475D02*
X196555312Y-125444688D01*
X56000000Y-46000000D02*
X56750000Y-45250000D01*
X190000000Y-30000000D02*
X184000000Y-30000000D01*
X71000000Y-62000000D02*
X51000000Y-62000000D01*
X62550000Y-46750000D02*
X63250000Y-46750000D01*
X81000000Y-92000000D02*
X79000000Y-92000000D01*
X159000000Y-35000000D02*
X157000000Y-33000000D01*
X203090881Y-146250815D02*
X201853515Y-147725450D01*
X74000000Y-102000000D02*
X76000000Y-102000000D01*
X137450000Y-28450000D02*
X138000000Y-29000000D01*
X131000000Y-62000000D02*
X132050000Y-62000000D01*
X91000000Y-82330000D02*
X91000000Y-81000000D01*
X88000000Y-64000000D02*
X90000000Y-66000000D01*
X130515666Y-108428146D02*
X130515666Y-107900893D01*
X178000000Y-48000000D02*
X191000000Y-48000000D01*
X108275000Y-56675000D02*
X108000000Y-56950000D01*
X183717628Y-117683596D02*
X183388909Y-116978654D01*
X193000000Y-43000000D02*
X172050000Y-43000000D01*
X162550000Y-44550000D02*
X162550000Y-44450000D01*
X117000000Y-86000000D02*
X117450000Y-85550000D01*
X137000000Y-82000000D02*
X134000000Y-82000000D01*
X84000000Y-87000000D02*
X83000000Y-88000000D01*
X84000000Y-65000000D02*
X85000000Y-64000000D01*
X177000000Y-44000000D02*
X174000000Y-44000000D01*
X144500000Y-110000000D02*
X146500000Y-110000000D01*
X96725000Y-94950000D02*
X92000000Y-94950000D01*
X63000000Y-48000000D02*
X58000000Y-48000000D01*
X112000000Y-46000000D02*
X110000000Y-46000000D01*
X190000000Y-30000000D02*
X190000000Y-42000000D01*
X182550000Y-63450000D02*
X183000000Y-63000000D01*
X71000000Y-79000000D02*
X68000000Y-76000000D01*
X182550000Y-64200000D02*
X182550000Y-63450000D01*
X110000000Y-28000000D02*
X112000000Y-28000000D01*
X82550000Y-84700000D02*
X83300000Y-84700000D01*
X77450000Y-27700000D02*
X77450000Y-28450000D01*
X189000000Y-78000000D02*
X90050000Y-78000000D01*
X145000000Y-64000000D02*
X148000000Y-64000000D01*
X189000000Y-41000000D02*
X152500000Y-41000000D01*
X116000000Y-102000000D02*
X116000000Y-110413542D01*
X77000000Y-31000000D02*
X76000000Y-30000000D01*
X82550000Y-101450000D02*
X83000000Y-101000000D01*
X152000000Y-24000000D02*
X171000000Y-24000000D01*
X197506973Y-135364673D02*
X196221397Y-136896762D01*
X188275000Y-94675000D02*
X188000000Y-94950000D01*
X194715811Y-127800983D02*
X196247900Y-129086557D01*
X76200000Y-26200000D02*
X76000000Y-26000000D01*
X76000000Y-87000000D02*
X64000000Y-87000000D01*
X184000000Y-46000000D02*
X185000000Y-45000000D01*
X71000000Y-24000000D02*
X51000000Y-24000000D01*
X183300000Y-84700000D02*
X184000000Y-84000000D01*
X163000000Y-33000000D02*
X161000000Y-35000000D01*
X135974484Y-106000000D02*
X132074969Y-106000000D01*
X72000000Y-85000000D02*
X74000000Y-83000000D01*
X161000000Y-92000000D02*
X159000000Y-92000000D01*
X122550000Y-63450000D02*
X123000000Y-63000000D01*
X171500000Y-40000000D02*
X169500000Y-38000000D01*
X97000000Y-109000000D02*
X99000000Y-111000000D01*
X118000000Y-86000000D02*
X123000000Y-86000000D01*
X76200000Y-64200000D02*
X76000000Y-64000000D01*
X192000000Y-44000000D02*
X192000000Y-61000000D01*
X145500000Y-107329999D02*
X145500000Y-106949999D01*
X123300000Y-27700000D02*
X124000000Y-27000000D01*
X209500000Y-135500000D02*
X209500000Y-134500000D01*
X97000000Y-67000000D02*
X97450000Y-66550000D01*
X176000000Y-45000000D02*
X176200000Y-45200000D01*
X136200000Y-45200000D02*
X137450000Y-45200000D01*
X92000000Y-66000000D02*
X94000000Y-64000000D01*
X102000000Y-25000000D02*
X97000000Y-25000000D01*
X159000000Y-73000000D02*
X157000000Y-71000000D01*
X128000000Y-83000000D02*
X130000000Y-85000000D01*
X68000000Y-82000000D02*
X63400000Y-82000000D01*
X57000000Y-106000000D02*
X57000000Y-109000000D01*
X102550000Y-25450000D02*
X103000000Y-25000000D01*
X193848439Y-126000000D02*
X194073025Y-128567027D01*
X57000000Y-30000000D02*
X56000000Y-29000000D01*
X206500000Y-37000000D02*
X205000000Y-37000000D01*
X128000000Y-82000000D02*
X130000000Y-84000000D01*
X77000000Y-44000000D02*
X74000000Y-44000000D01*
X90000000Y-66000000D02*
X92000000Y-66000000D01*
X77000000Y-50000000D02*
X76000000Y-49000000D01*
X65000000Y-26000000D02*
X68000000Y-26000000D01*
X157500000Y-115000000D02*
X157500000Y-112999999D01*
X62000000Y-82000000D02*
X57000000Y-82000000D01*
X117000000Y-48000000D02*
X117450000Y-47550000D01*
X197000000Y-60500000D02*
X193000000Y-56500000D01*
X182982286Y-119703936D02*
X183687055Y-119960451D01*
X117450000Y-65700000D02*
X117450000Y-66450000D01*
X92000000Y-46000000D02*
X90000000Y-46000000D01*
X174000000Y-64000000D02*
X176000000Y-64000000D01*
X177000000Y-50000000D02*
X176000000Y-49000000D01*
X102550000Y-82450000D02*
X103000000Y-82000000D01*
X144000000Y-68000000D02*
X143000000Y-69000000D01*
X152000000Y-28000000D02*
X154000000Y-26000000D01*
X157450000Y-28550000D02*
X157450000Y-28450000D01*
X77000000Y-86000000D02*
X63000000Y-86000000D01*
X82550000Y-27700000D02*
X83300000Y-27700000D01*
X131000000Y-59000000D02*
X189000000Y-59000000D01*
X196467911Y-139714426D02*
X198000000Y-141000000D01*
X187542080Y-119542080D02*
X193848439Y-125848439D01*
X151000000Y-24000000D02*
X151950000Y-24000000D01*
X203879719Y-136404199D02*
X204454251Y-136886287D01*
X172000000Y-84000000D02*
X170000000Y-84000000D01*
X131000000Y-81000000D02*
X132050000Y-81000000D01*
X102000000Y-44000000D02*
X97000000Y-44000000D01*
X117000000Y-113000000D02*
X120949209Y-113000000D01*
X63000000Y-69000000D02*
X63000000Y-71000000D01*
X142000000Y-25000000D02*
X137000000Y-25000000D01*
X128275000Y-56675000D02*
X128000000Y-56950000D01*
X202103238Y-139221399D02*
X203512071Y-139098141D01*
X159000000Y-54000000D02*
X157000000Y-52000000D01*
X82550000Y-64200000D02*
X82550000Y-63450000D01*
X128275000Y-37675000D02*
X128000000Y-37950000D01*
X77450000Y-46700000D02*
X77450000Y-47550000D01*
X157800000Y-109699999D02*
X158499999Y-108999999D01*
X103000000Y-25000000D02*
X108000000Y-25000000D01*
X182000000Y-82000000D02*
X177000000Y-82000000D01*
X59000000Y-73000000D02*
X57000000Y-71000000D01*
X151000000Y-44380000D02*
X151000000Y-43000000D01*
X168000000Y-44000000D02*
X170000000Y-46000000D01*
X201000000Y-56500000D02*
X202000000Y-55500000D01*
X94000000Y-101000000D02*
X92000000Y-103000000D01*
X144000000Y-49000000D02*
X143000000Y-50000000D01*
X122550000Y-65700000D02*
X123300000Y-65700000D01*
X142550000Y-46700000D02*
X143300000Y-46700000D01*
X143000000Y-48000000D02*
X157000000Y-48000000D01*
X102550000Y-83200000D02*
X102550000Y-82550000D01*
X196221397Y-136896762D02*
X196467911Y-139714426D01*
X183000000Y-50000000D02*
X183000000Y-52000000D01*
X170042840Y-112000000D02*
X170233212Y-112190372D01*
X96725000Y-56950000D02*
X92000000Y-56950000D01*
X61000000Y-111000000D02*
X63000000Y-109000000D01*
X184000000Y-27000000D02*
X185000000Y-26000000D01*
X82550000Y-63550000D02*
X82000000Y-63000000D01*
X144000000Y-30000000D02*
X143000000Y-31000000D01*
X77450000Y-28550000D02*
X77000000Y-29000000D01*
X82550000Y-46700000D02*
X83300000Y-46700000D01*
X96000000Y-68000000D02*
X84000000Y-68000000D01*
X92000000Y-28000000D02*
X94000000Y-26000000D01*
X116725000Y-37950000D02*
X112000000Y-37950000D01*
X63250000Y-84750000D02*
X64000000Y-84000000D01*
X185000000Y-83000000D02*
X190000000Y-83000000D01*
X77450000Y-45200000D02*
X76200000Y-45200000D01*
X64000000Y-84000000D02*
X65000000Y-83000000D01*
X137450000Y-46700000D02*
X137450000Y-47450000D01*
X153499999Y-117000000D02*
X155499999Y-116999999D01*
X143000000Y-88000000D02*
X143000000Y-90000000D01*
X196247900Y-129086557D02*
X199065565Y-128840043D01*
X68000000Y-64000000D02*
X70000000Y-66000000D01*
X190000000Y-68000000D02*
X184000000Y-68000000D01*
X203500000Y-61500000D02*
X192500000Y-61500000D01*
X138000000Y-29000000D02*
X143000000Y-29000000D01*
X177000000Y-88000000D02*
X176000000Y-87000000D01*
X173394311Y-112276741D02*
X172939424Y-113526532D01*
X151949999Y-110449999D02*
X152500000Y-111000000D01*
X130000000Y-47000000D02*
X132000000Y-47000000D01*
X205000000Y-44500000D02*
X204000000Y-44500000D01*
X137450000Y-66450000D02*
X138000000Y-67000000D01*
X206000000Y-55500000D02*
X206000000Y-48000000D01*
X143100000Y-63000000D02*
X148000000Y-63000000D01*
X137000000Y-29000000D02*
X137450000Y-28550000D01*
X105000000Y-26000000D02*
X108000000Y-26000000D01*
X76725000Y-37950000D02*
X72000000Y-37950000D01*
X214000000Y-55500000D02*
X214000000Y-49500000D01*
X97450000Y-84700000D02*
X97450000Y-85450000D01*
X96200000Y-83200000D02*
X97450000Y-83200000D01*
X197383716Y-133955842D02*
X197506973Y-135364673D01*
X63000000Y-90000000D02*
X61000000Y-92000000D01*
X77450000Y-85450000D02*
X78000000Y-86000000D01*
X163250000Y-84750000D02*
X165000000Y-83000000D01*
X103300000Y-65700000D02*
X104000000Y-65000000D01*
X115000000Y-105000000D02*
X115000000Y-111000000D01*
X123300000Y-84700000D02*
X124000000Y-84000000D01*
X65000000Y-102000000D02*
X68000000Y-102000000D01*
X103000000Y-105000000D02*
X115000000Y-105000000D01*
X204000000Y-49500000D02*
X199410000Y-49500000D01*
X122550000Y-82450000D02*
X123000000Y-82000000D01*
X192828936Y-140511916D02*
X189209377Y-137474745D01*
X174000000Y-26000000D02*
X176000000Y-26000000D01*
X51000000Y-62000000D02*
X51000000Y-63380000D01*
X122550000Y-25450000D02*
X123000000Y-25000000D01*
X128000000Y-64000000D02*
X130000000Y-66000000D01*
X88000000Y-25000000D02*
X90000000Y-27000000D01*
X194000000Y-80000000D02*
X193000000Y-81000000D01*
X78000000Y-86000000D02*
X83000000Y-86000000D01*
X71000000Y-24000000D02*
X71000000Y-25330000D01*
X182550000Y-63550000D02*
X182000000Y-63000000D01*
X143000000Y-67000000D02*
X157000000Y-67000000D01*
X71000000Y-100000000D02*
X51000000Y-100000000D01*
X157450000Y-66550000D02*
X157450000Y-66450000D01*
X72000000Y-84000000D02*
X70000000Y-84000000D01*
X111000000Y-62000000D02*
X111000000Y-63330000D01*
X91000000Y-81000000D02*
X71000000Y-81000000D01*
X194000000Y-56000000D02*
X194000000Y-30000000D01*
X98000000Y-48000000D02*
X103000000Y-48000000D01*
X181000000Y-35000000D02*
X179000000Y-35000000D01*
X77000000Y-69000000D02*
X76000000Y-68000000D01*
X196555312Y-125444688D02*
X197000000Y-125000000D01*
X205399505Y-139700000D02*
X203388814Y-137689309D01*
X178262058Y-119369345D02*
X182960520Y-121079444D01*
X94000000Y-25000000D02*
X92000000Y-27000000D01*
X203000000Y-56000000D02*
X201500000Y-57500000D01*
X92000000Y-47000000D02*
X94000000Y-45000000D01*
X103000000Y-33000000D02*
X101000000Y-35000000D01*
X206000000Y-55500000D02*
X206000000Y-57500000D01*
X65000000Y-64000000D02*
X68000000Y-64000000D01*
X88275000Y-92750000D02*
X88275000Y-94675000D01*
X162550000Y-44550000D02*
X162000000Y-44000000D01*
X182550000Y-26200000D02*
X182550000Y-25450000D01*
X163000000Y-50000000D02*
X163000000Y-52000000D01*
X72000000Y-103000000D02*
X70000000Y-103000000D01*
X204500000Y-63500000D02*
X195000000Y-63500000D01*
X144000000Y-27000000D02*
X145000000Y-26000000D01*
X102550000Y-26200000D02*
X102550000Y-25550000D01*
X177450000Y-66450000D02*
X178000000Y-67000000D01*
X162550000Y-64250000D02*
X162550000Y-63550000D01*
X202850000Y-31650000D02*
X203000000Y-31500000D01*
X101000000Y-111000000D02*
X103000000Y-109000000D01*
X70000000Y-28000000D02*
X72000000Y-28000000D01*
X88275000Y-54750000D02*
X88275000Y-56675000D01*
X122550000Y-64200000D02*
X122550000Y-63550000D01*
X131792340Y-113077081D02*
X132321443Y-112321443D01*
X94000000Y-45000000D02*
X96000000Y-45000000D01*
X178189854Y-117959632D02*
X177933338Y-118664402D01*
X97450000Y-104450000D02*
X98000000Y-105000000D01*
X193015193Y-128984807D02*
X190984807Y-128984807D01*
X130000000Y-66000000D02*
X132000000Y-66000000D01*
X148275000Y-37675000D02*
X148000000Y-37950000D01*
X130515666Y-107900893D02*
X130402794Y-107788021D01*
X183495315Y-118294397D02*
X187294397Y-118294397D01*
X62550000Y-63850000D02*
X62550000Y-64250000D01*
X103300000Y-27700000D02*
X104000000Y-27000000D01*
X76725000Y-56950000D02*
X72000000Y-56950000D01*
X78000000Y-48000000D02*
X83000000Y-48000000D01*
X62550000Y-63550000D02*
X62000000Y-63000000D01*
X216650000Y-44350000D02*
X219660000Y-44350000D01*
X62000000Y-63000000D02*
X57000000Y-63000000D01*
X157000000Y-86000000D02*
X157450000Y-85550000D01*
X116000000Y-30000000D02*
X104000000Y-30000000D01*
X62550000Y-25850000D02*
X62550000Y-26250000D01*
X216570000Y-49430000D02*
X219660000Y-49430000D01*
X134000000Y-83000000D02*
X136000000Y-83000000D01*
X171000000Y-62000000D02*
X173000000Y-62000000D01*
X137450000Y-85450000D02*
X138000000Y-86000000D01*
X192500000Y-61500000D02*
X192000000Y-62000000D01*
X143300000Y-84700000D02*
X144000000Y-84000000D01*
X136200000Y-83200000D02*
X137450000Y-83200000D01*
X102550000Y-25550000D02*
X102000000Y-25000000D01*
X136000000Y-45000000D02*
X136200000Y-45200000D01*
X156250000Y-26250000D02*
X157450000Y-26250000D01*
X132642886Y-112000000D02*
X150499999Y-112000000D01*
X123000000Y-25000000D02*
X128000000Y-25000000D01*
X182550000Y-65700000D02*
X183300000Y-65700000D01*
X82550000Y-44550000D02*
X82000000Y-44000000D01*
X182550000Y-25550000D02*
X182000000Y-25000000D01*
X162774999Y-119675000D02*
X162499999Y-119950000D01*
X56000000Y-105000000D02*
X57000000Y-106000000D01*
X174000000Y-63000000D02*
X172000000Y-65000000D01*
X182550000Y-44550000D02*
X182000000Y-44000000D01*
X204000000Y-37000000D02*
X199610000Y-37000000D01*
X77000000Y-90000000D02*
X77000000Y-88000000D01*
X77000000Y-88000000D02*
X76000000Y-87000000D01*
X183000000Y-88000000D02*
X183000000Y-90000000D01*
X142550000Y-27700000D02*
X143300000Y-27700000D01*
X177000000Y-82000000D02*
X174000000Y-82000000D01*
X98000000Y-29000000D02*
X103000000Y-29000000D01*
X139000000Y-54000000D02*
X137000000Y-52000000D01*
X102550000Y-45200000D02*
X102550000Y-44450000D01*
X77450000Y-83200000D02*
X76200000Y-83200000D01*
X156000000Y-45000000D02*
X156250000Y-45250000D01*
X83000000Y-107000000D02*
X84000000Y-106000000D01*
X97000000Y-107000000D02*
X97000000Y-109000000D01*
X90000000Y-47000000D02*
X92000000Y-47000000D01*
X82550000Y-101550000D02*
X82000000Y-101000000D01*
X136000000Y-26000000D02*
X136200000Y-26200000D01*
X64000000Y-30000000D02*
X63000000Y-31000000D01*
X137450000Y-66550000D02*
X137450000Y-65700000D01*
X88275000Y-94675000D02*
X88000000Y-94950000D01*
X203000000Y-25000000D02*
X215500000Y-25000000D01*
X193000000Y-56500000D02*
X193000000Y-43000000D01*
X59000000Y-35000000D02*
X57000000Y-33000000D01*
X158000000Y-29000000D02*
X163000000Y-29000000D01*
X88000000Y-102000000D02*
X90000000Y-104000000D01*
X88275000Y-37675000D02*
X88000000Y-37950000D01*
X122550000Y-25550000D02*
X122000000Y-25000000D01*
X137000000Y-71000000D02*
X137000000Y-69000000D01*
X108000000Y-25000000D02*
X110000000Y-27000000D01*
X72000000Y-104000000D02*
X74000000Y-102000000D01*
X143100000Y-82000000D02*
X148000000Y-82000000D01*
X193000000Y-81000000D02*
X193000000Y-116000000D01*
X71000000Y-81000000D02*
X51000000Y-81000000D01*
X114000000Y-64000000D02*
X116000000Y-64000000D01*
X177933338Y-118664402D02*
X178262058Y-119369345D01*
X103000000Y-86000000D02*
X117000000Y-86000000D01*
X97450000Y-66550000D02*
X97450000Y-65700000D01*
X74000000Y-64000000D02*
X76000000Y-64000000D01*
X136725000Y-94950000D02*
X132000000Y-94950000D01*
X83000000Y-69000000D02*
X83000000Y-71000000D01*
X102550000Y-63550000D02*
X102000000Y-63000000D01*
X157000000Y-31000000D02*
X156000000Y-30000000D01*
X97000000Y-48000000D02*
X97450000Y-47550000D01*
X197500000Y-59500000D02*
X194000000Y-56000000D01*
X108275000Y-54750000D02*
X108275000Y-56675000D01*
X132000000Y-84000000D02*
X130000000Y-84000000D01*
X90000000Y-28000000D02*
X92000000Y-28000000D01*
X79000000Y-73000000D02*
X77000000Y-71000000D01*
X84000000Y-46000000D02*
X85000000Y-45000000D01*
X171000000Y-111405282D02*
X189000000Y-117956748D01*
X74000000Y-26000000D02*
X76000000Y-26000000D01*
X68275000Y-94725000D02*
X68000000Y-95000000D01*
X136725000Y-56950000D02*
X132000000Y-56950000D01*
X103000000Y-101000000D02*
X117000000Y-101000000D01*
X102550000Y-26200000D02*
X102550000Y-25450000D01*
X51000000Y-81000000D02*
X51000000Y-82380000D01*
X206000000Y-57500000D02*
X203000000Y-60500000D01*
X58000000Y-105000000D02*
X57450000Y-104450000D01*
X190000000Y-49000000D02*
X190000000Y-61000000D01*
X136725000Y-75950000D02*
X132000000Y-75950000D01*
X150499999Y-112000000D02*
X151500001Y-112999999D01*
X103000000Y-109000000D02*
X103000000Y-107000000D01*
X194558246Y-127643418D02*
X194715811Y-127800983D01*
X102550000Y-64200000D02*
X102550000Y-63550000D01*
X58000000Y-67000000D02*
X57450000Y-66450000D01*
X199340000Y-31650000D02*
X202850000Y-31650000D01*
X77000000Y-105000000D02*
X63000000Y-105000000D01*
X56000000Y-46000000D02*
X56000000Y-45000000D01*
X64000000Y-87000000D02*
X63000000Y-88000000D01*
X165000000Y-45000000D02*
X168000000Y-45000000D01*
X128547701Y-117710906D02*
X130517317Y-117363609D01*
X155499999Y-116999999D02*
X157500000Y-115000000D01*
X177149630Y-125349521D02*
X179029015Y-126033559D01*
X150000000Y-47000000D02*
X152000000Y-47000000D01*
X139000000Y-73000000D02*
X137000000Y-71000000D01*
X63400000Y-82000000D02*
X62550000Y-82850000D01*
X156725000Y-57000000D02*
X152000000Y-57000000D01*
X56000000Y-27000000D02*
X56750000Y-26250000D01*
X191000000Y-29000000D02*
X191000000Y-42000000D01*
X68275000Y-35800000D02*
X68275000Y-37725000D01*
X177000000Y-90000000D02*
X177000000Y-88000000D01*
X163000000Y-63000000D02*
X168000000Y-63000000D01*
X139000000Y-35000000D02*
X137000000Y-33000000D01*
X104000000Y-84000000D02*
X105000000Y-83000000D01*
X84000000Y-84000000D02*
X85000000Y-83000000D01*
X83300000Y-84700000D02*
X84000000Y-84000000D01*
X117450000Y-47550000D02*
X117450000Y-46700000D01*
X170000000Y-85000000D02*
X172000000Y-85000000D01*
%TD*%
M02*
