%TF.GenerationSoftware,KiCad,Pcbnew,7.0.7*%
%TF.CreationDate,2023-09-03T20:27:55-07:00*%
%TF.ProjectId,keyboard,6b657962-6f61-4726-942e-6b696361645f,rev?*%
%TF.SameCoordinates,Original*%
%TF.FileFunction,Paste,Bot*%
%TF.FilePolarity,Positive*%
%FSLAX46Y46*%
G04 Gerber Fmt 4.6, Leading zero omitted, Abs format (unit mm)*
G04 Created by KiCad (PCBNEW 7.0.7) date 2023-09-03 20:27:55*
%MOMM*%
%LPD*%
G01*
G04 APERTURE LIST*
G04 Aperture macros list*
%AMRoundRect*
0 Rectangle with rounded corners*
0 $1 Rounding radius*
0 $2 $3 $4 $5 $6 $7 $8 $9 X,Y pos of 4 corners*
0 Add a 4 corners polygon primitive as box body*
4,1,4,$2,$3,$4,$5,$6,$7,$8,$9,$2,$3,0*
0 Add four circle primitives for the rounded corners*
1,1,$1+$1,$2,$3*
1,1,$1+$1,$4,$5*
1,1,$1+$1,$6,$7*
1,1,$1+$1,$8,$9*
0 Add four rect primitives between the rounded corners*
20,1,$1+$1,$2,$3,$4,$5,0*
20,1,$1+$1,$4,$5,$6,$7,0*
20,1,$1+$1,$6,$7,$8,$9,0*
20,1,$1+$1,$8,$9,$2,$3,0*%
%AMRotRect*
0 Rectangle, with rotation*
0 The origin of the aperture is its center*
0 $1 length*
0 $2 width*
0 $3 Rotation angle, in degrees counterclockwise*
0 Add horizontal line*
21,1,$1,$2,0,0,$3*%
G04 Aperture macros list end*
%ADD10R,2.600000X2.600000*%
%ADD11RotRect,2.600000X2.600000X340.000000*%
%ADD12RotRect,2.600000X2.600000X10.000000*%
%ADD13RotRect,2.600000X2.600000X320.000000*%
%ADD14R,1.700000X0.820000*%
%ADD15RoundRect,0.205000X0.645000X0.205000X-0.645000X0.205000X-0.645000X-0.205000X0.645000X-0.205000X0*%
%ADD16RotRect,1.700000X0.820000X190.000000*%
%ADD17RoundRect,0.205000X0.599603X0.313889X-0.670799X0.089883X-0.599603X-0.313889X0.670799X-0.089883X0*%
%ADD18RotRect,1.700000X0.820000X140.000000*%
%ADD19RoundRect,0.205000X0.625870X-0.257559X-0.362327X0.571637X-0.625870X0.257559X0.362327X-0.571637X0*%
%ADD20RotRect,1.700000X0.820000X160.000000*%
%ADD21RoundRect,0.205000X0.676216X-0.027966X-0.535988X0.413240X-0.676216X0.027966X0.535988X-0.413240X0*%
%ADD22R,2.610000X1.400000*%
G04 APERTURE END LIST*
D10*
%TO.C,REF\u002A\u002A*%
X103275000Y-94950000D03*
X91725000Y-92750000D03*
%TD*%
D11*
%TO.C,REF\u002A\u002A*%
X180157856Y-129583750D03*
X170056851Y-123566094D03*
%TD*%
D10*
%TO.C,REF\u002A\u002A*%
X143275000Y-56950000D03*
X131725000Y-54750000D03*
%TD*%
%TO.C,REF\u002A\u002A*%
X63275000Y-76000000D03*
X51725000Y-73800000D03*
%TD*%
%TO.C,REF\u002A\u002A*%
X83275000Y-37950000D03*
X71725000Y-35750000D03*
%TD*%
D12*
%TO.C,REF\u002A\u002A*%
X133270017Y-119873743D03*
X121513462Y-119712803D03*
%TD*%
D10*
%TO.C,REF\u002A\u002A*%
X143275000Y-94950000D03*
X131725000Y-92750000D03*
%TD*%
%TO.C,REF\u002A\u002A*%
X103275000Y-37950000D03*
X91725000Y-35750000D03*
%TD*%
%TO.C,REF\u002A\u002A*%
X83275000Y-75950000D03*
X71725000Y-73750000D03*
%TD*%
%TO.C,REF\u002A\u002A*%
X163275000Y-76000000D03*
X151725000Y-73800000D03*
%TD*%
%TO.C,REF\u002A\u002A*%
X63275000Y-95000000D03*
X51725000Y-92800000D03*
%TD*%
%TO.C,REF\u002A\u002A*%
X123275000Y-75950000D03*
X111725000Y-73750000D03*
%TD*%
%TO.C,REF\u002A\u002A*%
X183275000Y-94950000D03*
X171725000Y-92750000D03*
%TD*%
%TO.C,REF\u002A\u002A*%
X123275000Y-37950000D03*
X111725000Y-35750000D03*
%TD*%
%TO.C,REF\u002A\u002A*%
X63275000Y-114000000D03*
X51725000Y-111800000D03*
%TD*%
%TO.C,REF\u002A\u002A*%
X63275000Y-57000000D03*
X51725000Y-54800000D03*
%TD*%
%TO.C,REF\u002A\u002A*%
X183275000Y-56950000D03*
X171725000Y-54750000D03*
%TD*%
%TO.C,REF\u002A\u002A*%
X103275000Y-113950000D03*
X91725000Y-111750000D03*
%TD*%
%TO.C,REF\u002A\u002A*%
X183275000Y-37950000D03*
X171725000Y-35750000D03*
%TD*%
%TO.C,REF\u002A\u002A*%
X83275000Y-113950000D03*
X71725000Y-111750000D03*
%TD*%
%TO.C,REF\u002A\u002A*%
X163275000Y-38000000D03*
X151725000Y-35800000D03*
%TD*%
D13*
%TO.C,REF\u002A\u002A*%
X197846526Y-144722175D03*
X190412846Y-135612680D03*
%TD*%
D10*
%TO.C,REF\u002A\u002A*%
X163275000Y-57000000D03*
X151725000Y-54800000D03*
%TD*%
%TO.C,REF\u002A\u002A*%
X103275000Y-75950000D03*
X91725000Y-73750000D03*
%TD*%
%TO.C,REF\u002A\u002A*%
X143275000Y-37950000D03*
X131725000Y-35750000D03*
%TD*%
%TO.C,REF\u002A\u002A*%
X83275000Y-94950000D03*
X71725000Y-92750000D03*
%TD*%
%TO.C,REF\u002A\u002A*%
X183275000Y-75950000D03*
X171725000Y-73750000D03*
%TD*%
%TO.C,REF\u002A\u002A*%
X123275000Y-94950000D03*
X111725000Y-92750000D03*
%TD*%
%TO.C,REF\u002A\u002A*%
X163275000Y-95000000D03*
X151725000Y-92800000D03*
%TD*%
%TO.C,REF\u002A\u002A*%
X157775000Y-119950000D03*
X146225000Y-117750000D03*
%TD*%
%TO.C,REF\u002A\u002A*%
X63275000Y-38000000D03*
X51725000Y-35800000D03*
%TD*%
%TO.C,REF\u002A\u002A*%
X123275000Y-56950000D03*
X111725000Y-54750000D03*
%TD*%
%TO.C,REF\u002A\u002A*%
X83275000Y-56950000D03*
X71725000Y-54750000D03*
%TD*%
%TO.C,REF\u002A\u002A*%
X143275000Y-75950000D03*
X131725000Y-73750000D03*
%TD*%
%TO.C,REF\u002A\u002A*%
X103275000Y-56950000D03*
X91725000Y-54750000D03*
%TD*%
D14*
%TO.C,REF\u002A\u002A*%
X62550000Y-27750000D03*
X62550000Y-26250000D03*
D15*
X57450000Y-26250000D03*
D14*
X57450000Y-27750000D03*
%TD*%
%TO.C,REF\u002A\u002A*%
X122550000Y-84700000D03*
X122550000Y-83200000D03*
D15*
X117450000Y-83200000D03*
D14*
X117450000Y-84700000D03*
%TD*%
%TO.C,REF\u002A\u002A*%
X122550000Y-46700000D03*
X122550000Y-45200000D03*
D15*
X117450000Y-45200000D03*
D14*
X117450000Y-46700000D03*
%TD*%
%TO.C,REF\u002A\u002A*%
X62550000Y-46750000D03*
X62550000Y-45250000D03*
D15*
X57450000Y-45250000D03*
D14*
X57450000Y-46750000D03*
%TD*%
%TO.C,REF\u002A\u002A*%
X162550000Y-84750000D03*
X162550000Y-83250000D03*
D15*
X157450000Y-83250000D03*
D14*
X157450000Y-84750000D03*
%TD*%
%TO.C,REF\u002A\u002A*%
X142550000Y-27700000D03*
X142550000Y-26200000D03*
D15*
X137450000Y-26200000D03*
D14*
X137450000Y-27700000D03*
%TD*%
%TO.C,REF\u002A\u002A*%
X182550000Y-46700000D03*
X182550000Y-45200000D03*
D15*
X177450000Y-45200000D03*
D14*
X177450000Y-46700000D03*
%TD*%
%TO.C,REF\u002A\u002A*%
X62550000Y-103750000D03*
X62550000Y-102250000D03*
D15*
X57450000Y-102250000D03*
D14*
X57450000Y-103750000D03*
%TD*%
%TO.C,REF\u002A\u002A*%
X182550000Y-27700000D03*
X182550000Y-26200000D03*
D15*
X177450000Y-26200000D03*
D14*
X177450000Y-27700000D03*
%TD*%
%TO.C,REF\u002A\u002A*%
X102550000Y-46700000D03*
X102550000Y-45200000D03*
D15*
X97450000Y-45200000D03*
D14*
X97450000Y-46700000D03*
%TD*%
%TO.C,REF\u002A\u002A*%
X122550000Y-27700000D03*
X122550000Y-26200000D03*
D15*
X117450000Y-26200000D03*
D14*
X117450000Y-27700000D03*
%TD*%
%TO.C,REF\u002A\u002A*%
X182550000Y-65700000D03*
X182550000Y-64200000D03*
D15*
X177450000Y-64200000D03*
D14*
X177450000Y-65700000D03*
%TD*%
%TO.C,REF\u002A\u002A*%
X142550000Y-84700000D03*
X142550000Y-83200000D03*
D15*
X137450000Y-83200000D03*
D14*
X137450000Y-84700000D03*
%TD*%
D16*
%TO.C,REF\u002A\u002A*%
X130776138Y-109905358D03*
X130515666Y-108428146D03*
D17*
X125493146Y-109313752D03*
D16*
X125753618Y-110790964D03*
%TD*%
D14*
%TO.C,REF\u002A\u002A*%
X122550000Y-65700000D03*
X122550000Y-64200000D03*
D15*
X117450000Y-64200000D03*
D14*
X117450000Y-65700000D03*
%TD*%
%TO.C,REF\u002A\u002A*%
X62550000Y-84750000D03*
X62550000Y-83250000D03*
D15*
X57450000Y-83250000D03*
D14*
X57450000Y-84750000D03*
%TD*%
%TO.C,REF\u002A\u002A*%
X142550000Y-46700000D03*
X142550000Y-45200000D03*
D15*
X137450000Y-45200000D03*
D14*
X137450000Y-46700000D03*
%TD*%
%TO.C,REF\u002A\u002A*%
X157049999Y-109699999D03*
X157049999Y-108199999D03*
D15*
X151949999Y-108199999D03*
D14*
X151949999Y-109699999D03*
%TD*%
%TO.C,REF\u002A\u002A*%
X82550000Y-84700000D03*
X82550000Y-83200000D03*
D15*
X77450000Y-83200000D03*
D14*
X77450000Y-84700000D03*
%TD*%
%TO.C,REF\u002A\u002A*%
X162550000Y-27750000D03*
X162550000Y-26250000D03*
D15*
X157450000Y-26250000D03*
D14*
X157450000Y-27750000D03*
%TD*%
%TO.C,REF\u002A\u002A*%
X102550000Y-65700000D03*
X102550000Y-64200000D03*
D15*
X97450000Y-64200000D03*
D14*
X97450000Y-65700000D03*
%TD*%
%TO.C,REF\u002A\u002A*%
X142550000Y-65700000D03*
X142550000Y-64200000D03*
D15*
X137450000Y-64200000D03*
D14*
X137450000Y-65700000D03*
%TD*%
%TO.C,REF\u002A\u002A*%
X102550000Y-27700000D03*
X102550000Y-26200000D03*
D15*
X97450000Y-26200000D03*
D14*
X97450000Y-27700000D03*
%TD*%
D18*
%TO.C,REF\u002A\u002A*%
X203879719Y-136404197D03*
X204843900Y-135255130D03*
D19*
X200937073Y-131976913D03*
D18*
X199972892Y-133125980D03*
%TD*%
D14*
%TO.C,REF\u002A\u002A*%
X162550000Y-65750000D03*
X162550000Y-64250000D03*
D15*
X157450000Y-64250000D03*
D14*
X157450000Y-65750000D03*
%TD*%
%TO.C,REF\u002A\u002A*%
X82550000Y-46700000D03*
X82550000Y-45200000D03*
D15*
X77450000Y-45200000D03*
D14*
X77450000Y-46700000D03*
%TD*%
D20*
%TO.C,REF\u002A\u002A*%
X182982285Y-119703936D03*
X183495315Y-118294397D03*
D21*
X178702883Y-116550094D03*
D20*
X178189853Y-117959633D03*
%TD*%
D22*
%TO.C,REF\u002A\u002A*%
X219660000Y-21490000D03*
X219660000Y-24030000D03*
X219660000Y-26570000D03*
X219660000Y-29110000D03*
X219660000Y-31650000D03*
X219660000Y-34190000D03*
X219660000Y-36730000D03*
X219660000Y-39270000D03*
X219660000Y-41810000D03*
X219660000Y-44350000D03*
X219660000Y-46890000D03*
X219660000Y-49430000D03*
X219660000Y-51970000D03*
X199340000Y-21490000D03*
X199340000Y-24030000D03*
X199340000Y-26570000D03*
X199340000Y-29110000D03*
X199340000Y-31650000D03*
X199340000Y-34190000D03*
X199340000Y-36730000D03*
X199340000Y-39270000D03*
X199340000Y-41810000D03*
X199340000Y-44350000D03*
X199340000Y-46890000D03*
X199340000Y-49430000D03*
X199340000Y-51970000D03*
%TD*%
D14*
%TO.C,REF\u002A\u002A*%
X82550000Y-27700000D03*
X82550000Y-26200000D03*
D15*
X77450000Y-26200000D03*
D14*
X77450000Y-27700000D03*
%TD*%
%TO.C,REF\u002A\u002A*%
X182550000Y-84700000D03*
X182550000Y-83200000D03*
D15*
X177450000Y-83200000D03*
D14*
X177450000Y-84700000D03*
%TD*%
%TO.C,REF\u002A\u002A*%
X62550000Y-65750000D03*
X62550000Y-64250000D03*
D15*
X57450000Y-64250000D03*
D14*
X57450000Y-65750000D03*
%TD*%
%TO.C,REF\u002A\u002A*%
X102550000Y-84700000D03*
X102550000Y-83200000D03*
D15*
X97450000Y-83200000D03*
D14*
X97450000Y-84700000D03*
%TD*%
%TO.C,REF\u002A\u002A*%
X102550000Y-103700000D03*
X102550000Y-102200000D03*
D15*
X97450000Y-102200000D03*
D14*
X97450000Y-103700000D03*
%TD*%
%TO.C,REF\u002A\u002A*%
X82550000Y-103700000D03*
X82550000Y-102200000D03*
D15*
X77450000Y-102200000D03*
D14*
X77450000Y-103700000D03*
%TD*%
%TO.C,REF\u002A\u002A*%
X162550000Y-46750000D03*
X162550000Y-45250000D03*
D15*
X157450000Y-45250000D03*
D14*
X157450000Y-46750000D03*
%TD*%
%TO.C,REF\u002A\u002A*%
X82550000Y-65700000D03*
X82550000Y-64200000D03*
D15*
X77450000Y-64200000D03*
D14*
X77450000Y-65700000D03*
%TD*%
M02*
