%TF.GenerationSoftware,KiCad,Pcbnew,7.0.7*%
%TF.CreationDate,2023-09-03T20:27:55-07:00*%
%TF.ProjectId,keyboard,6b657962-6f61-4726-942e-6b696361645f,rev?*%
%TF.SameCoordinates,Original*%
%TF.FileFunction,Profile,NP*%
%FSLAX46Y46*%
G04 Gerber Fmt 4.6, Leading zero omitted, Abs format (unit mm)*
G04 Created by KiCad (PCBNEW 7.0.7) date 2023-09-03 20:27:55*
%MOMM*%
%LPD*%
G01*
G04 APERTURE LIST*
%TA.AperFunction,Profile*%
%ADD10C,0.100000*%
%TD*%
%TA.AperFunction,Profile*%
%ADD11C,0.120000*%
%TD*%
G04 APERTURE END LIST*
D10*
X191729245Y-150316591D02*
G75*
G03*
X144145000Y-125729111I-46314245J-31293409D01*
G01*
X227000000Y-83185000D02*
X212725000Y-83185000D01*
X212725000Y-116205000D02*
X212725000Y-83185000D01*
X212725000Y-132080000D02*
X212725000Y-116205000D01*
X212725000Y-150495000D02*
X212725000Y-132080000D01*
X191729245Y-150316591D02*
X212725000Y-150495000D01*
X49000000Y-126000000D02*
X144145000Y-125729110D01*
X49000000Y-20000000D02*
X49000000Y-126000000D01*
X227000000Y-20000000D02*
X49000000Y-20000000D01*
X227000000Y-83185000D02*
X227000000Y-20000000D01*
D11*
%TO.C,REF\u002A\u002A*%
X158300000Y-82500000D02*
X161700000Y-82500000D01*
X158300000Y-85500000D02*
X158300000Y-82500000D01*
X161700000Y-82500000D02*
X161700000Y-85500000D01*
X161700000Y-85500000D02*
X158300000Y-85500000D01*
X78300000Y-82450000D02*
X81700000Y-82450000D01*
X78300000Y-85450000D02*
X78300000Y-82450000D01*
X81700000Y-82450000D02*
X81700000Y-85450000D01*
X81700000Y-85450000D02*
X78300000Y-85450000D01*
X158300000Y-44500000D02*
X161700000Y-44500000D01*
X158300000Y-47500000D02*
X158300000Y-44500000D01*
X161700000Y-44500000D02*
X161700000Y-47500000D01*
X161700000Y-47500000D02*
X158300000Y-47500000D01*
X98300000Y-25450000D02*
X101700000Y-25450000D01*
X98300000Y-28450000D02*
X98300000Y-25450000D01*
X101700000Y-25450000D02*
X101700000Y-28450000D01*
X101700000Y-28450000D02*
X98300000Y-28450000D01*
X178300000Y-44450000D02*
X181700000Y-44450000D01*
X178300000Y-47450000D02*
X178300000Y-44450000D01*
X181700000Y-44450000D02*
X181700000Y-47450000D01*
X181700000Y-47450000D02*
X178300000Y-47450000D01*
X152799999Y-107449999D02*
X156199999Y-107449999D01*
X152799999Y-110449999D02*
X152799999Y-107449999D01*
X156199999Y-107449999D02*
X156199999Y-110449999D01*
X156199999Y-110449999D02*
X152799999Y-110449999D01*
X178300000Y-25450000D02*
X181700000Y-25450000D01*
X178300000Y-28450000D02*
X178300000Y-25450000D01*
X181700000Y-25450000D02*
X181700000Y-28450000D01*
X181700000Y-28450000D02*
X178300000Y-28450000D01*
X138300000Y-44450000D02*
X141700000Y-44450000D01*
X138300000Y-47450000D02*
X138300000Y-44450000D01*
X141700000Y-44450000D02*
X141700000Y-47450000D01*
X141700000Y-47450000D02*
X138300000Y-47450000D01*
X179758137Y-116136042D02*
X182953092Y-117298910D01*
X178732076Y-118955120D02*
X179758137Y-116136042D01*
X182953092Y-117298910D02*
X181927031Y-120117988D01*
X181927031Y-120117988D02*
X178732076Y-118955120D01*
X158300000Y-25500000D02*
X161700000Y-25500000D01*
X158300000Y-28500000D02*
X158300000Y-25500000D01*
X161700000Y-25500000D02*
X161700000Y-28500000D01*
X161700000Y-28500000D02*
X158300000Y-28500000D01*
X58300000Y-101500000D02*
X61700000Y-101500000D01*
X58300000Y-104500000D02*
X58300000Y-101500000D01*
X61700000Y-101500000D02*
X61700000Y-104500000D01*
X61700000Y-104500000D02*
X58300000Y-104500000D01*
X118300000Y-82450000D02*
X121700000Y-82450000D01*
X118300000Y-85450000D02*
X118300000Y-82450000D01*
X121700000Y-82450000D02*
X121700000Y-85450000D01*
X121700000Y-85450000D02*
X118300000Y-85450000D01*
X138300000Y-25450000D02*
X141700000Y-25450000D01*
X138300000Y-28450000D02*
X138300000Y-25450000D01*
X141700000Y-25450000D02*
X141700000Y-28450000D01*
X141700000Y-28450000D02*
X138300000Y-28450000D01*
X78300000Y-101450000D02*
X81700000Y-101450000D01*
X78300000Y-104450000D02*
X78300000Y-101450000D01*
X81700000Y-101450000D02*
X81700000Y-104450000D01*
X81700000Y-104450000D02*
X78300000Y-104450000D01*
X78300000Y-44450000D02*
X81700000Y-44450000D01*
X78300000Y-47450000D02*
X78300000Y-44450000D01*
X81700000Y-44450000D02*
X81700000Y-47450000D01*
X81700000Y-47450000D02*
X78300000Y-47450000D01*
X98300000Y-101450000D02*
X101700000Y-101450000D01*
X98300000Y-104450000D02*
X98300000Y-101450000D01*
X101700000Y-101450000D02*
X101700000Y-104450000D01*
X101700000Y-104450000D02*
X98300000Y-104450000D01*
X202070302Y-131948749D02*
X204674853Y-134134227D01*
X200141939Y-134246883D02*
X202070302Y-131948749D01*
X204674853Y-134134227D02*
X202746490Y-136432361D01*
X202746490Y-136432361D02*
X200141939Y-134246883D01*
X58300000Y-82500000D02*
X61700000Y-82500000D01*
X58300000Y-85500000D02*
X58300000Y-82500000D01*
X61700000Y-82500000D02*
X61700000Y-85500000D01*
X61700000Y-85500000D02*
X58300000Y-85500000D01*
X138300000Y-82450000D02*
X141700000Y-82450000D01*
X138300000Y-85450000D02*
X138300000Y-82450000D01*
X141700000Y-82450000D02*
X141700000Y-85450000D01*
X141700000Y-85450000D02*
X138300000Y-85450000D01*
X78300000Y-25450000D02*
X81700000Y-25450000D01*
X78300000Y-28450000D02*
X78300000Y-25450000D01*
X81700000Y-25450000D02*
X81700000Y-28450000D01*
X81700000Y-28450000D02*
X78300000Y-28450000D01*
X78300000Y-63450000D02*
X81700000Y-63450000D01*
X78300000Y-66450000D02*
X78300000Y-63450000D01*
X81700000Y-63450000D02*
X81700000Y-66450000D01*
X81700000Y-66450000D02*
X78300000Y-66450000D01*
X98300000Y-44450000D02*
X101700000Y-44450000D01*
X98300000Y-47450000D02*
X98300000Y-44450000D01*
X101700000Y-44450000D02*
X101700000Y-47450000D01*
X101700000Y-47450000D02*
X98300000Y-47450000D01*
X58300000Y-25500000D02*
X61700000Y-25500000D01*
X58300000Y-28500000D02*
X58300000Y-25500000D01*
X61700000Y-25500000D02*
X61700000Y-28500000D01*
X61700000Y-28500000D02*
X58300000Y-28500000D01*
X58300000Y-44500000D02*
X61700000Y-44500000D01*
X58300000Y-47500000D02*
X58300000Y-44500000D01*
X61700000Y-44500000D02*
X61700000Y-47500000D01*
X61700000Y-47500000D02*
X58300000Y-47500000D01*
X98300000Y-63450000D02*
X101700000Y-63450000D01*
X98300000Y-66450000D02*
X98300000Y-63450000D01*
X101700000Y-63450000D02*
X101700000Y-66450000D01*
X101700000Y-66450000D02*
X98300000Y-66450000D01*
X178300000Y-82450000D02*
X181700000Y-82450000D01*
X178300000Y-85450000D02*
X178300000Y-82450000D01*
X181700000Y-82450000D02*
X181700000Y-85450000D01*
X181700000Y-85450000D02*
X178300000Y-85450000D01*
X138300000Y-63450000D02*
X141700000Y-63450000D01*
X138300000Y-66450000D02*
X138300000Y-63450000D01*
X141700000Y-63450000D02*
X141700000Y-66450000D01*
X141700000Y-66450000D02*
X138300000Y-66450000D01*
X118300000Y-25450000D02*
X121700000Y-25450000D01*
X118300000Y-28450000D02*
X118300000Y-25450000D01*
X121700000Y-25450000D02*
X121700000Y-28450000D01*
X121700000Y-28450000D02*
X118300000Y-28450000D01*
X58300000Y-63500000D02*
X61700000Y-63500000D01*
X58300000Y-66500000D02*
X58300000Y-63500000D01*
X61700000Y-63500000D02*
X61700000Y-66500000D01*
X61700000Y-66500000D02*
X58300000Y-66500000D01*
X178300000Y-63450000D02*
X181700000Y-63450000D01*
X178300000Y-66450000D02*
X178300000Y-63450000D01*
X181700000Y-63450000D02*
X181700000Y-66450000D01*
X181700000Y-66450000D02*
X178300000Y-66450000D01*
X158300000Y-63500000D02*
X161700000Y-63500000D01*
X158300000Y-66500000D02*
X158300000Y-63500000D01*
X161700000Y-63500000D02*
X161700000Y-66500000D01*
X161700000Y-66500000D02*
X158300000Y-66500000D01*
X126199997Y-108427545D02*
X129548343Y-107837141D01*
X126720941Y-111381969D02*
X126199997Y-108427545D01*
X129548343Y-107837141D02*
X130069287Y-110791565D01*
X130069287Y-110791565D02*
X126720941Y-111381969D01*
X98300000Y-82450000D02*
X101700000Y-82450000D01*
X98300000Y-85450000D02*
X98300000Y-82450000D01*
X101700000Y-82450000D02*
X101700000Y-85450000D01*
X101700000Y-85450000D02*
X98300000Y-85450000D01*
X118300000Y-63450000D02*
X121700000Y-63450000D01*
X118300000Y-66450000D02*
X118300000Y-63450000D01*
X121700000Y-63450000D02*
X121700000Y-66450000D01*
X121700000Y-66450000D02*
X118300000Y-66450000D01*
X118300000Y-44450000D02*
X121700000Y-44450000D01*
X118300000Y-47450000D02*
X118300000Y-44450000D01*
X121700000Y-44450000D02*
X121700000Y-47450000D01*
X121700000Y-47450000D02*
X118300000Y-47450000D01*
X61700000Y-28500000D02*
X61700000Y-25500000D01*
X61700000Y-25500000D02*
X58300000Y-25500000D01*
X58300000Y-28500000D02*
X61700000Y-28500000D01*
X58300000Y-25500000D02*
X58300000Y-28500000D01*
X121700000Y-85450000D02*
X121700000Y-82450000D01*
X121700000Y-82450000D02*
X118300000Y-82450000D01*
X118300000Y-85450000D02*
X121700000Y-85450000D01*
X118300000Y-82450000D02*
X118300000Y-85450000D01*
X121700000Y-47450000D02*
X121700000Y-44450000D01*
X121700000Y-44450000D02*
X118300000Y-44450000D01*
X118300000Y-47450000D02*
X121700000Y-47450000D01*
X118300000Y-44450000D02*
X118300000Y-47450000D01*
X61700000Y-47500000D02*
X61700000Y-44500000D01*
X61700000Y-44500000D02*
X58300000Y-44500000D01*
X58300000Y-47500000D02*
X61700000Y-47500000D01*
X58300000Y-44500000D02*
X58300000Y-47500000D01*
X161700000Y-85500000D02*
X161700000Y-82500000D01*
X161700000Y-82500000D02*
X158300000Y-82500000D01*
X158300000Y-85500000D02*
X161700000Y-85500000D01*
X158300000Y-82500000D02*
X158300000Y-85500000D01*
X141700000Y-28450000D02*
X141700000Y-25450000D01*
X141700000Y-25450000D02*
X138300000Y-25450000D01*
X138300000Y-28450000D02*
X141700000Y-28450000D01*
X138300000Y-25450000D02*
X138300000Y-28450000D01*
X181700000Y-47450000D02*
X181700000Y-44450000D01*
X181700000Y-44450000D02*
X178300000Y-44450000D01*
X178300000Y-47450000D02*
X181700000Y-47450000D01*
X178300000Y-44450000D02*
X178300000Y-47450000D01*
X61700000Y-104500000D02*
X61700000Y-101500000D01*
X61700000Y-101500000D02*
X58300000Y-101500000D01*
X58300000Y-104500000D02*
X61700000Y-104500000D01*
X58300000Y-101500000D02*
X58300000Y-104500000D01*
X181700000Y-28450000D02*
X181700000Y-25450000D01*
X181700000Y-25450000D02*
X178300000Y-25450000D01*
X178300000Y-28450000D02*
X181700000Y-28450000D01*
X178300000Y-25450000D02*
X178300000Y-28450000D01*
X101700000Y-47450000D02*
X101700000Y-44450000D01*
X101700000Y-44450000D02*
X98300000Y-44450000D01*
X98300000Y-47450000D02*
X101700000Y-47450000D01*
X98300000Y-44450000D02*
X98300000Y-47450000D01*
X121700000Y-28450000D02*
X121700000Y-25450000D01*
X121700000Y-25450000D02*
X118300000Y-25450000D01*
X118300000Y-28450000D02*
X121700000Y-28450000D01*
X118300000Y-25450000D02*
X118300000Y-28450000D01*
X181700000Y-66450000D02*
X181700000Y-63450000D01*
X181700000Y-63450000D02*
X178300000Y-63450000D01*
X178300000Y-66450000D02*
X181700000Y-66450000D01*
X178300000Y-63450000D02*
X178300000Y-66450000D01*
X141700000Y-85450000D02*
X141700000Y-82450000D01*
X141700000Y-82450000D02*
X138300000Y-82450000D01*
X138300000Y-85450000D02*
X141700000Y-85450000D01*
X138300000Y-82450000D02*
X138300000Y-85450000D01*
X130069287Y-110791565D02*
X129548343Y-107837141D01*
X129548343Y-107837141D02*
X126199997Y-108427545D01*
X126720941Y-111381969D02*
X130069287Y-110791565D01*
X126199997Y-108427545D02*
X126720941Y-111381969D01*
X121700000Y-66450000D02*
X121700000Y-63450000D01*
X121700000Y-63450000D02*
X118300000Y-63450000D01*
X118300000Y-66450000D02*
X121700000Y-66450000D01*
X118300000Y-63450000D02*
X118300000Y-66450000D01*
X61700000Y-85500000D02*
X61700000Y-82500000D01*
X61700000Y-82500000D02*
X58300000Y-82500000D01*
X58300000Y-85500000D02*
X61700000Y-85500000D01*
X58300000Y-82500000D02*
X58300000Y-85500000D01*
X141700000Y-47450000D02*
X141700000Y-44450000D01*
X141700000Y-44450000D02*
X138300000Y-44450000D01*
X138300000Y-47450000D02*
X141700000Y-47450000D01*
X138300000Y-44450000D02*
X138300000Y-47450000D01*
X156199999Y-110449999D02*
X156199999Y-107449999D01*
X156199999Y-107449999D02*
X152799999Y-107449999D01*
X152799999Y-110449999D02*
X156199999Y-110449999D01*
X152799999Y-107449999D02*
X152799999Y-110449999D01*
X81700000Y-85450000D02*
X81700000Y-82450000D01*
X81700000Y-82450000D02*
X78300000Y-82450000D01*
X78300000Y-85450000D02*
X81700000Y-85450000D01*
X78300000Y-82450000D02*
X78300000Y-85450000D01*
X161700000Y-28500000D02*
X161700000Y-25500000D01*
X161700000Y-25500000D02*
X158300000Y-25500000D01*
X158300000Y-28500000D02*
X161700000Y-28500000D01*
X158300000Y-25500000D02*
X158300000Y-28500000D01*
X101700000Y-66450000D02*
X101700000Y-63450000D01*
X101700000Y-63450000D02*
X98300000Y-63450000D01*
X98300000Y-66450000D02*
X101700000Y-66450000D01*
X98300000Y-63450000D02*
X98300000Y-66450000D01*
X141700000Y-66450000D02*
X141700000Y-63450000D01*
X141700000Y-63450000D02*
X138300000Y-63450000D01*
X138300000Y-66450000D02*
X141700000Y-66450000D01*
X138300000Y-63450000D02*
X138300000Y-66450000D01*
X101700000Y-28450000D02*
X101700000Y-25450000D01*
X101700000Y-25450000D02*
X98300000Y-25450000D01*
X98300000Y-28450000D02*
X101700000Y-28450000D01*
X98300000Y-25450000D02*
X98300000Y-28450000D01*
X202746490Y-136432361D02*
X204674853Y-134134227D01*
X204674853Y-134134227D02*
X202070302Y-131948749D01*
X200141939Y-134246883D02*
X202746490Y-136432361D01*
X202070302Y-131948749D02*
X200141939Y-134246883D01*
X161700000Y-66500000D02*
X161700000Y-63500000D01*
X161700000Y-63500000D02*
X158300000Y-63500000D01*
X158300000Y-66500000D02*
X161700000Y-66500000D01*
X158300000Y-63500000D02*
X158300000Y-66500000D01*
X81700000Y-47450000D02*
X81700000Y-44450000D01*
X81700000Y-44450000D02*
X78300000Y-44450000D01*
X78300000Y-47450000D02*
X81700000Y-47450000D01*
X78300000Y-44450000D02*
X78300000Y-47450000D01*
X181927031Y-120117988D02*
X182953092Y-117298910D01*
X182953092Y-117298910D02*
X179758137Y-116136042D01*
X178732076Y-118955120D02*
X181927031Y-120117988D01*
X179758137Y-116136042D02*
X178732076Y-118955120D01*
X81700000Y-28450000D02*
X81700000Y-25450000D01*
X81700000Y-25450000D02*
X78300000Y-25450000D01*
X78300000Y-28450000D02*
X81700000Y-28450000D01*
X78300000Y-25450000D02*
X78300000Y-28450000D01*
X181700000Y-85450000D02*
X181700000Y-82450000D01*
X181700000Y-82450000D02*
X178300000Y-82450000D01*
X178300000Y-85450000D02*
X181700000Y-85450000D01*
X178300000Y-82450000D02*
X178300000Y-85450000D01*
X61700000Y-66500000D02*
X61700000Y-63500000D01*
X61700000Y-63500000D02*
X58300000Y-63500000D01*
X58300000Y-66500000D02*
X61700000Y-66500000D01*
X58300000Y-63500000D02*
X58300000Y-66500000D01*
X101700000Y-85450000D02*
X101700000Y-82450000D01*
X101700000Y-82450000D02*
X98300000Y-82450000D01*
X98300000Y-85450000D02*
X101700000Y-85450000D01*
X98300000Y-82450000D02*
X98300000Y-85450000D01*
X101700000Y-104450000D02*
X101700000Y-101450000D01*
X101700000Y-101450000D02*
X98300000Y-101450000D01*
X98300000Y-104450000D02*
X101700000Y-104450000D01*
X98300000Y-101450000D02*
X98300000Y-104450000D01*
X81700000Y-104450000D02*
X81700000Y-101450000D01*
X81700000Y-101450000D02*
X78300000Y-101450000D01*
X78300000Y-104450000D02*
X81700000Y-104450000D01*
X78300000Y-101450000D02*
X78300000Y-104450000D01*
X161700000Y-47500000D02*
X161700000Y-44500000D01*
X161700000Y-44500000D02*
X158300000Y-44500000D01*
X158300000Y-47500000D02*
X161700000Y-47500000D01*
X158300000Y-44500000D02*
X158300000Y-47500000D01*
X81700000Y-66450000D02*
X81700000Y-63450000D01*
X81700000Y-63450000D02*
X78300000Y-63450000D01*
X78300000Y-66450000D02*
X81700000Y-66450000D01*
X78300000Y-63450000D02*
X78300000Y-66450000D01*
%TD*%
M02*
