M48
; DRILL file {KiCad 7.0.7} date Sun 03 Sep 2023 08:27:51 PM MST
; FORMAT={-:-/ absolute / inch / decimal}
; #@! TF.CreationDate,2023-09-03T20:27:51-07:00
; #@! TF.GenerationSoftware,Kicad,Pcbnew,7.0.7
; #@! TF.FileFunction,Plated,1,2,PTH
FMAT,2
INCH
; #@! TA.AperFunction,Plated,PTH,ViaDrill
T1C0.0157
; #@! TA.AperFunction,Plated,PTH,ComponentDrill
T2C0.0276
; #@! TA.AperFunction,Plated,PTH,ComponentDrill
T3C0.0315
%
G90
G05
T1
X2.0472Y-1.4961
X2.0472Y-2.2441
X2.0472Y-2.9921
X2.0472Y-3.7402
X2.0472Y-4.4882
X2.2047Y-1.0236
X2.2047Y-1.7717
X2.2047Y-2.5197
X2.2047Y-3.2677
X2.2047Y-4.0157
X2.2441Y-0.9843
X2.2441Y-1.7323
X2.2441Y-2.4803
X2.2441Y-3.2283
X2.2441Y-3.9764
X2.4803Y-1.1417
X2.4803Y-1.8898
X2.4803Y-2.6378
X2.4803Y-3.3858
X2.4803Y-4.1339
X2.5197Y-1.063
X2.5197Y-1.811
X2.5197Y-2.5591
X2.5197Y-3.3071
X2.5197Y-4.0551
X2.6772Y-1.4961
X2.6772Y-2.2441
X2.6772Y-2.9921
X2.6772Y-3.7402
X2.6772Y-4.4882
X2.8346Y-1.4941
X2.8346Y-2.2421
X2.8346Y-2.9902
X2.8346Y-3.7382
X2.8346Y-4.4862
X2.9921Y-1.0236
X2.9921Y-1.7717
X2.9921Y-2.5197
X2.9921Y-3.2677
X2.9921Y-4.0157
X3.0315Y-0.9843
X3.0315Y-1.7323
X3.0315Y-2.4803
X3.0315Y-3.2283
X3.0315Y-3.9764
X3.2677Y-1.1417
X3.2677Y-1.8898
X3.2677Y-2.6378
X3.2677Y-3.3858
X3.2677Y-4.1339
X3.3071Y-1.063
X3.3071Y-1.811
X3.3071Y-2.5591
X3.3071Y-3.3071
X3.3071Y-4.0551
X3.4646Y-1.4941
X3.4646Y-2.2421
X3.4646Y-2.9902
X3.4646Y-3.7382
X3.4646Y-4.4862
X3.622Y-1.4941
X3.622Y-2.2421
X3.622Y-2.9902
X3.622Y-3.7382
X3.622Y-4.4862
X3.7795Y-1.0236
X3.7795Y-1.7717
X3.7795Y-2.5197
X3.7795Y-3.2677
X3.7795Y-4.0157
X3.8189Y-0.9843
X3.8189Y-1.7323
X3.8189Y-2.4803
X3.8189Y-3.2283
X3.8189Y-3.9764
X4.0551Y-1.1417
X4.0551Y-1.8898
X4.0551Y-2.6378
X4.0551Y-3.3858
X4.0551Y-4.1339
X4.0945Y-1.063
X4.0945Y-1.811
X4.0945Y-2.5591
X4.0945Y-3.3071
X4.0945Y-4.0551
X4.252Y-1.4941
X4.252Y-2.2421
X4.252Y-2.9902
X4.252Y-3.7382
X4.252Y-4.4862
X4.4094Y-1.4941
X4.4094Y-2.2421
X4.4094Y-2.9902
X4.4094Y-3.7382
X4.5669Y-1.0236
X4.5669Y-1.7717
X4.5669Y-2.5197
X4.5669Y-3.2677
X4.6063Y-0.9843
X4.6063Y-1.7323
X4.6063Y-2.4803
X4.6063Y-3.2283
X4.8097Y-4.7965
X4.8425Y-1.1417
X4.8425Y-1.8898
X4.8425Y-2.6378
X4.8425Y-3.3858
X4.8819Y-1.063
X4.8819Y-1.811
X4.8819Y-2.5591
X4.8819Y-3.3071
X4.8831Y-4.3058
X4.915Y-4.2602
X5.0394Y-1.4941
X5.0394Y-2.2421
X5.0394Y-2.9902
X5.0394Y-3.7382
X5.175Y-4.3743
X5.1969Y-1.4941
X5.1969Y-2.2421
X5.1969Y-2.9902
X5.1969Y-3.7382
X5.2001Y-4.2899
X5.3543Y-1.0236
X5.3543Y-1.7717
X5.3543Y-2.5197
X5.3543Y-3.2677
X5.3937Y-0.9843
X5.3937Y-1.7323
X5.3937Y-2.4803
X5.3937Y-3.2283
X5.43Y-4.6871
X5.6299Y-1.1417
X5.6299Y-1.8898
X5.6299Y-2.6378
X5.6299Y-3.3858
X5.6693Y-1.063
X5.6693Y-1.811
X5.6693Y-2.5591
X5.6693Y-3.3071
X5.7677Y-4.7224
X5.8268Y-1.4941
X5.8268Y-2.2421
X5.8268Y-2.9902
X5.8268Y-3.7382
X5.9252Y-4.252
X5.9646Y-4.2126
X5.9843Y-1.4961
X5.9843Y-2.2441
X5.9843Y-2.9921
X5.9843Y-3.7402
X6.1417Y-1.0236
X6.1417Y-1.7717
X6.1417Y-2.5197
X6.1417Y-3.2677
X6.1811Y-0.9843
X6.1811Y-1.7323
X6.1811Y-2.4803
X6.1811Y-3.2283
X6.2008Y-4.3701
X6.2402Y-4.2913
X6.3976Y-4.7224
X6.4173Y-1.1417
X6.4173Y-1.8898
X6.4173Y-2.6378
X6.4173Y-3.3858
X6.4567Y-1.063
X6.4567Y-1.811
X6.4567Y-2.5591
X6.4567Y-3.3071
X6.6142Y-1.4961
X6.6142Y-2.2441
X6.6142Y-2.9921
X6.6142Y-3.7402
X6.6757Y-4.9499
X6.7717Y-1.4941
X6.7717Y-2.2421
X6.7717Y-2.9902
X6.7717Y-3.7382
X6.9291Y-1.0236
X6.9291Y-1.7717
X6.9291Y-2.5197
X6.9291Y-3.2677
X6.9685Y-0.9843
X6.9685Y-1.7323
X6.9685Y-2.4803
X6.9685Y-3.2283
X6.9846Y-4.5617
X7.0351Y-4.5381
X7.2032Y-4.7669
X7.2047Y-1.1417
X7.2047Y-1.8898
X7.2047Y-2.6378
X7.2047Y-3.3858
X7.2441Y-1.063
X7.2441Y-1.811
X7.2441Y-2.5591
X7.2441Y-3.3071
X7.2671Y-4.7064
X7.2676Y-5.1653
X7.4016Y-1.4941
X7.4016Y-2.2421
X7.4016Y-2.9902
X7.4016Y-3.7382
X7.4409Y-1.5748
X7.4409Y-1.6142
X7.4409Y-2.3228
X7.4409Y-2.3622
X7.4409Y-3.0709
X7.4409Y-3.1102
X7.4492Y-5.4124
X7.4803Y-1.6535
X7.4803Y-1.7717
X7.4803Y-2.4016
X7.4803Y-2.5197
X7.4803Y-3.1496
X7.4803Y-3.2677
X7.5197Y-1.0236
X7.5197Y-1.1417
X7.5197Y-1.6535
X7.5197Y-1.8898
X7.5197Y-2.4016
X7.5197Y-2.6378
X7.5197Y-3.1496
X7.5197Y-3.3858
X7.5591Y-0.9449
X7.5591Y-1.6535
X7.5591Y-1.7323
X7.5591Y-2.4016
X7.5591Y-2.4803
X7.5591Y-3.1496
X7.5591Y-3.2283
X7.5984Y-1.0236
X7.6378Y-1.1811
X7.7559Y-1.3189
X7.7559Y-4.9213
X7.7953Y-4.7638
X7.8722Y-5.1532
X7.925Y-1.6142
X7.925Y-1.7126
X7.925Y-1.811
X7.925Y-1.9094
X7.925Y-2.0079
X7.9277Y-5.1484
X7.9317Y-5.8173
X7.9528Y-0.9449
X7.9528Y-2.185
X7.9921Y-1.2402
X7.9921Y-2.1654
X8.0074Y-5.4208
X8.0315Y-1.6142
X8.0315Y-1.7126
X8.0315Y-1.811
X8.0315Y-1.9094
X8.0315Y-2.0079
X8.0315Y-2.0866
X8.0709Y-1.3583
X8.0709Y-1.4567
X8.0709Y-1.5551
X8.0709Y-1.6535
X8.0709Y-1.752
X8.0709Y-1.8504
X8.0709Y-1.9882
X8.0882Y-5.3858
X8.1Y-5.5
X8.2Y-5.3
X8.248Y-5.3346
X8.2677Y-2.185
X8.3071Y-2.1654
X8.3465Y-2.185
X8.3858Y-2.1654
X8.4252Y-2.185
X8.4646Y-2.1654
X8.4843Y-0.9055
X8.4843Y-0.9843
X8.5039Y-1.6535
X8.5039Y-1.7717
X8.5039Y-1.8701
X8.5039Y-1.9685
X8.5039Y-2.0669
X8.5039Y-2.185
T3
X2.0079Y-0.9992
X2.0079Y-1.2992
X2.0079Y-1.7472
X2.0079Y-2.0472
X2.0079Y-2.4953
X2.0079Y-2.7953
X2.0079Y-3.2433
X2.0079Y-3.5433
X2.0079Y-3.9913
X2.0079Y-4.2913
X2.7953Y-0.9972
X2.7953Y-1.2972
X2.7953Y-1.7453
X2.7953Y-2.0453
X2.7953Y-2.4933
X2.7953Y-2.7933
X2.7953Y-3.2413
X2.7953Y-3.5413
X2.7953Y-3.9894
X2.7953Y-4.2894
X3.5827Y-0.9972
X3.5827Y-1.2972
X3.5827Y-1.7453
X3.5827Y-2.0453
X3.5827Y-2.4933
X3.5827Y-2.7933
X3.5827Y-3.2413
X3.5827Y-3.5413
X3.5827Y-3.9894
X3.5827Y-4.2894
X4.3701Y-0.9972
X4.3701Y-1.2972
X4.3701Y-1.7453
X4.3701Y-2.0453
X4.3701Y-2.4933
X4.3701Y-2.7933
X4.3701Y-3.2413
X4.3701Y-3.5413
X4.6846Y-4.3141
X4.7367Y-4.6095
X5.1575Y-0.9972
X5.1575Y-1.2972
X5.1575Y-1.7453
X5.1575Y-2.0453
X5.1575Y-2.4933
X5.1575Y-2.7933
X5.1575Y-3.2413
X5.1575Y-3.5413
X5.7283Y-4.2256
X5.7283Y-4.5256
X5.9449Y-0.9992
X5.9449Y-1.2992
X5.9449Y-1.7472
X5.9449Y-2.0472
X5.9449Y-2.4953
X5.9449Y-2.7953
X5.9449Y-3.2433
X5.9449Y-3.5433
X6.706Y-4.7515
X6.7323Y-0.9972
X6.7323Y-1.2972
X6.7323Y-1.7453
X6.7323Y-2.0453
X6.7323Y-2.4933
X6.7323Y-2.7933
X6.7323Y-3.2413
X6.7323Y-3.5413
X6.8086Y-4.4695
X7.5456Y-5.2363
X7.7384Y-5.0065
T2
G00X8.624Y-2.8
M15
G01X8.6555Y-2.8
M16
G05
G00X8.6557Y-2.8
M15
G01X8.6242Y-2.8
M16
G05
G00X8.6988Y-2.989
M15
G01X8.7303Y-2.989
M16
G05
G00X8.7305Y-2.611
M15
G01X8.699Y-2.611
M16
G05
G00X8.7402Y-2.8
M15
G01X8.7598Y-2.8
M16
G05
G00X8.76Y-2.8
M15
G01X8.7404Y-2.8
M16
G05
G00X8.815Y-3.0205
M15
G01X8.8346Y-3.0205
M16
G05
G00X8.8348Y-2.5795
M15
G01X8.8152Y-2.5795
M16
G05
T3
G00X8.2303Y-2.8906
M15
G01X8.2303Y-2.8433
M16
G05
G00X8.2305Y-2.7094
M15
G01X8.2305Y-2.7567
M16
G05
G00X8.3209Y-2.989
M15
G01X8.3681Y-2.989
M16
G05
G00X8.3683Y-2.611
M15
G01X8.3211Y-2.611
M16
G05
T0
M30
