%TF.GenerationSoftware,KiCad,Pcbnew,7.0.7*%
%TF.CreationDate,2023-09-03T20:27:55-07:00*%
%TF.ProjectId,keyboard,6b657962-6f61-4726-942e-6b696361645f,rev?*%
%TF.SameCoordinates,Original*%
%TF.FileFunction,Copper,L2,Bot*%
%TF.FilePolarity,Positive*%
%FSLAX46Y46*%
G04 Gerber Fmt 4.6, Leading zero omitted, Abs format (unit mm)*
G04 Created by KiCad (PCBNEW 7.0.7) date 2023-09-03 20:27:55*
%MOMM*%
%LPD*%
G01*
G04 APERTURE LIST*
G04 Aperture macros list*
%AMRoundRect*
0 Rectangle with rounded corners*
0 $1 Rounding radius*
0 $2 $3 $4 $5 $6 $7 $8 $9 X,Y pos of 4 corners*
0 Add a 4 corners polygon primitive as box body*
4,1,4,$2,$3,$4,$5,$6,$7,$8,$9,$2,$3,0*
0 Add four circle primitives for the rounded corners*
1,1,$1+$1,$2,$3*
1,1,$1+$1,$4,$5*
1,1,$1+$1,$6,$7*
1,1,$1+$1,$8,$9*
0 Add four rect primitives between the rounded corners*
20,1,$1+$1,$2,$3,$4,$5,0*
20,1,$1+$1,$4,$5,$6,$7,0*
20,1,$1+$1,$6,$7,$8,$9,0*
20,1,$1+$1,$8,$9,$2,$3,0*%
%AMHorizOval*
0 Thick line with rounded ends*
0 $1 width*
0 $2 $3 position (X,Y) of the first rounded end (center of the circle)*
0 $4 $5 position (X,Y) of the second rounded end (center of the circle)*
0 Add line between two ends*
20,1,$1,$2,$3,$4,$5,0*
0 Add two circle primitives to create the rounded ends*
1,1,$1,$2,$3*
1,1,$1,$4,$5*%
%AMRotRect*
0 Rectangle, with rotation*
0 The origin of the aperture is its center*
0 $1 length*
0 $2 width*
0 $3 Rotation angle, in degrees counterclockwise*
0 Add horizontal line*
21,1,$1,$2,0,0,$3*%
G04 Aperture macros list end*
%TA.AperFunction,ComponentPad*%
%ADD10O,2.416000X1.208000*%
%TD*%
%TA.AperFunction,ComponentPad*%
%ADD11O,2.616000X1.308000*%
%TD*%
%TA.AperFunction,ComponentPad*%
%ADD12O,1.308000X2.616000*%
%TD*%
%TA.AperFunction,SMDPad,CuDef*%
%ADD13R,2.600000X2.600000*%
%TD*%
%TA.AperFunction,ComponentPad*%
%ADD14R,1.600000X1.600000*%
%TD*%
%TA.AperFunction,ComponentPad*%
%ADD15O,1.600000X1.600000*%
%TD*%
%TA.AperFunction,SMDPad,CuDef*%
%ADD16RotRect,2.600000X2.600000X340.000000*%
%TD*%
%TA.AperFunction,SMDPad,CuDef*%
%ADD17RotRect,2.600000X2.600000X10.000000*%
%TD*%
%TA.AperFunction,ComponentPad*%
%ADD18RotRect,1.600000X1.600000X230.000000*%
%TD*%
%TA.AperFunction,ComponentPad*%
%ADD19HorizOval,1.600000X0.000000X0.000000X0.000000X0.000000X0*%
%TD*%
%TA.AperFunction,SMDPad,CuDef*%
%ADD20RotRect,2.600000X2.600000X320.000000*%
%TD*%
%TA.AperFunction,ComponentPad*%
%ADD21RotRect,1.600000X1.600000X250.000000*%
%TD*%
%TA.AperFunction,ComponentPad*%
%ADD22HorizOval,1.600000X0.000000X0.000000X0.000000X0.000000X0*%
%TD*%
%TA.AperFunction,ComponentPad*%
%ADD23RotRect,1.600000X1.600000X280.000000*%
%TD*%
%TA.AperFunction,ComponentPad*%
%ADD24HorizOval,1.600000X0.000000X0.000000X0.000000X0.000000X0*%
%TD*%
%TA.AperFunction,SMDPad,CuDef*%
%ADD25R,1.700000X0.820000*%
%TD*%
%TA.AperFunction,SMDPad,CuDef*%
%ADD26RoundRect,0.205000X0.645000X0.205000X-0.645000X0.205000X-0.645000X-0.205000X0.645000X-0.205000X0*%
%TD*%
%TA.AperFunction,SMDPad,CuDef*%
%ADD27RotRect,1.700000X0.820000X190.000000*%
%TD*%
%TA.AperFunction,SMDPad,CuDef*%
%ADD28RoundRect,0.205000X0.599603X0.313889X-0.670799X0.089883X-0.599603X-0.313889X0.670799X-0.089883X0*%
%TD*%
%TA.AperFunction,SMDPad,CuDef*%
%ADD29RotRect,1.700000X0.820000X140.000000*%
%TD*%
%TA.AperFunction,SMDPad,CuDef*%
%ADD30RoundRect,0.205000X0.625870X-0.257559X-0.362327X0.571637X-0.625870X0.257559X0.362327X-0.571637X0*%
%TD*%
%TA.AperFunction,SMDPad,CuDef*%
%ADD31RotRect,1.700000X0.820000X160.000000*%
%TD*%
%TA.AperFunction,SMDPad,CuDef*%
%ADD32RoundRect,0.205000X0.676216X-0.027966X-0.535988X0.413240X-0.676216X0.027966X0.535988X-0.413240X0*%
%TD*%
%TA.AperFunction,SMDPad,CuDef*%
%ADD33R,2.610000X1.400000*%
%TD*%
%TA.AperFunction,ViaPad*%
%ADD34C,0.800000*%
%TD*%
%TA.AperFunction,Conductor*%
%ADD35C,0.250000*%
%TD*%
G04 APERTURE END LIST*
D10*
%TO.P,REF\u002A\u002A,1*%
%TO.N,N/C*%
X224150000Y-76720000D03*
%TO.P,REF\u002A\u002A,2*%
X219450000Y-71120000D03*
D11*
%TO.P,REF\u002A\u002A,3*%
X211950000Y-75920000D03*
D10*
%TO.P,REF\u002A\u002A,4*%
X222250000Y-71120000D03*
D12*
%TO.P,REF\u002A\u002A,5*%
X209050000Y-72820000D03*
D10*
%TO.P,REF\u002A\u002A,6*%
X221350000Y-75920000D03*
%TD*%
%TO.P,REF\u002A\u002A,1*%
%TO.N,N/C*%
X224155000Y-65520000D03*
%TO.P,REF\u002A\u002A,4*%
X222255000Y-71120000D03*
%TO.P,REF\u002A\u002A,6*%
X221355000Y-66320000D03*
%TO.P,REF\u002A\u002A,2*%
X219455000Y-71120000D03*
D11*
%TO.P,REF\u002A\u002A,3*%
X211955000Y-66320000D03*
D12*
%TO.P,REF\u002A\u002A,5*%
X209055000Y-69420000D03*
%TD*%
D13*
%TO.P,REF\u002A\u002A,1*%
%TO.N,N/C*%
X103275000Y-94950000D03*
%TO.P,REF\u002A\u002A,2*%
X91725000Y-92750000D03*
%TD*%
D14*
%TO.P,REF\u002A\u002A,1*%
%TO.N,N/C*%
X51000000Y-82380000D03*
D15*
%TO.P,REF\u002A\u002A,2*%
X51000000Y-90000000D03*
%TD*%
D16*
%TO.P,REF\u002A\u002A,1*%
%TO.N,N/C*%
X180157856Y-129583750D03*
%TO.P,REF\u002A\u002A,2*%
X170056851Y-123566094D03*
%TD*%
D13*
%TO.P,REF\u002A\u002A,1*%
%TO.N,N/C*%
X143275000Y-56950000D03*
%TO.P,REF\u002A\u002A,2*%
X131725000Y-54750000D03*
%TD*%
D14*
%TO.P,REF\u002A\u002A,1*%
%TO.N,N/C*%
X51000000Y-63380000D03*
D15*
%TO.P,REF\u002A\u002A,2*%
X51000000Y-71000000D03*
%TD*%
D13*
%TO.P,REF\u002A\u002A,1*%
%TO.N,N/C*%
X63275000Y-76000000D03*
%TO.P,REF\u002A\u002A,2*%
X51725000Y-73800000D03*
%TD*%
%TO.P,REF\u002A\u002A,1*%
%TO.N,N/C*%
X83275000Y-37950000D03*
%TO.P,REF\u002A\u002A,2*%
X71725000Y-35750000D03*
%TD*%
D14*
%TO.P,REF\u002A\u002A,1*%
%TO.N,N/C*%
X111000000Y-44330000D03*
D15*
%TO.P,REF\u002A\u002A,2*%
X111000000Y-51950000D03*
%TD*%
D14*
%TO.P,REF\u002A\u002A,1*%
%TO.N,N/C*%
X131000000Y-25330000D03*
D15*
%TO.P,REF\u002A\u002A,2*%
X131000000Y-32950000D03*
%TD*%
D14*
%TO.P,REF\u002A\u002A,1*%
%TO.N,N/C*%
X111000000Y-82330000D03*
D15*
%TO.P,REF\u002A\u002A,2*%
X111000000Y-89950000D03*
%TD*%
D17*
%TO.P,REF\u002A\u002A,1*%
%TO.N,N/C*%
X133270017Y-119873743D03*
%TO.P,REF\u002A\u002A,2*%
X121513462Y-119712803D03*
%TD*%
D13*
%TO.P,REF\u002A\u002A,1*%
%TO.N,N/C*%
X143275000Y-94950000D03*
%TO.P,REF\u002A\u002A,2*%
X131725000Y-92750000D03*
%TD*%
D14*
%TO.P,REF\u002A\u002A,1*%
%TO.N,N/C*%
X171000000Y-44330000D03*
D15*
%TO.P,REF\u002A\u002A,2*%
X171000000Y-51950000D03*
%TD*%
D14*
%TO.P,REF\u002A\u002A,1*%
%TO.N,N/C*%
X171000000Y-25330000D03*
D15*
%TO.P,REF\u002A\u002A,2*%
X171000000Y-32950000D03*
%TD*%
D13*
%TO.P,REF\u002A\u002A,1*%
%TO.N,N/C*%
X103275000Y-37950000D03*
%TO.P,REF\u002A\u002A,2*%
X91725000Y-35750000D03*
%TD*%
D14*
%TO.P,REF\u002A\u002A,1*%
%TO.N,N/C*%
X51000000Y-101380000D03*
D15*
%TO.P,REF\u002A\u002A,2*%
X51000000Y-109000000D03*
%TD*%
D14*
%TO.P,REF\u002A\u002A,1*%
%TO.N,N/C*%
X131000000Y-63330000D03*
D15*
%TO.P,REF\u002A\u002A,2*%
X131000000Y-70950000D03*
%TD*%
D13*
%TO.P,REF\u002A\u002A,1*%
%TO.N,N/C*%
X83275000Y-75950000D03*
%TO.P,REF\u002A\u002A,2*%
X71725000Y-73750000D03*
%TD*%
%TO.P,REF\u002A\u002A,1*%
%TO.N,N/C*%
X163275000Y-76000000D03*
%TO.P,REF\u002A\u002A,2*%
X151725000Y-73800000D03*
%TD*%
D14*
%TO.P,REF\u002A\u002A,1*%
%TO.N,N/C*%
X51000000Y-44380000D03*
D15*
%TO.P,REF\u002A\u002A,2*%
X51000000Y-52000000D03*
%TD*%
D14*
%TO.P,REF\u002A\u002A,1*%
%TO.N,N/C*%
X171000000Y-63330000D03*
D15*
%TO.P,REF\u002A\u002A,2*%
X171000000Y-70950000D03*
%TD*%
D13*
%TO.P,REF\u002A\u002A,1*%
%TO.N,N/C*%
X63275000Y-95000000D03*
%TO.P,REF\u002A\u002A,2*%
X51725000Y-92800000D03*
%TD*%
D14*
%TO.P,REF\u002A\u002A,1*%
%TO.N,N/C*%
X171000000Y-82330000D03*
D15*
%TO.P,REF\u002A\u002A,2*%
X171000000Y-89950000D03*
%TD*%
D13*
%TO.P,REF\u002A\u002A,1*%
%TO.N,N/C*%
X123275000Y-75950000D03*
%TO.P,REF\u002A\u002A,2*%
X111725000Y-73750000D03*
%TD*%
%TO.P,REF\u002A\u002A,1*%
%TO.N,N/C*%
X183275000Y-94950000D03*
%TO.P,REF\u002A\u002A,2*%
X171725000Y-92750000D03*
%TD*%
%TO.P,REF\u002A\u002A,1*%
%TO.N,N/C*%
X123275000Y-37950000D03*
%TO.P,REF\u002A\u002A,2*%
X111725000Y-35750000D03*
%TD*%
D18*
%TO.P,REF\u002A\u002A,1*%
%TO.N,N/C*%
X196555312Y-127164475D03*
D19*
%TO.P,REF\u002A\u002A,2*%
X191657270Y-133001734D03*
%TD*%
D14*
%TO.P,REF\u002A\u002A,1*%
%TO.N,N/C*%
X151000000Y-82380000D03*
D15*
%TO.P,REF\u002A\u002A,2*%
X151000000Y-90000000D03*
%TD*%
D14*
%TO.P,REF\u002A\u002A,1*%
%TO.N,N/C*%
X131000000Y-44330000D03*
D15*
%TO.P,REF\u002A\u002A,2*%
X131000000Y-51950000D03*
%TD*%
D14*
%TO.P,REF\u002A\u002A,1*%
%TO.N,N/C*%
X145500000Y-107329999D03*
D15*
%TO.P,REF\u002A\u002A,2*%
X145500000Y-114949999D03*
%TD*%
D13*
%TO.P,REF\u002A\u002A,1*%
%TO.N,N/C*%
X63275000Y-114000000D03*
%TO.P,REF\u002A\u002A,2*%
X51725000Y-111800000D03*
%TD*%
%TO.P,REF\u002A\u002A,1*%
%TO.N,N/C*%
X63275000Y-57000000D03*
%TO.P,REF\u002A\u002A,2*%
X51725000Y-54800000D03*
%TD*%
D14*
%TO.P,REF\u002A\u002A,1*%
%TO.N,N/C*%
X91000000Y-25330000D03*
D15*
%TO.P,REF\u002A\u002A,2*%
X91000000Y-32950000D03*
%TD*%
D14*
%TO.P,REF\u002A\u002A,1*%
%TO.N,N/C*%
X151000000Y-44380000D03*
D15*
%TO.P,REF\u002A\u002A,2*%
X151000000Y-52000000D03*
%TD*%
D13*
%TO.P,REF\u002A\u002A,1*%
%TO.N,N/C*%
X183275000Y-56950000D03*
%TO.P,REF\u002A\u002A,2*%
X171725000Y-54750000D03*
%TD*%
%TO.P,REF\u002A\u002A,1*%
%TO.N,N/C*%
X103275000Y-113950000D03*
%TO.P,REF\u002A\u002A,2*%
X91725000Y-111750000D03*
%TD*%
D14*
%TO.P,REF\u002A\u002A,1*%
%TO.N,N/C*%
X71000000Y-82330000D03*
D15*
%TO.P,REF\u002A\u002A,2*%
X71000000Y-89950000D03*
%TD*%
D14*
%TO.P,REF\u002A\u002A,1*%
%TO.N,N/C*%
X111000000Y-63330000D03*
D15*
%TO.P,REF\u002A\u002A,2*%
X111000000Y-70950000D03*
%TD*%
D13*
%TO.P,REF\u002A\u002A,1*%
%TO.N,N/C*%
X183275000Y-37950000D03*
%TO.P,REF\u002A\u002A,2*%
X171725000Y-35750000D03*
%TD*%
D14*
%TO.P,REF\u002A\u002A,1*%
%TO.N,N/C*%
X71000000Y-25330000D03*
D15*
%TO.P,REF\u002A\u002A,2*%
X71000000Y-32950000D03*
%TD*%
D13*
%TO.P,REF\u002A\u002A,1*%
%TO.N,N/C*%
X83275000Y-113950000D03*
%TO.P,REF\u002A\u002A,2*%
X71725000Y-111750000D03*
%TD*%
%TO.P,REF\u002A\u002A,1*%
%TO.N,N/C*%
X163275000Y-38000000D03*
%TO.P,REF\u002A\u002A,2*%
X151725000Y-35800000D03*
%TD*%
D14*
%TO.P,REF\u002A\u002A,1*%
%TO.N,N/C*%
X111000000Y-25330000D03*
D15*
%TO.P,REF\u002A\u002A,2*%
X111000000Y-32950000D03*
%TD*%
D20*
%TO.P,REF\u002A\u002A,1*%
%TO.N,N/C*%
X197846526Y-144722175D03*
%TO.P,REF\u002A\u002A,2*%
X190412846Y-135612680D03*
%TD*%
D14*
%TO.P,REF\u002A\u002A,1*%
%TO.N,N/C*%
X71000000Y-101330000D03*
D15*
%TO.P,REF\u002A\u002A,2*%
X71000000Y-108950000D03*
%TD*%
D13*
%TO.P,REF\u002A\u002A,1*%
%TO.N,N/C*%
X163275000Y-57000000D03*
%TO.P,REF\u002A\u002A,2*%
X151725000Y-54800000D03*
%TD*%
%TO.P,REF\u002A\u002A,1*%
%TO.N,N/C*%
X103275000Y-75950000D03*
%TO.P,REF\u002A\u002A,2*%
X91725000Y-73750000D03*
%TD*%
D14*
%TO.P,REF\u002A\u002A,1*%
%TO.N,N/C*%
X151000000Y-63380000D03*
D15*
%TO.P,REF\u002A\u002A,2*%
X151000000Y-71000000D03*
%TD*%
D13*
%TO.P,REF\u002A\u002A,1*%
%TO.N,N/C*%
X143275000Y-37950000D03*
%TO.P,REF\u002A\u002A,2*%
X131725000Y-35750000D03*
%TD*%
D14*
%TO.P,REF\u002A\u002A,1*%
%TO.N,N/C*%
X71000000Y-44330000D03*
D15*
%TO.P,REF\u002A\u002A,2*%
X71000000Y-51950000D03*
%TD*%
D13*
%TO.P,REF\u002A\u002A,1*%
%TO.N,N/C*%
X83275000Y-94950000D03*
%TO.P,REF\u002A\u002A,2*%
X71725000Y-92750000D03*
%TD*%
%TO.P,REF\u002A\u002A,1*%
%TO.N,N/C*%
X183275000Y-75950000D03*
%TO.P,REF\u002A\u002A,2*%
X171725000Y-73750000D03*
%TD*%
%TO.P,REF\u002A\u002A,1*%
%TO.N,N/C*%
X123275000Y-94950000D03*
%TO.P,REF\u002A\u002A,2*%
X111725000Y-92750000D03*
%TD*%
D14*
%TO.P,REF\u002A\u002A,1*%
%TO.N,N/C*%
X91000000Y-82330000D03*
D15*
%TO.P,REF\u002A\u002A,2*%
X91000000Y-89950000D03*
%TD*%
D13*
%TO.P,REF\u002A\u002A,1*%
%TO.N,N/C*%
X163275000Y-95000000D03*
%TO.P,REF\u002A\u002A,2*%
X151725000Y-92800000D03*
%TD*%
D14*
%TO.P,REF\u002A\u002A,1*%
%TO.N,N/C*%
X91000000Y-101330000D03*
D15*
%TO.P,REF\u002A\u002A,2*%
X91000000Y-108950000D03*
%TD*%
D21*
%TO.P,REF\u002A\u002A,1*%
%TO.N,N/C*%
X172939424Y-113526532D03*
D22*
%TO.P,REF\u002A\u002A,2*%
X170333231Y-120686990D03*
%TD*%
D13*
%TO.P,REF\u002A\u002A,1*%
%TO.N,N/C*%
X157775000Y-119950000D03*
%TO.P,REF\u002A\u002A,2*%
X146225000Y-117750000D03*
%TD*%
D14*
%TO.P,REF\u002A\u002A,1*%
%TO.N,N/C*%
X151000000Y-25380000D03*
D15*
%TO.P,REF\u002A\u002A,2*%
X151000000Y-33000000D03*
%TD*%
D13*
%TO.P,REF\u002A\u002A,1*%
%TO.N,N/C*%
X63275000Y-38000000D03*
%TO.P,REF\u002A\u002A,2*%
X51725000Y-35800000D03*
%TD*%
%TO.P,REF\u002A\u002A,1*%
%TO.N,N/C*%
X123275000Y-56950000D03*
%TO.P,REF\u002A\u002A,2*%
X111725000Y-54750000D03*
%TD*%
D14*
%TO.P,REF\u002A\u002A,1*%
%TO.N,N/C*%
X51000000Y-25380000D03*
D15*
%TO.P,REF\u002A\u002A,2*%
X51000000Y-33000000D03*
%TD*%
D14*
%TO.P,REF\u002A\u002A,1*%
%TO.N,N/C*%
X71000000Y-63330000D03*
D15*
%TO.P,REF\u002A\u002A,2*%
X71000000Y-70950000D03*
%TD*%
D23*
%TO.P,REF\u002A\u002A,1*%
%TO.N,N/C*%
X118990062Y-109577000D03*
D24*
%TO.P,REF\u002A\u002A,2*%
X120313261Y-117081235D03*
%TD*%
D13*
%TO.P,REF\u002A\u002A,1*%
%TO.N,N/C*%
X83275000Y-56950000D03*
%TO.P,REF\u002A\u002A,2*%
X71725000Y-54750000D03*
%TD*%
D14*
%TO.P,REF\u002A\u002A,1*%
%TO.N,N/C*%
X91000000Y-63330000D03*
D15*
%TO.P,REF\u002A\u002A,2*%
X91000000Y-70950000D03*
%TD*%
D14*
%TO.P,REF\u002A\u002A,1*%
%TO.N,N/C*%
X91000000Y-44330000D03*
D15*
%TO.P,REF\u002A\u002A,2*%
X91000000Y-51950000D03*
%TD*%
D14*
%TO.P,REF\u002A\u002A,1*%
%TO.N,N/C*%
X131000000Y-82330000D03*
D15*
%TO.P,REF\u002A\u002A,2*%
X131000000Y-89950000D03*
%TD*%
D13*
%TO.P,REF\u002A\u002A,1*%
%TO.N,N/C*%
X143275000Y-75950000D03*
%TO.P,REF\u002A\u002A,2*%
X131725000Y-73750000D03*
%TD*%
%TO.P,REF\u002A\u002A,1*%
%TO.N,N/C*%
X103275000Y-56950000D03*
%TO.P,REF\u002A\u002A,2*%
X91725000Y-54750000D03*
%TD*%
D25*
%TO.P,REF\u002A\u002A,1*%
%TO.N,N/C*%
X62550000Y-27750000D03*
%TO.P,REF\u002A\u002A,2*%
X62550000Y-26250000D03*
D26*
%TO.P,REF\u002A\u002A,3*%
X57450000Y-26250000D03*
D25*
%TO.P,REF\u002A\u002A,4*%
X57450000Y-27750000D03*
%TD*%
%TO.P,REF\u002A\u002A,1*%
%TO.N,N/C*%
X122550000Y-84700000D03*
%TO.P,REF\u002A\u002A,2*%
X122550000Y-83200000D03*
D26*
%TO.P,REF\u002A\u002A,3*%
X117450000Y-83200000D03*
D25*
%TO.P,REF\u002A\u002A,4*%
X117450000Y-84700000D03*
%TD*%
%TO.P,REF\u002A\u002A,1*%
%TO.N,N/C*%
X122550000Y-46700000D03*
%TO.P,REF\u002A\u002A,2*%
X122550000Y-45200000D03*
D26*
%TO.P,REF\u002A\u002A,3*%
X117450000Y-45200000D03*
D25*
%TO.P,REF\u002A\u002A,4*%
X117450000Y-46700000D03*
%TD*%
%TO.P,REF\u002A\u002A,1*%
%TO.N,N/C*%
X62550000Y-46750000D03*
%TO.P,REF\u002A\u002A,2*%
X62550000Y-45250000D03*
D26*
%TO.P,REF\u002A\u002A,3*%
X57450000Y-45250000D03*
D25*
%TO.P,REF\u002A\u002A,4*%
X57450000Y-46750000D03*
%TD*%
%TO.P,REF\u002A\u002A,1*%
%TO.N,N/C*%
X162550000Y-84750000D03*
%TO.P,REF\u002A\u002A,2*%
X162550000Y-83250000D03*
D26*
%TO.P,REF\u002A\u002A,3*%
X157450000Y-83250000D03*
D25*
%TO.P,REF\u002A\u002A,4*%
X157450000Y-84750000D03*
%TD*%
%TO.P,REF\u002A\u002A,1*%
%TO.N,N/C*%
X142550000Y-27700000D03*
%TO.P,REF\u002A\u002A,2*%
X142550000Y-26200000D03*
D26*
%TO.P,REF\u002A\u002A,3*%
X137450000Y-26200000D03*
D25*
%TO.P,REF\u002A\u002A,4*%
X137450000Y-27700000D03*
%TD*%
%TO.P,REF\u002A\u002A,1*%
%TO.N,N/C*%
X182550000Y-46700000D03*
%TO.P,REF\u002A\u002A,2*%
X182550000Y-45200000D03*
D26*
%TO.P,REF\u002A\u002A,3*%
X177450000Y-45200000D03*
D25*
%TO.P,REF\u002A\u002A,4*%
X177450000Y-46700000D03*
%TD*%
%TO.P,REF\u002A\u002A,1*%
%TO.N,N/C*%
X62550000Y-103750000D03*
%TO.P,REF\u002A\u002A,2*%
X62550000Y-102250000D03*
D26*
%TO.P,REF\u002A\u002A,3*%
X57450000Y-102250000D03*
D25*
%TO.P,REF\u002A\u002A,4*%
X57450000Y-103750000D03*
%TD*%
%TO.P,REF\u002A\u002A,1*%
%TO.N,N/C*%
X182550000Y-27700000D03*
%TO.P,REF\u002A\u002A,2*%
X182550000Y-26200000D03*
D26*
%TO.P,REF\u002A\u002A,3*%
X177450000Y-26200000D03*
D25*
%TO.P,REF\u002A\u002A,4*%
X177450000Y-27700000D03*
%TD*%
%TO.P,REF\u002A\u002A,1*%
%TO.N,N/C*%
X102550000Y-46700000D03*
%TO.P,REF\u002A\u002A,2*%
X102550000Y-45200000D03*
D26*
%TO.P,REF\u002A\u002A,3*%
X97450000Y-45200000D03*
D25*
%TO.P,REF\u002A\u002A,4*%
X97450000Y-46700000D03*
%TD*%
%TO.P,REF\u002A\u002A,1*%
%TO.N,N/C*%
X122550000Y-27700000D03*
%TO.P,REF\u002A\u002A,2*%
X122550000Y-26200000D03*
D26*
%TO.P,REF\u002A\u002A,3*%
X117450000Y-26200000D03*
D25*
%TO.P,REF\u002A\u002A,4*%
X117450000Y-27700000D03*
%TD*%
%TO.P,REF\u002A\u002A,1*%
%TO.N,N/C*%
X182550000Y-65700000D03*
%TO.P,REF\u002A\u002A,2*%
X182550000Y-64200000D03*
D26*
%TO.P,REF\u002A\u002A,3*%
X177450000Y-64200000D03*
D25*
%TO.P,REF\u002A\u002A,4*%
X177450000Y-65700000D03*
%TD*%
%TO.P,REF\u002A\u002A,1*%
%TO.N,N/C*%
X142550000Y-84700000D03*
%TO.P,REF\u002A\u002A,2*%
X142550000Y-83200000D03*
D26*
%TO.P,REF\u002A\u002A,3*%
X137450000Y-83200000D03*
D25*
%TO.P,REF\u002A\u002A,4*%
X137450000Y-84700000D03*
%TD*%
D27*
%TO.P,REF\u002A\u002A,1*%
%TO.N,N/C*%
X130776138Y-109905358D03*
%TO.P,REF\u002A\u002A,2*%
X130515666Y-108428146D03*
D28*
%TO.P,REF\u002A\u002A,3*%
X125493146Y-109313752D03*
D27*
%TO.P,REF\u002A\u002A,4*%
X125753618Y-110790964D03*
%TD*%
D25*
%TO.P,REF\u002A\u002A,1*%
%TO.N,N/C*%
X122550000Y-65700000D03*
%TO.P,REF\u002A\u002A,2*%
X122550000Y-64200000D03*
D26*
%TO.P,REF\u002A\u002A,3*%
X117450000Y-64200000D03*
D25*
%TO.P,REF\u002A\u002A,4*%
X117450000Y-65700000D03*
%TD*%
%TO.P,REF\u002A\u002A,1*%
%TO.N,N/C*%
X62550000Y-84750000D03*
%TO.P,REF\u002A\u002A,2*%
X62550000Y-83250000D03*
D26*
%TO.P,REF\u002A\u002A,3*%
X57450000Y-83250000D03*
D25*
%TO.P,REF\u002A\u002A,4*%
X57450000Y-84750000D03*
%TD*%
%TO.P,REF\u002A\u002A,1*%
%TO.N,N/C*%
X142550000Y-46700000D03*
%TO.P,REF\u002A\u002A,2*%
X142550000Y-45200000D03*
D26*
%TO.P,REF\u002A\u002A,3*%
X137450000Y-45200000D03*
D25*
%TO.P,REF\u002A\u002A,4*%
X137450000Y-46700000D03*
%TD*%
%TO.P,REF\u002A\u002A,1*%
%TO.N,N/C*%
X157049999Y-109699999D03*
%TO.P,REF\u002A\u002A,2*%
X157049999Y-108199999D03*
D26*
%TO.P,REF\u002A\u002A,3*%
X151949999Y-108199999D03*
D25*
%TO.P,REF\u002A\u002A,4*%
X151949999Y-109699999D03*
%TD*%
%TO.P,REF\u002A\u002A,1*%
%TO.N,N/C*%
X82550000Y-84700000D03*
%TO.P,REF\u002A\u002A,2*%
X82550000Y-83200000D03*
D26*
%TO.P,REF\u002A\u002A,3*%
X77450000Y-83200000D03*
D25*
%TO.P,REF\u002A\u002A,4*%
X77450000Y-84700000D03*
%TD*%
%TO.P,REF\u002A\u002A,1*%
%TO.N,N/C*%
X162550000Y-27750000D03*
%TO.P,REF\u002A\u002A,2*%
X162550000Y-26250000D03*
D26*
%TO.P,REF\u002A\u002A,3*%
X157450000Y-26250000D03*
D25*
%TO.P,REF\u002A\u002A,4*%
X157450000Y-27750000D03*
%TD*%
%TO.P,REF\u002A\u002A,1*%
%TO.N,N/C*%
X102550000Y-65700000D03*
%TO.P,REF\u002A\u002A,2*%
X102550000Y-64200000D03*
D26*
%TO.P,REF\u002A\u002A,3*%
X97450000Y-64200000D03*
D25*
%TO.P,REF\u002A\u002A,4*%
X97450000Y-65700000D03*
%TD*%
%TO.P,REF\u002A\u002A,1*%
%TO.N,N/C*%
X142550000Y-65700000D03*
%TO.P,REF\u002A\u002A,2*%
X142550000Y-64200000D03*
D26*
%TO.P,REF\u002A\u002A,3*%
X137450000Y-64200000D03*
D25*
%TO.P,REF\u002A\u002A,4*%
X137450000Y-65700000D03*
%TD*%
%TO.P,REF\u002A\u002A,1*%
%TO.N,N/C*%
X102550000Y-27700000D03*
%TO.P,REF\u002A\u002A,2*%
X102550000Y-26200000D03*
D26*
%TO.P,REF\u002A\u002A,3*%
X97450000Y-26200000D03*
D25*
%TO.P,REF\u002A\u002A,4*%
X97450000Y-27700000D03*
%TD*%
D29*
%TO.P,REF\u002A\u002A,1*%
%TO.N,N/C*%
X203879719Y-136404197D03*
%TO.P,REF\u002A\u002A,2*%
X204843900Y-135255130D03*
D30*
%TO.P,REF\u002A\u002A,3*%
X200937073Y-131976913D03*
D29*
%TO.P,REF\u002A\u002A,4*%
X199972892Y-133125980D03*
%TD*%
D25*
%TO.P,REF\u002A\u002A,1*%
%TO.N,N/C*%
X162550000Y-65750000D03*
%TO.P,REF\u002A\u002A,2*%
X162550000Y-64250000D03*
D26*
%TO.P,REF\u002A\u002A,3*%
X157450000Y-64250000D03*
D25*
%TO.P,REF\u002A\u002A,4*%
X157450000Y-65750000D03*
%TD*%
%TO.P,REF\u002A\u002A,1*%
%TO.N,N/C*%
X82550000Y-46700000D03*
%TO.P,REF\u002A\u002A,2*%
X82550000Y-45200000D03*
D26*
%TO.P,REF\u002A\u002A,3*%
X77450000Y-45200000D03*
D25*
%TO.P,REF\u002A\u002A,4*%
X77450000Y-46700000D03*
%TD*%
D31*
%TO.P,REF\u002A\u002A,1*%
%TO.N,N/C*%
X182982285Y-119703936D03*
%TO.P,REF\u002A\u002A,2*%
X183495315Y-118294397D03*
D32*
%TO.P,REF\u002A\u002A,3*%
X178702883Y-116550094D03*
D31*
%TO.P,REF\u002A\u002A,4*%
X178189853Y-117959633D03*
%TD*%
D33*
%TO.P,REF\u002A\u002A,1*%
%TO.N,N/C*%
X219660000Y-21490000D03*
%TO.P,REF\u002A\u002A,2*%
X219660000Y-24030000D03*
%TO.P,REF\u002A\u002A,3*%
X219660000Y-26570000D03*
%TO.P,REF\u002A\u002A,4*%
X219660000Y-29110000D03*
%TO.P,REF\u002A\u002A,5*%
X219660000Y-31650000D03*
%TO.P,REF\u002A\u002A,6*%
X219660000Y-34190000D03*
%TO.P,REF\u002A\u002A,7*%
X219660000Y-36730000D03*
%TO.P,REF\u002A\u002A,8*%
X219660000Y-39270000D03*
%TO.P,REF\u002A\u002A,9*%
X219660000Y-41810000D03*
%TO.P,REF\u002A\u002A,10*%
X219660000Y-44350000D03*
%TO.P,REF\u002A\u002A,11*%
X219660000Y-46890000D03*
%TO.P,REF\u002A\u002A,12*%
X219660000Y-49430000D03*
%TO.P,REF\u002A\u002A,13*%
X219660000Y-51970000D03*
%TO.P,REF\u002A\u002A,14*%
X199340000Y-21490000D03*
%TO.P,REF\u002A\u002A,15*%
X199340000Y-24030000D03*
%TO.P,REF\u002A\u002A,16*%
X199340000Y-26570000D03*
%TO.P,REF\u002A\u002A,17*%
X199340000Y-29110000D03*
%TO.P,REF\u002A\u002A,18*%
X199340000Y-31650000D03*
%TO.P,REF\u002A\u002A,19*%
X199340000Y-34190000D03*
%TO.P,REF\u002A\u002A,20*%
X199340000Y-36730000D03*
%TO.P,REF\u002A\u002A,21*%
X199340000Y-39270000D03*
%TO.P,REF\u002A\u002A,22*%
X199340000Y-41810000D03*
%TO.P,REF\u002A\u002A,23*%
X199340000Y-44350000D03*
%TO.P,REF\u002A\u002A,24*%
X199340000Y-46890000D03*
%TO.P,REF\u002A\u002A,25*%
X199340000Y-49430000D03*
%TO.P,REF\u002A\u002A,26*%
X199340000Y-51970000D03*
%TD*%
D25*
%TO.P,REF\u002A\u002A,1*%
%TO.N,N/C*%
X82550000Y-27700000D03*
%TO.P,REF\u002A\u002A,2*%
X82550000Y-26200000D03*
D26*
%TO.P,REF\u002A\u002A,3*%
X77450000Y-26200000D03*
D25*
%TO.P,REF\u002A\u002A,4*%
X77450000Y-27700000D03*
%TD*%
%TO.P,REF\u002A\u002A,1*%
%TO.N,N/C*%
X182550000Y-84700000D03*
%TO.P,REF\u002A\u002A,2*%
X182550000Y-83200000D03*
D26*
%TO.P,REF\u002A\u002A,3*%
X177450000Y-83200000D03*
D25*
%TO.P,REF\u002A\u002A,4*%
X177450000Y-84700000D03*
%TD*%
%TO.P,REF\u002A\u002A,1*%
%TO.N,N/C*%
X62550000Y-65750000D03*
%TO.P,REF\u002A\u002A,2*%
X62550000Y-64250000D03*
D26*
%TO.P,REF\u002A\u002A,3*%
X57450000Y-64250000D03*
D25*
%TO.P,REF\u002A\u002A,4*%
X57450000Y-65750000D03*
%TD*%
%TO.P,REF\u002A\u002A,1*%
%TO.N,N/C*%
X102550000Y-84700000D03*
%TO.P,REF\u002A\u002A,2*%
X102550000Y-83200000D03*
D26*
%TO.P,REF\u002A\u002A,3*%
X97450000Y-83200000D03*
D25*
%TO.P,REF\u002A\u002A,4*%
X97450000Y-84700000D03*
%TD*%
%TO.P,REF\u002A\u002A,1*%
%TO.N,N/C*%
X102550000Y-103700000D03*
%TO.P,REF\u002A\u002A,2*%
X102550000Y-102200000D03*
D26*
%TO.P,REF\u002A\u002A,3*%
X97450000Y-102200000D03*
D25*
%TO.P,REF\u002A\u002A,4*%
X97450000Y-103700000D03*
%TD*%
%TO.P,REF\u002A\u002A,1*%
%TO.N,N/C*%
X82550000Y-103700000D03*
%TO.P,REF\u002A\u002A,2*%
X82550000Y-102200000D03*
D26*
%TO.P,REF\u002A\u002A,3*%
X77450000Y-102200000D03*
D25*
%TO.P,REF\u002A\u002A,4*%
X77450000Y-103700000D03*
%TD*%
%TO.P,REF\u002A\u002A,1*%
%TO.N,N/C*%
X162550000Y-46750000D03*
%TO.P,REF\u002A\u002A,2*%
X162550000Y-45250000D03*
D26*
%TO.P,REF\u002A\u002A,3*%
X157450000Y-45250000D03*
D25*
%TO.P,REF\u002A\u002A,4*%
X157450000Y-46750000D03*
%TD*%
%TO.P,REF\u002A\u002A,1*%
%TO.N,N/C*%
X82550000Y-65700000D03*
%TO.P,REF\u002A\u002A,2*%
X82550000Y-64200000D03*
D26*
%TO.P,REF\u002A\u002A,3*%
X77450000Y-64200000D03*
D25*
%TO.P,REF\u002A\u002A,4*%
X77450000Y-65700000D03*
%TD*%
D34*
%TO.N,*%
X203000000Y-55000000D03*
X97000000Y-82000000D03*
X184000000Y-84000000D03*
X189209377Y-137474745D03*
X157000000Y-63000000D03*
X64000000Y-46000000D03*
X189000000Y-59000000D03*
X144000000Y-84000000D03*
X216000000Y-55500000D03*
X204000000Y-51000000D03*
X201466086Y-147759346D03*
X143000000Y-48000000D03*
X184584253Y-119542080D03*
X212000000Y-55500000D03*
X177000000Y-44000000D03*
X88000000Y-94950000D03*
X56000000Y-45000000D03*
X191000000Y-26000000D03*
X152000000Y-57000000D03*
X190000000Y-42000000D03*
X201295000Y-48500000D03*
X128000000Y-75950000D03*
X63000000Y-67000000D03*
X137000000Y-25000000D03*
X103000000Y-105000000D03*
X183000000Y-86000000D03*
X97000000Y-25000000D03*
X56000000Y-64000000D03*
X96000000Y-26000000D03*
X124000000Y-84000000D03*
X116000000Y-64000000D03*
X148000000Y-75950000D03*
X84000000Y-46000000D03*
X92000000Y-56950000D03*
X63000000Y-48000000D03*
X191000000Y-80000000D03*
X112000000Y-37950000D03*
X116000000Y-45000000D03*
X84000000Y-27000000D03*
X88000000Y-56950000D03*
X83000000Y-29000000D03*
X202000000Y-55500000D03*
X83000000Y-105000000D03*
X83000000Y-48000000D03*
X92000000Y-94950000D03*
X136000000Y-83000000D03*
X132000000Y-75950000D03*
X52000000Y-57000000D03*
X216000000Y-50000000D03*
X57000000Y-101000000D03*
X88000000Y-75950000D03*
X152000000Y-95000000D03*
X192000000Y-61000000D03*
X132000000Y-94950000D03*
X143000000Y-86000000D03*
X197000000Y-33500000D03*
X214000000Y-55500000D03*
X92000000Y-113950000D03*
X123000000Y-67000000D03*
X205000000Y-42000000D03*
X124000000Y-65000000D03*
X112000000Y-94950000D03*
X172000000Y-37950000D03*
X97000000Y-63000000D03*
X108000000Y-37950000D03*
X211000000Y-55000000D03*
X143000000Y-67000000D03*
X178690446Y-115268553D03*
X57000000Y-63000000D03*
X177000000Y-82000000D03*
X124841605Y-108210125D03*
X156000000Y-83000000D03*
X197000000Y-125000000D03*
X183000000Y-48000000D03*
X177000000Y-25000000D03*
X184000000Y-46000000D03*
X88000000Y-113950000D03*
X96000000Y-102000000D03*
X201295000Y-41000000D03*
X103000000Y-86000000D03*
X72000000Y-94950000D03*
X188000000Y-75950000D03*
X189000000Y-78000000D03*
X189000000Y-79000000D03*
X84000000Y-65000000D03*
X84000000Y-84000000D03*
X164000000Y-27000000D03*
X192000000Y-24000000D03*
X193000000Y-26000000D03*
X144000000Y-65000000D03*
X128000000Y-94950000D03*
X172000000Y-94950000D03*
X205440434Y-136800007D03*
X56000000Y-102000000D03*
X103000000Y-67000000D03*
X201295000Y-46000000D03*
X123000000Y-86000000D03*
X72000000Y-37950000D03*
X112000000Y-75950000D03*
X188000000Y-37950000D03*
X199954865Y-130891662D03*
X172000000Y-75950000D03*
X104000000Y-27000000D03*
X192000000Y-80000000D03*
X148000000Y-56950000D03*
X123000000Y-48000000D03*
X143000000Y-29000000D03*
X176000000Y-26000000D03*
X136000000Y-45000000D03*
X177000000Y-63000000D03*
X68000000Y-38000000D03*
X52000000Y-76000000D03*
X124000000Y-27000000D03*
X194000000Y-30000000D03*
X76000000Y-83000000D03*
X184000000Y-65000000D03*
X132000000Y-37950000D03*
X124030445Y-109368580D03*
X208280000Y-134620000D03*
X184597902Y-131199795D03*
X137000000Y-82000000D03*
X52000000Y-114000000D03*
X192000000Y-82000000D03*
X182960520Y-121079444D03*
X205740000Y-139700000D03*
X128000000Y-56950000D03*
X183000000Y-67000000D03*
X97000000Y-44000000D03*
X104000000Y-65000000D03*
X108000000Y-113950000D03*
X57000000Y-44000000D03*
X190000000Y-64000000D03*
X77000000Y-101000000D03*
X117000000Y-82000000D03*
X203000000Y-31500000D03*
X183000000Y-29000000D03*
X146500000Y-119950000D03*
X190000000Y-80000000D03*
X72000000Y-56950000D03*
X205000000Y-50500000D03*
X96000000Y-45000000D03*
X57000000Y-25000000D03*
X56000000Y-83000000D03*
X216000000Y-47500000D03*
X77000000Y-82000000D03*
X177408732Y-115866225D03*
X116000000Y-26000000D03*
X128000000Y-37950000D03*
X172000000Y-56950000D03*
X216000000Y-42000000D03*
X156000000Y-26000000D03*
X96000000Y-64000000D03*
X84000000Y-103000000D03*
X191000000Y-61000000D03*
X215500000Y-23000000D03*
X103000000Y-29000000D03*
X204000000Y-53000000D03*
X168000000Y-57000000D03*
X108000000Y-75950000D03*
X136000000Y-64000000D03*
X92000000Y-37950000D03*
X162499999Y-119950000D03*
X156000000Y-64000000D03*
X103000000Y-48000000D03*
X191000000Y-67000000D03*
X210000000Y-55500000D03*
X92000000Y-75950000D03*
X76000000Y-26000000D03*
X189000000Y-41000000D03*
X205000000Y-34500000D03*
X216000000Y-52500000D03*
X137000000Y-63000000D03*
X188000000Y-94950000D03*
X77000000Y-63000000D03*
X116000000Y-83000000D03*
X192000000Y-63000000D03*
X157000000Y-82000000D03*
X108000000Y-94950000D03*
X168000000Y-95000000D03*
X204000000Y-48500000D03*
X83000000Y-86000000D03*
X124000000Y-46000000D03*
X164000000Y-84000000D03*
X204000000Y-41000000D03*
X63000000Y-105000000D03*
X77000000Y-44000000D03*
X64000000Y-103000000D03*
X131445044Y-111107466D03*
X97000000Y-101000000D03*
X63000000Y-86000000D03*
X201295000Y-51000000D03*
X76000000Y-64000000D03*
X201363698Y-130768407D03*
X203388814Y-137689309D03*
X190000000Y-45000000D03*
X144000000Y-27000000D03*
X52000000Y-38000000D03*
X176000000Y-83000000D03*
X137000000Y-44000000D03*
X83000000Y-67000000D03*
X132082555Y-108964203D03*
X158499999Y-108999999D03*
X205000000Y-47000000D03*
X204000000Y-46000000D03*
X190000000Y-83000000D03*
X136000000Y-26000000D03*
X72000000Y-75950000D03*
X189000000Y-60000000D03*
X157499999Y-110999999D03*
X137923233Y-119053255D03*
X63000000Y-29000000D03*
X68000000Y-76000000D03*
X76000000Y-45000000D03*
X88000000Y-37950000D03*
X188000000Y-56950000D03*
X152000000Y-38000000D03*
X77000000Y-25000000D03*
X205000000Y-37000000D03*
X117000000Y-63000000D03*
X150499999Y-107999999D03*
X132000000Y-56950000D03*
X163000000Y-29000000D03*
X157000000Y-44000000D03*
X163000000Y-86000000D03*
X68000000Y-57000000D03*
X156000000Y-45000000D03*
X52000000Y-95000000D03*
X117000000Y-44000000D03*
X184000000Y-27000000D03*
X209500000Y-135500000D03*
X216000000Y-45000000D03*
X198000000Y-121000000D03*
X191000000Y-42000000D03*
X64000000Y-84000000D03*
X108000000Y-56950000D03*
X57000000Y-82000000D03*
X176000000Y-45000000D03*
X213000000Y-55000000D03*
X157000000Y-25000000D03*
X152000000Y-76000000D03*
X168000000Y-76000000D03*
X76000000Y-102000000D03*
X117000000Y-25000000D03*
X192000000Y-42000000D03*
X169562823Y-125727473D03*
X205000000Y-44500000D03*
X123000000Y-29000000D03*
X148000000Y-37950000D03*
X104000000Y-46000000D03*
X68000000Y-114000000D03*
X144000000Y-46000000D03*
X56000000Y-26000000D03*
X189000000Y-40000000D03*
X215500000Y-25000000D03*
X104000000Y-103000000D03*
X205000000Y-39500000D03*
X163000000Y-67000000D03*
X168000000Y-38000000D03*
X148000000Y-94950000D03*
X191000000Y-29000000D03*
X202000000Y-24000000D03*
X164000000Y-65000000D03*
X164000000Y-46000000D03*
X191000000Y-48000000D03*
X176000000Y-64000000D03*
X72000000Y-113950000D03*
X163000000Y-48000000D03*
X68000000Y-95000000D03*
X190000000Y-61000000D03*
X204000000Y-43500000D03*
X64000000Y-65000000D03*
X215000000Y-55000000D03*
X192000000Y-44000000D03*
X191000000Y-86000000D03*
X201295000Y-43500000D03*
X151499999Y-107000000D03*
X122166310Y-121831626D03*
X96000000Y-83000000D03*
X104000000Y-84000000D03*
X64000000Y-27000000D03*
X112000000Y-56950000D03*
%TD*%
D35*
%TO.N,*%
X201295000Y-48500000D02*
X200270000Y-48500000D01*
X200270000Y-48500000D02*
X199340000Y-49430000D01*
X201295000Y-51000000D02*
X200310000Y-51000000D01*
X200310000Y-51000000D02*
X199340000Y-51970000D01*
X201295000Y-46000000D02*
X200230000Y-46000000D01*
X200230000Y-46000000D02*
X199340000Y-46890000D01*
X201295000Y-43500000D02*
X200190000Y-43500000D01*
X200190000Y-43500000D02*
X199340000Y-44350000D01*
X200150000Y-41000000D02*
X199340000Y-41810000D01*
X201295000Y-41000000D02*
X200150000Y-41000000D01*
X200256020Y-146743980D02*
X199000000Y-148000000D01*
X187000000Y-139000000D02*
X187000000Y-134000000D01*
X199000000Y-148000000D02*
X196000000Y-148000000D01*
X196000000Y-148000000D02*
X187000000Y-139000000D01*
X187000000Y-134000000D02*
X188000000Y-133000000D01*
X188000000Y-133000000D02*
X188000000Y-94950000D01*
X209055000Y-69305000D02*
X209055000Y-66535000D01*
X222250000Y-29210000D02*
X222150000Y-29110000D01*
X209055000Y-66535000D02*
X222250000Y-53340000D01*
X222250000Y-53340000D02*
X222250000Y-29210000D01*
X222150000Y-29110000D02*
X219660000Y-29110000D01*
X211980000Y-66180000D02*
X223520000Y-54640000D01*
X223520000Y-54640000D02*
X223520000Y-26660000D01*
X223520000Y-26660000D02*
X223430000Y-26570000D01*
X223430000Y-26570000D02*
X219660000Y-26570000D01*
X209055000Y-69305000D02*
X209055000Y-72815000D01*
X209055000Y-72815000D02*
X209050000Y-72820000D01*
X211955000Y-66205000D02*
X211955000Y-75915000D01*
X211955000Y-75915000D02*
X211950000Y-75920000D01*
X221355000Y-66205000D02*
X220180000Y-66205000D01*
X220180000Y-66205000D02*
X217805000Y-68580000D01*
X217805000Y-68580000D02*
X217805000Y-73660000D01*
X217805000Y-73660000D02*
X220065000Y-75920000D01*
X220065000Y-75920000D02*
X221350000Y-75920000D01*
X219660000Y-24030000D02*
X222050000Y-24030000D01*
X222050000Y-24030000D02*
X224790000Y-26770000D01*
X224790000Y-26770000D02*
X224790000Y-55245000D01*
X224790000Y-55245000D02*
X224155000Y-55880000D01*
X224155000Y-55880000D02*
X224155000Y-65405000D01*
X219690000Y-24000000D02*
X219660000Y-24030000D01*
X204000000Y-48500000D02*
X205000000Y-48500000D01*
X150499999Y-107999999D02*
X150499999Y-105999999D01*
X64000000Y-27000000D02*
X64000000Y-30000000D01*
X136000000Y-64000000D02*
X136000000Y-62000000D01*
X141000000Y-81000000D02*
X142550000Y-82550000D01*
X51725000Y-75725000D02*
X52000000Y-76000000D01*
X136000000Y-24000000D02*
X141000000Y-24000000D01*
X63275000Y-114000000D02*
X68000000Y-114000000D01*
X171725000Y-92750000D02*
X171725000Y-94675000D01*
X205900000Y-137000000D02*
X205640427Y-137000000D01*
X137450000Y-82450000D02*
X137000000Y-82000000D01*
X131725000Y-75675000D02*
X132000000Y-75950000D01*
X218110000Y-46890000D02*
X219660000Y-46890000D01*
X77450000Y-28450000D02*
X78000000Y-29000000D01*
X205500000Y-52500000D02*
X216000000Y-52500000D01*
X151725000Y-73800000D02*
X151725000Y-75725000D01*
X192000000Y-82000000D02*
X192000000Y-80000000D01*
X162000000Y-87000000D02*
X164000000Y-87000000D01*
X77450000Y-25450000D02*
X77000000Y-25000000D01*
X198000000Y-58500000D02*
X195000000Y-55500000D01*
X82550000Y-104550000D02*
X83000000Y-105000000D01*
X145500000Y-117024999D02*
X145500000Y-114950000D01*
X82550000Y-66550000D02*
X83000000Y-67000000D01*
X71000000Y-92025000D02*
X71000000Y-89950000D01*
X57450000Y-28450000D02*
X57450000Y-27750000D01*
X138000000Y-86000000D02*
X141000000Y-86000000D01*
X215000000Y-55000000D02*
X215000000Y-58000000D01*
X128000000Y-37950000D02*
X128000000Y-56950000D01*
X64000000Y-87000000D02*
X62000000Y-87000000D01*
X214000000Y-57500000D02*
X211000000Y-60500000D01*
X171000000Y-73025000D02*
X171000000Y-70950000D01*
X51000000Y-111075000D02*
X51000000Y-109000000D01*
X103275000Y-75950000D02*
X108000000Y-75950000D01*
X168000000Y-76000000D02*
X168000000Y-94950000D01*
X81000000Y-48000000D02*
X82000000Y-49000000D01*
X161000000Y-29000000D02*
X162000000Y-30000000D01*
X124000000Y-84000000D02*
X124000000Y-87000000D01*
X57450000Y-64250000D02*
X57450000Y-63450000D01*
X62550000Y-44550000D02*
X61000000Y-43000000D01*
X104000000Y-106000000D02*
X102000000Y-106000000D01*
X158000000Y-48000000D02*
X161000000Y-48000000D01*
X82550000Y-84700000D02*
X82550000Y-85550000D01*
X102550000Y-101550000D02*
X102550000Y-102200000D01*
X137923233Y-105923233D02*
X137923233Y-119053255D01*
X103275000Y-37950000D02*
X108000000Y-37950000D01*
X142550000Y-65700000D02*
X142550000Y-66550000D01*
X76000000Y-100000000D02*
X76000000Y-102000000D01*
X158499999Y-108999999D02*
X158499999Y-111999999D01*
X88000000Y-56950000D02*
X88000000Y-37950000D01*
X182550000Y-47550000D02*
X183000000Y-48000000D01*
X162550000Y-65750000D02*
X162550000Y-66550000D01*
X205310000Y-34190000D02*
X219660000Y-34190000D01*
X142550000Y-44550000D02*
X142550000Y-45200000D01*
X98000000Y-48000000D02*
X97450000Y-47450000D01*
X91725000Y-75675000D02*
X92000000Y-75950000D01*
X137450000Y-26200000D02*
X137450000Y-25450000D01*
X61000000Y-48000000D02*
X58000000Y-48000000D01*
X212000000Y-56500000D02*
X210000000Y-58500000D01*
X102550000Y-25550000D02*
X102550000Y-26200000D01*
X62550000Y-63550000D02*
X61000000Y-62000000D01*
X177450000Y-47450000D02*
X178000000Y-48000000D01*
X205261711Y-134757203D02*
X204843899Y-135255131D01*
X151000000Y-73075000D02*
X151000000Y-71000000D01*
X56000000Y-26000000D02*
X56000000Y-24000000D01*
X162550000Y-47550000D02*
X163000000Y-48000000D01*
X101000000Y-29000000D02*
X98000000Y-29000000D01*
X182550000Y-84700000D02*
X182550000Y-85550000D01*
X188500000Y-38000000D02*
X188450000Y-37950000D01*
X190412846Y-135612680D02*
X190323486Y-134591276D01*
X81000000Y-105000000D02*
X82000000Y-106000000D01*
X162550000Y-46750000D02*
X162550000Y-47550000D01*
X97450000Y-28450000D02*
X97450000Y-27700000D01*
X83275000Y-94950000D02*
X88000000Y-94950000D01*
X121847735Y-121608557D02*
X122166310Y-121831626D01*
X142000000Y-49000000D02*
X144000000Y-49000000D01*
X71000000Y-73025000D02*
X71000000Y-70950000D01*
X62550000Y-65750000D02*
X62550000Y-66550000D01*
X84000000Y-30000000D02*
X84000000Y-27000000D01*
X71725000Y-113675000D02*
X72000000Y-113950000D01*
X124000000Y-49000000D02*
X122000000Y-49000000D01*
X77450000Y-66450000D02*
X78000000Y-67000000D01*
X51725000Y-73800000D02*
X51725000Y-75725000D01*
X62550000Y-102250000D02*
X62550000Y-101550000D01*
X118000000Y-29000000D02*
X117450000Y-28450000D01*
X57450000Y-45250000D02*
X57450000Y-44450000D01*
X131000000Y-35025000D02*
X131000000Y-32950000D01*
X162550000Y-27750000D02*
X162550000Y-28550000D01*
X151950000Y-110450000D02*
X151950000Y-109699999D01*
X190000000Y-42000000D02*
X190000000Y-45000000D01*
X161000000Y-48000000D02*
X162000000Y-49000000D01*
X91000000Y-73025000D02*
X91000000Y-70950000D01*
X78000000Y-67000000D02*
X81000000Y-67000000D01*
X83275000Y-75950000D02*
X88000000Y-75950000D01*
X176000000Y-43000000D02*
X176000000Y-45000000D01*
X141000000Y-48000000D02*
X142000000Y-49000000D01*
X164000000Y-30000000D02*
X164000000Y-27000000D01*
X82550000Y-27700000D02*
X82550000Y-28550000D01*
X137450000Y-63450000D02*
X137000000Y-63000000D01*
X101000000Y-100000000D02*
X102550000Y-101550000D01*
X189175481Y-137087315D02*
X189209377Y-137474745D01*
X210000000Y-55500000D02*
X209000000Y-56500000D01*
X171725000Y-56675000D02*
X172000000Y-56950000D01*
X82550000Y-83200000D02*
X82550000Y-82540000D01*
X142550000Y-82550000D02*
X142550000Y-83200000D01*
X148000000Y-37950000D02*
X148000000Y-56950000D01*
X163275000Y-57000000D02*
X168000000Y-57000000D01*
X123683149Y-107398965D02*
X128607187Y-106530723D01*
X217500000Y-31650000D02*
X219660000Y-31650000D01*
X216000000Y-45000000D02*
X207500000Y-45000000D01*
X111725000Y-92750000D02*
X111000000Y-92025000D01*
X138000000Y-29000000D02*
X141000000Y-29000000D01*
X77450000Y-104450000D02*
X78000000Y-105000000D01*
X146224999Y-117750000D02*
X145500000Y-117024999D01*
X143275000Y-37950000D02*
X148000000Y-37950000D01*
X76000000Y-24000000D02*
X76000000Y-26000000D01*
X157450000Y-44450000D02*
X157000000Y-44000000D01*
X193000000Y-24000000D02*
X192000000Y-24000000D01*
X199954865Y-130891662D02*
X201240441Y-129359574D01*
X141000000Y-67000000D02*
X142000000Y-68000000D01*
X148000000Y-56950000D02*
X148000000Y-75950000D01*
X57450000Y-104450000D02*
X57450000Y-103750000D01*
X195000000Y-40000000D02*
X189000000Y-40000000D01*
X91725000Y-111750000D02*
X91725000Y-113675000D01*
X198000000Y-124000000D02*
X198000000Y-121000000D01*
X207000000Y-46000000D02*
X216500000Y-46000000D01*
X162550000Y-64250000D02*
X162550000Y-63590000D01*
X68000000Y-94950000D02*
X68000000Y-76000000D01*
X158000000Y-86000000D02*
X161000000Y-86000000D01*
X76000000Y-81000000D02*
X76000000Y-83000000D01*
X182550000Y-83200000D02*
X182550000Y-82550000D01*
X122550000Y-85550000D02*
X123000000Y-86000000D01*
X178092773Y-113986841D02*
X182791237Y-115696941D01*
X205000000Y-39500000D02*
X205230000Y-39270000D01*
X156500000Y-112000000D02*
X155500000Y-110999999D01*
X78000000Y-105000000D02*
X81000000Y-105000000D01*
X51725000Y-54800000D02*
X51000000Y-54075000D01*
X68000000Y-75950000D02*
X68000000Y-57000000D01*
X182550000Y-64200000D02*
X182550000Y-63550000D01*
X71725000Y-54750000D02*
X71725000Y-56675000D01*
X151725000Y-54800000D02*
X151000000Y-54075000D01*
X108000000Y-37950000D02*
X108000000Y-56950000D01*
X117450000Y-64200000D02*
X117450000Y-63450000D01*
X71000000Y-35025000D02*
X71000000Y-32950000D01*
X56000000Y-45000000D02*
X56000000Y-43000000D01*
X62550000Y-45250000D02*
X62550000Y-44550000D01*
X77450000Y-45200000D02*
X77450000Y-44450000D01*
X205640427Y-137000000D02*
X205440434Y-136800007D01*
X199558591Y-134475373D02*
X199490800Y-133700514D01*
X188000000Y-56950000D02*
X188000000Y-75950000D01*
X197500000Y-59500000D02*
X197000000Y-59000000D01*
X182550000Y-27700000D02*
X182550000Y-28550000D01*
X197846528Y-144722175D02*
X200256020Y-146743980D01*
X82550000Y-44540000D02*
X81010000Y-43000000D01*
X196000000Y-41000000D02*
X195000000Y-40000000D01*
X194000000Y-64500000D02*
X194000000Y-76500000D01*
X102550000Y-104550000D02*
X103000000Y-105000000D01*
X82550000Y-47550000D02*
X83000000Y-48000000D01*
X82550000Y-82540000D02*
X81010000Y-81000000D01*
X202000000Y-24000000D02*
X199370000Y-24000000D01*
X193000000Y-32000000D02*
X194500000Y-33500000D01*
X57450000Y-102250000D02*
X57450000Y-101450000D01*
X191000000Y-61000000D02*
X191000000Y-67000000D01*
X98000000Y-29000000D02*
X97450000Y-28450000D01*
X117450000Y-63450000D02*
X117000000Y-63000000D01*
X91000000Y-92025000D02*
X91000000Y-89950000D01*
X160960000Y-24000000D02*
X156000000Y-24000000D01*
X219630000Y-24000000D02*
X219660000Y-24030000D01*
X178000000Y-29000000D02*
X181000000Y-29000000D01*
X194000000Y-76500000D02*
X191500000Y-79000000D01*
X205000000Y-34500000D02*
X205310000Y-34190000D01*
X58000000Y-67000000D02*
X57450000Y-66450000D01*
X81000000Y-86000000D02*
X82000000Y-87000000D01*
X124000000Y-68000000D02*
X122000000Y-68000000D01*
X58000000Y-29000000D02*
X57450000Y-28450000D01*
X102550000Y-85550000D02*
X103000000Y-86000000D01*
X117450000Y-66450000D02*
X117450000Y-65700000D01*
X104000000Y-68000000D02*
X102000000Y-68000000D01*
X96000000Y-64000000D02*
X96000000Y-62000000D01*
X91725000Y-92750000D02*
X91000000Y-92025000D01*
X151725000Y-75725000D02*
X152000000Y-76000000D01*
X82550000Y-28550000D02*
X83000000Y-29000000D01*
X117450000Y-83200000D02*
X117450000Y-82450000D01*
X82550000Y-63540000D02*
X81010000Y-62000000D01*
X151725000Y-92800000D02*
X151725000Y-94725000D01*
X124000000Y-87000000D02*
X122000000Y-87000000D01*
X219660000Y-24030000D02*
X216530000Y-24030000D01*
X102000000Y-30000000D02*
X101000000Y-29000000D01*
X187000000Y-127982176D02*
X187000000Y-115000000D01*
X193000000Y-64000000D02*
X193000000Y-76000000D01*
X71725000Y-54750000D02*
X71000000Y-54025000D01*
X209000000Y-56500000D02*
X199000000Y-56500000D01*
X191000000Y-80000000D02*
X191000000Y-86000000D01*
X111725000Y-94675000D02*
X112000000Y-94950000D01*
X141000000Y-86000000D02*
X142000000Y-87000000D01*
X131725000Y-35750000D02*
X131725000Y-37675000D01*
X182000000Y-68000000D02*
X184000000Y-68000000D01*
X207500000Y-45000000D02*
X206000000Y-43500000D01*
X51725000Y-92800000D02*
X51725000Y-94725000D01*
X157450000Y-25450000D02*
X157000000Y-25000000D01*
X158000000Y-67000000D02*
X161000000Y-67000000D01*
X181000000Y-29000000D02*
X182000000Y-30000000D01*
X177450000Y-63450000D02*
X177000000Y-63000000D01*
X68000000Y-113950000D02*
X68000000Y-95000000D01*
X122550000Y-44550000D02*
X122550000Y-45200000D01*
X71725000Y-56675000D02*
X72000000Y-56950000D01*
X91725000Y-92750000D02*
X91725000Y-94675000D01*
X203512071Y-139098141D02*
X201979982Y-137812567D01*
X195500000Y-61500000D02*
X193000000Y-64000000D01*
X131000000Y-92025000D02*
X131000000Y-89950000D01*
X162000000Y-49000000D02*
X164000000Y-49000000D01*
X123275000Y-75950000D02*
X128000000Y-75950000D01*
X171725000Y-73750000D02*
X171000000Y-73025000D01*
X56000000Y-24000000D02*
X61000000Y-24000000D01*
X62550000Y-64250000D02*
X62550000Y-63550000D01*
X58000000Y-105000000D02*
X57450000Y-104450000D01*
X57450000Y-83250000D02*
X57450000Y-82450000D01*
X76000000Y-62000000D02*
X76000000Y-64000000D01*
X203879719Y-136404199D02*
X203333348Y-137055336D01*
X195000000Y-55500000D02*
X195000000Y-42500000D01*
X102000000Y-106000000D02*
X101000000Y-105000000D01*
X168000000Y-56950000D02*
X168000000Y-75950000D01*
X163275000Y-95000000D02*
X168000000Y-95000000D01*
X197000000Y-125000000D02*
X198000000Y-124000000D01*
X201856727Y-136403734D02*
X199558591Y-134475373D01*
X131000000Y-73025000D02*
X131000000Y-70950000D01*
X142550000Y-66550000D02*
X143000000Y-67000000D01*
X121000000Y-24000000D02*
X122550000Y-25550000D01*
X57450000Y-63450000D02*
X57000000Y-63000000D01*
X81010000Y-100000000D02*
X76000000Y-100000000D01*
X208000000Y-42000000D02*
X207000000Y-41000000D01*
X111000000Y-92025000D02*
X111000000Y-89950000D01*
X198500000Y-57500000D02*
X196000000Y-55000000D01*
X131725000Y-54750000D02*
X131725000Y-56675000D01*
X136000000Y-81000000D02*
X141000000Y-81000000D01*
X111725000Y-35750000D02*
X111000000Y-35025000D01*
X102550000Y-84700000D02*
X102550000Y-85550000D01*
X78000000Y-29000000D02*
X81000000Y-29000000D01*
X190000000Y-80000000D02*
X190000000Y-83000000D01*
X118000000Y-86000000D02*
X117450000Y-85450000D01*
X214000000Y-55500000D02*
X214000000Y-57500000D01*
X205270000Y-36730000D02*
X219660000Y-36730000D01*
X152050000Y-99000000D02*
X148000000Y-94950000D01*
X157450000Y-65750000D02*
X157450000Y-66450000D01*
X202000000Y-55500000D02*
X202000000Y-24000000D01*
X182550000Y-85550000D02*
X183000000Y-86000000D01*
X96000000Y-43000000D02*
X101000000Y-43000000D01*
X218150000Y-44350000D02*
X219660000Y-44350000D01*
X210500000Y-59500000D02*
X197500000Y-59500000D01*
X116000000Y-62000000D02*
X121000000Y-62000000D01*
X137450000Y-47450000D02*
X138000000Y-48000000D01*
X117450000Y-28450000D02*
X117450000Y-27700000D01*
X150499999Y-105999999D02*
X155500000Y-105999999D01*
X181000000Y-48000000D02*
X182000000Y-49000000D01*
X163000000Y-107000000D02*
X155000000Y-99000000D01*
X182550000Y-26200000D02*
X182550000Y-25550000D01*
X163000000Y-120000000D02*
X162549999Y-120000000D01*
X51000000Y-54075000D02*
X51000000Y-52000000D01*
X177450000Y-65700000D02*
X177450000Y-66450000D01*
X116000000Y-43000000D02*
X121000000Y-43000000D01*
X62550000Y-104550000D02*
X63000000Y-105000000D01*
X82550000Y-65700000D02*
X82550000Y-66550000D01*
X191000000Y-42000000D02*
X191000000Y-48000000D01*
X102550000Y-82550000D02*
X102550000Y-83200000D01*
X196500000Y-60000000D02*
X189000000Y-60000000D01*
X151725000Y-56725000D02*
X152000000Y-57000000D01*
X190323486Y-134591276D02*
X191657269Y-133001734D01*
X56000000Y-83000000D02*
X56000000Y-81000000D01*
X62550000Y-46750000D02*
X62550000Y-47550000D01*
X61000000Y-86000000D02*
X58000000Y-86000000D01*
X97450000Y-104450000D02*
X97450000Y-103700000D01*
X98000000Y-105000000D02*
X97450000Y-104450000D01*
X82550000Y-25540000D02*
X81010000Y-24000000D01*
X77450000Y-84700000D02*
X77450000Y-85450000D01*
X124030445Y-109368580D02*
X123683149Y-107398965D01*
X121000000Y-29000000D02*
X118000000Y-29000000D01*
X199490800Y-133700514D02*
X199972892Y-133125980D01*
X82550000Y-46700000D02*
X82550000Y-47550000D01*
X203150000Y-31650000D02*
X217500000Y-31650000D01*
X141000000Y-43000000D02*
X142550000Y-44550000D01*
X157450000Y-63450000D02*
X157000000Y-63000000D01*
X103275000Y-94950000D02*
X108000000Y-94950000D01*
X56000000Y-100000000D02*
X61000000Y-100000000D01*
X81010000Y-43000000D02*
X76000000Y-43000000D01*
X91725000Y-113675000D02*
X92000000Y-113950000D01*
X51725000Y-35800000D02*
X51000000Y-35075000D01*
X178000000Y-86000000D02*
X181000000Y-86000000D01*
X62000000Y-68000000D02*
X61000000Y-67000000D01*
X125362910Y-108575146D02*
X124841605Y-108210125D01*
X128000000Y-96000000D02*
X137923233Y-105923233D01*
X143275000Y-56950000D02*
X148000000Y-56950000D01*
X122550000Y-63550000D02*
X122550000Y-64200000D01*
X205800000Y-139700000D02*
X205740000Y-139700000D01*
X142550000Y-84700000D02*
X142550000Y-85550000D01*
X216000000Y-44000000D02*
X218190000Y-41810000D01*
X184000000Y-130982176D02*
X184597902Y-131199795D01*
X97450000Y-45200000D02*
X97450000Y-44450000D01*
X209500000Y-57500000D02*
X198500000Y-57500000D01*
X171725000Y-35750000D02*
X171000000Y-35025000D01*
X64000000Y-106000000D02*
X62000000Y-106000000D01*
X162550000Y-82590000D02*
X160960000Y-81000000D01*
X136000000Y-83000000D02*
X136000000Y-81000000D01*
X151725000Y-92800000D02*
X151000000Y-92075000D01*
X57450000Y-82450000D02*
X57000000Y-82000000D01*
X184000000Y-68000000D02*
X184000000Y-65000000D01*
X177450000Y-44450000D02*
X177000000Y-44000000D01*
X177408732Y-115866225D02*
X178092773Y-113986841D01*
X117450000Y-82450000D02*
X117000000Y-82000000D01*
X77450000Y-101450000D02*
X77000000Y-101000000D01*
X201240441Y-129359574D02*
X205070664Y-132573511D01*
X170056849Y-123566093D02*
X169623539Y-122636850D01*
X142550000Y-85550000D02*
X143000000Y-86000000D01*
X111000000Y-54025000D02*
X111000000Y-51950000D01*
X108000000Y-56950000D02*
X108000000Y-75950000D01*
X117450000Y-47450000D02*
X117450000Y-46700000D01*
X148000000Y-56950000D02*
X148000000Y-75950000D01*
X182550000Y-44550000D02*
X181000000Y-43000000D01*
X219660000Y-29110000D02*
X217890000Y-29110000D01*
X184000000Y-30000000D02*
X184000000Y-27000000D01*
X146225000Y-119674999D02*
X146500000Y-119950000D01*
X181000000Y-86000000D02*
X182000000Y-87000000D01*
X157050000Y-110550000D02*
X157499999Y-110999999D01*
X194500000Y-33500000D02*
X197000000Y-33500000D01*
X62550000Y-82550000D02*
X61000000Y-81000000D01*
X151725000Y-35800000D02*
X151725000Y-37725000D01*
X217500000Y-29500000D02*
X217500000Y-31650000D01*
X83275000Y-56950000D02*
X88000000Y-56950000D01*
X141000000Y-29000000D02*
X142000000Y-30000000D01*
X91725000Y-37675000D02*
X92000000Y-37950000D01*
X182000000Y-30000000D02*
X184000000Y-30000000D01*
X131725000Y-35750000D02*
X131000000Y-35025000D01*
X111725000Y-73750000D02*
X111725000Y-75675000D01*
X128000000Y-94950000D02*
X128000000Y-96000000D01*
X151000000Y-35075000D02*
X151000000Y-33000000D01*
X182000000Y-87000000D02*
X184000000Y-87000000D01*
X121000000Y-67000000D02*
X118000000Y-67000000D01*
X82550000Y-102200000D02*
X82550000Y-101540000D01*
X136000000Y-26000000D02*
X136000000Y-24000000D01*
X111725000Y-75675000D02*
X112000000Y-75950000D01*
X160960000Y-81000000D02*
X156000000Y-81000000D01*
X51725000Y-92800000D02*
X51000000Y-92075000D01*
X136000000Y-43000000D02*
X141000000Y-43000000D01*
X77450000Y-44450000D02*
X77000000Y-44000000D01*
X157450000Y-47450000D02*
X158000000Y-48000000D01*
X204000000Y-51000000D02*
X205500000Y-52500000D01*
X151725000Y-37725000D02*
X152000000Y-38000000D01*
X118000000Y-48000000D02*
X117450000Y-47450000D01*
X184000000Y-130982176D02*
X187000000Y-127982176D01*
X130776138Y-109905358D02*
X130923739Y-110742445D01*
X143275000Y-94950000D02*
X148000000Y-94950000D01*
X156000000Y-24000000D02*
X156000000Y-26000000D01*
X142550000Y-46700000D02*
X142550000Y-47550000D01*
X178959399Y-115845325D02*
X178690446Y-115268553D01*
X117450000Y-85450000D02*
X117450000Y-84700000D01*
X183275000Y-94950000D02*
X188000000Y-94950000D01*
X137450000Y-25450000D02*
X137000000Y-25000000D01*
X51000000Y-92075000D02*
X51000000Y-90000000D01*
X101000000Y-43000000D02*
X102550000Y-44550000D01*
X91725000Y-94675000D02*
X92000000Y-94950000D01*
X76000000Y-43000000D02*
X76000000Y-45000000D01*
X88000000Y-75950000D02*
X88000000Y-56950000D01*
X191000000Y-29000000D02*
X192000000Y-29000000D01*
X197000000Y-60500000D02*
X196500000Y-60000000D01*
X83275000Y-37950000D02*
X88000000Y-37950000D01*
X57450000Y-44450000D02*
X57000000Y-44000000D01*
X81010000Y-62000000D02*
X76000000Y-62000000D01*
X91000000Y-54025000D02*
X91000000Y-51950000D01*
X217070000Y-26570000D02*
X215500000Y-25000000D01*
X122000000Y-49000000D02*
X121000000Y-48000000D01*
X177450000Y-66450000D02*
X178000000Y-67000000D01*
X131725000Y-73750000D02*
X131725000Y-75675000D01*
X133270017Y-119873743D02*
X137923233Y-119053255D01*
X199370000Y-24000000D02*
X199340000Y-24030000D01*
X128000000Y-75950000D02*
X128000000Y-94950000D01*
X63275000Y-76000000D02*
X68000000Y-76000000D01*
X101000000Y-81000000D02*
X102550000Y-82550000D01*
X102550000Y-46700000D02*
X102550000Y-47550000D01*
X184000000Y-87000000D02*
X184000000Y-84000000D01*
X121000000Y-86000000D02*
X118000000Y-86000000D01*
X98000000Y-86000000D02*
X97450000Y-85450000D01*
X71000000Y-111025000D02*
X71000000Y-108950000D01*
X51725000Y-35800000D02*
X51725000Y-37725000D01*
X71725000Y-35750000D02*
X71000000Y-35025000D01*
X191500000Y-79000000D02*
X189000000Y-79000000D01*
X146224999Y-117750000D02*
X146225000Y-119674999D01*
X171725000Y-35750000D02*
X171725000Y-37675000D01*
X91725000Y-54750000D02*
X91725000Y-56675000D01*
X131725000Y-92750000D02*
X131000000Y-92025000D01*
X169398462Y-125375001D02*
X169562823Y-125727473D01*
X122000000Y-30000000D02*
X121000000Y-29000000D01*
X84000000Y-87000000D02*
X84000000Y-84000000D01*
X162550000Y-63590000D02*
X160960000Y-62000000D01*
X96000000Y-26000000D02*
X96000000Y-24000000D01*
X71725000Y-35750000D02*
X71725000Y-37675000D01*
X125883854Y-111529569D02*
X125753618Y-110790963D01*
X182550000Y-25550000D02*
X181000000Y-24000000D01*
X216500000Y-46000000D02*
X218150000Y-44350000D01*
X81000000Y-67000000D02*
X82000000Y-68000000D01*
X96000000Y-100000000D02*
X101000000Y-100000000D01*
X152500000Y-111000000D02*
X151950000Y-110450000D01*
X161000000Y-67000000D02*
X162000000Y-68000000D01*
X124000000Y-30000000D02*
X122000000Y-30000000D01*
X142000000Y-30000000D02*
X144000000Y-30000000D01*
X124000000Y-27000000D02*
X124000000Y-30000000D01*
X170056849Y-123566093D02*
X169398462Y-125375001D01*
X137450000Y-85450000D02*
X138000000Y-86000000D01*
X209500000Y-136000000D02*
X205800000Y-139700000D01*
X188000000Y-56950000D02*
X188000000Y-75950000D01*
X62550000Y-27750000D02*
X62550000Y-28550000D01*
X84000000Y-68000000D02*
X84000000Y-65000000D01*
X51000000Y-35075000D02*
X51000000Y-33000000D01*
X102000000Y-49000000D02*
X101000000Y-48000000D01*
X171725000Y-37675000D02*
X172000000Y-37950000D01*
X203000000Y-32000000D02*
X203000000Y-55000000D01*
X102000000Y-87000000D02*
X101000000Y-86000000D01*
X177450000Y-27700000D02*
X177450000Y-28450000D01*
X81000000Y-29000000D02*
X82000000Y-30000000D01*
X77450000Y-63450000D02*
X77000000Y-63000000D01*
X77450000Y-47450000D02*
X78000000Y-48000000D01*
X122550000Y-66550000D02*
X123000000Y-67000000D01*
X177450000Y-84700000D02*
X177450000Y-85450000D01*
X151950000Y-108200000D02*
X151950000Y-107449999D01*
X199000000Y-56500000D02*
X197000000Y-54500000D01*
X157050000Y-109699999D02*
X157050000Y-110550000D01*
X156000000Y-43000000D02*
X156000000Y-45000000D01*
X82000000Y-49000000D02*
X84000000Y-49000000D01*
X206500000Y-42000000D02*
X208500000Y-44000000D01*
X57450000Y-66450000D02*
X57450000Y-65750000D01*
X132082555Y-108964203D02*
X132603499Y-111918626D01*
X97450000Y-102200000D02*
X97450000Y-101450000D01*
X51725000Y-54800000D02*
X51725000Y-56725000D01*
X171000000Y-35025000D02*
X171000000Y-32950000D01*
X122550000Y-65700000D02*
X122550000Y-66550000D01*
X62550000Y-66550000D02*
X63000000Y-67000000D01*
X208280000Y-134620000D02*
X205900000Y-137000000D01*
X183275000Y-56950000D02*
X188000000Y-56950000D01*
X182550000Y-46700000D02*
X182550000Y-47550000D01*
X177450000Y-85450000D02*
X178000000Y-86000000D01*
X211000000Y-56000000D02*
X209500000Y-57500000D01*
X78000000Y-48000000D02*
X81000000Y-48000000D01*
X162550000Y-28550000D02*
X163000000Y-29000000D01*
X218030000Y-51970000D02*
X219660000Y-51970000D01*
X104000000Y-49000000D02*
X102000000Y-49000000D01*
X176000000Y-81000000D02*
X176000000Y-83000000D01*
X161000000Y-86000000D02*
X162000000Y-87000000D01*
X164000000Y-68000000D02*
X164000000Y-65000000D01*
X97450000Y-101450000D02*
X97000000Y-101000000D01*
X126521005Y-111975707D02*
X125883854Y-111529569D01*
X144000000Y-30000000D02*
X144000000Y-27000000D01*
X213000000Y-57000000D02*
X210500000Y-59500000D01*
X102550000Y-47550000D02*
X103000000Y-48000000D01*
X182550000Y-82550000D02*
X181000000Y-81000000D01*
X116000000Y-26000000D02*
X116000000Y-24000000D01*
X157450000Y-45250000D02*
X157450000Y-44450000D01*
X155500000Y-110999999D02*
X152500000Y-111000000D01*
X196000000Y-38000000D02*
X188500000Y-38000000D01*
X111725000Y-73750000D02*
X111000000Y-73025000D01*
X162550000Y-66550000D02*
X163000000Y-67000000D01*
X138000000Y-48000000D02*
X141000000Y-48000000D01*
X117450000Y-26200000D02*
X117450000Y-25450000D01*
X182691569Y-120502675D02*
X182960520Y-121079444D01*
X142000000Y-68000000D02*
X144000000Y-68000000D01*
X168000000Y-57000000D02*
X168000000Y-75950000D01*
X157450000Y-27750000D02*
X157450000Y-28450000D01*
X176000000Y-62000000D02*
X176000000Y-64000000D01*
X205440434Y-136800007D02*
X203512071Y-139098141D01*
X103275000Y-113950000D02*
X108000000Y-113950000D01*
X123275000Y-94950000D02*
X128000000Y-94950000D01*
X181000000Y-67000000D02*
X182000000Y-68000000D01*
X157450000Y-64250000D02*
X157450000Y-63450000D01*
X201419165Y-131402381D02*
X201363698Y-130768407D01*
X203000000Y-31500000D02*
X203150000Y-31650000D01*
X108000000Y-75950000D02*
X108000000Y-94950000D01*
X111725000Y-56675000D02*
X112000000Y-56950000D01*
X137450000Y-27700000D02*
X137450000Y-28450000D01*
X62000000Y-49000000D02*
X61000000Y-48000000D01*
X157450000Y-46750000D02*
X157450000Y-47450000D01*
X156000000Y-62000000D02*
X156000000Y-64000000D01*
X61000000Y-67000000D02*
X58000000Y-67000000D01*
X160960000Y-43000000D02*
X156000000Y-43000000D01*
X111725000Y-54750000D02*
X111000000Y-54025000D01*
X151725000Y-54800000D02*
X151725000Y-56725000D01*
X104000000Y-46000000D02*
X104000000Y-49000000D01*
X171000000Y-54025000D02*
X171000000Y-51950000D01*
X122550000Y-47550000D02*
X123000000Y-48000000D01*
X130923739Y-110742445D02*
X131445044Y-111107466D01*
X162549999Y-120000000D02*
X162499999Y-119950000D01*
X58000000Y-48000000D02*
X57450000Y-47450000D01*
X216000000Y-49000000D02*
X218110000Y-46890000D01*
X132603499Y-111918626D02*
X130633885Y-112265922D01*
X56000000Y-64000000D02*
X56000000Y-62000000D01*
X206000000Y-51500000D02*
X216000000Y-51500000D01*
X108000000Y-94950000D02*
X108000000Y-113950000D01*
X58000000Y-86000000D02*
X57450000Y-85450000D01*
X142550000Y-27700000D02*
X142550000Y-28550000D01*
X162550000Y-83250000D02*
X162550000Y-82590000D01*
X62000000Y-87000000D02*
X61000000Y-86000000D01*
X206500000Y-50000000D02*
X216000000Y-50000000D01*
X131725000Y-92750000D02*
X131725000Y-94675000D01*
X102550000Y-63550000D02*
X102550000Y-64200000D01*
X137450000Y-84700000D02*
X137450000Y-85450000D01*
X97450000Y-83200000D02*
X97450000Y-82450000D01*
X61000000Y-29000000D02*
X58000000Y-29000000D01*
X82550000Y-103700000D02*
X82550000Y-104550000D01*
X71000000Y-54025000D02*
X71000000Y-51950000D01*
X192000000Y-42000000D02*
X192000000Y-44000000D01*
X97450000Y-66450000D02*
X97450000Y-65700000D01*
X68000000Y-75950000D02*
X68000000Y-56950000D01*
X102550000Y-65700000D02*
X102550000Y-66550000D01*
X62000000Y-30000000D02*
X61000000Y-29000000D01*
X131000000Y-54025000D02*
X131000000Y-51950000D01*
X157775000Y-119950000D02*
X162499999Y-119950000D01*
X122550000Y-28550000D02*
X123000000Y-29000000D01*
X181000000Y-62000000D02*
X176000000Y-62000000D01*
X121513462Y-119712802D02*
X120673581Y-119124711D01*
X190000000Y-64000000D02*
X190000000Y-61000000D01*
X137450000Y-46700000D02*
X137450000Y-47450000D01*
X157450000Y-85450000D02*
X158000000Y-86000000D01*
X151725000Y-94725000D02*
X152000000Y-95000000D01*
X131725000Y-94675000D02*
X132000000Y-94950000D01*
X151000000Y-54075000D02*
X151000000Y-52000000D01*
X219660000Y-26570000D02*
X217070000Y-26570000D01*
X210000000Y-58500000D02*
X198000000Y-58500000D01*
X104000000Y-65000000D02*
X104000000Y-68000000D01*
X51725000Y-94725000D02*
X52000000Y-95000000D01*
X51725000Y-111800000D02*
X51000000Y-111075000D01*
X96000000Y-102000000D02*
X96000000Y-100000000D01*
X192000000Y-61000000D02*
X192000000Y-63000000D01*
X130402794Y-107788021D02*
X130515665Y-108428146D01*
X137450000Y-28450000D02*
X138000000Y-29000000D01*
X171725000Y-75675000D02*
X172000000Y-75950000D01*
X116000000Y-45000000D02*
X116000000Y-43000000D01*
X111725000Y-54750000D02*
X111725000Y-56675000D01*
X97450000Y-64200000D02*
X97450000Y-63450000D01*
X62550000Y-83250000D02*
X62550000Y-82550000D01*
X182791237Y-115696941D02*
X183717628Y-117683596D01*
X116000000Y-24000000D02*
X121000000Y-24000000D01*
X195000000Y-42500000D02*
X193500000Y-41000000D01*
X205500000Y-46000000D02*
X204000000Y-46000000D01*
X77450000Y-46700000D02*
X77450000Y-47450000D01*
X178262058Y-119369345D02*
X177933338Y-118664402D01*
X64000000Y-103000000D02*
X64000000Y-106000000D01*
X101000000Y-67000000D02*
X98000000Y-67000000D01*
X91725000Y-35750000D02*
X91725000Y-37675000D01*
X56000000Y-43000000D02*
X61000000Y-43000000D01*
X141000000Y-62000000D02*
X142550000Y-63550000D01*
X102000000Y-68000000D02*
X101000000Y-67000000D01*
X101000000Y-62000000D02*
X102550000Y-63550000D01*
X182550000Y-28550000D02*
X183000000Y-29000000D01*
X101000000Y-48000000D02*
X98000000Y-48000000D01*
X205000000Y-50500000D02*
X206000000Y-51500000D01*
X205070664Y-132573511D02*
X205261711Y-134757203D01*
X101000000Y-24000000D02*
X102550000Y-25550000D01*
X177450000Y-26200000D02*
X177450000Y-25450000D01*
X181081136Y-120395404D02*
X178262058Y-119369345D01*
X192000000Y-29000000D02*
X193000000Y-30000000D01*
X162000000Y-68000000D02*
X164000000Y-68000000D01*
X216000000Y-47500000D02*
X207000000Y-47500000D01*
X209500000Y-135500000D02*
X209500000Y-136000000D01*
X177450000Y-46700000D02*
X177450000Y-47450000D01*
X81010000Y-81000000D02*
X76000000Y-81000000D01*
X91725000Y-73750000D02*
X91725000Y-75675000D01*
X144000000Y-87000000D02*
X144000000Y-84000000D01*
X62550000Y-85550000D02*
X63000000Y-86000000D01*
X130633885Y-112265922D02*
X129475428Y-111454762D01*
X144000000Y-49000000D02*
X144000000Y-46000000D01*
X91725000Y-54750000D02*
X91000000Y-54025000D01*
X193000000Y-76000000D02*
X191000000Y-78000000D01*
X177450000Y-83200000D02*
X177450000Y-82450000D01*
X148000000Y-75950000D02*
X148000000Y-94950000D01*
X177450000Y-25450000D02*
X177000000Y-25000000D01*
X77450000Y-65700000D02*
X77450000Y-66450000D01*
X206000000Y-43500000D02*
X204000000Y-43500000D01*
X183275000Y-75950000D02*
X188000000Y-75950000D01*
X128607187Y-106530723D02*
X130402794Y-107788021D01*
X164000000Y-87000000D02*
X164000000Y-84000000D01*
X111725000Y-37675000D02*
X112000000Y-37950000D01*
X216530000Y-24030000D02*
X215500000Y-23000000D01*
X197000000Y-54500000D02*
X197000000Y-39000000D01*
X197000000Y-59000000D02*
X189000000Y-59000000D01*
X142550000Y-28550000D02*
X143000000Y-29000000D01*
X207000000Y-47500000D02*
X205500000Y-46000000D01*
X176000000Y-24000000D02*
X176000000Y-26000000D01*
X103275000Y-56950000D02*
X108000000Y-56950000D01*
X57450000Y-25450000D02*
X57000000Y-25000000D01*
X62550000Y-25550000D02*
X61000000Y-24000000D01*
X211000000Y-60500000D02*
X197000000Y-60500000D01*
X71725000Y-92750000D02*
X71725000Y-94675000D01*
X91000000Y-35025000D02*
X91000000Y-32950000D01*
X116000000Y-64000000D02*
X116000000Y-62000000D01*
X56000000Y-62000000D02*
X61000000Y-62000000D01*
X187000000Y-115000000D02*
X168000000Y-96000000D01*
X182000000Y-49000000D02*
X184000000Y-49000000D01*
X124000000Y-46000000D02*
X124000000Y-49000000D01*
X62000000Y-106000000D02*
X61000000Y-105000000D01*
X160960000Y-62000000D02*
X156000000Y-62000000D01*
X82000000Y-87000000D02*
X84000000Y-87000000D01*
X182982286Y-119703936D02*
X182691569Y-120502675D01*
X178000000Y-67000000D02*
X181000000Y-67000000D01*
X64000000Y-65000000D02*
X64000000Y-68000000D01*
X213000000Y-55000000D02*
X213000000Y-57000000D01*
X137450000Y-64200000D02*
X137450000Y-63450000D01*
X82550000Y-45200000D02*
X82550000Y-44540000D01*
X178000000Y-48000000D02*
X181000000Y-48000000D01*
X111725000Y-92750000D02*
X111725000Y-94675000D01*
X77450000Y-64200000D02*
X77450000Y-63450000D01*
X62550000Y-84750000D02*
X62550000Y-85550000D01*
X216000000Y-42000000D02*
X208000000Y-42000000D01*
X203333348Y-137055336D02*
X203388814Y-137689309D01*
X194000000Y-30000000D02*
X194000000Y-25000000D01*
X157450000Y-26250000D02*
X157450000Y-25450000D01*
X51725000Y-37725000D02*
X52000000Y-38000000D01*
X117450000Y-25450000D02*
X117000000Y-25000000D01*
X91725000Y-56675000D02*
X92000000Y-56950000D01*
X136000000Y-45000000D02*
X136000000Y-43000000D01*
X188450000Y-37950000D02*
X188000000Y-37950000D01*
X181000000Y-43000000D02*
X176000000Y-43000000D01*
X137450000Y-45200000D02*
X137450000Y-44450000D01*
X122550000Y-25550000D02*
X122550000Y-26200000D01*
X183275000Y-37950000D02*
X188000000Y-37950000D01*
X68000000Y-56950000D02*
X68000000Y-38000000D01*
X117450000Y-44450000D02*
X117000000Y-44000000D01*
X82000000Y-30000000D02*
X84000000Y-30000000D01*
X77450000Y-103700000D02*
X77450000Y-104450000D01*
X137450000Y-65700000D02*
X137450000Y-66450000D01*
X63275000Y-38000000D02*
X68000000Y-38000000D01*
X177450000Y-45200000D02*
X177450000Y-44450000D01*
X188000000Y-75950000D02*
X188000000Y-94950000D01*
X97450000Y-26200000D02*
X97450000Y-25450000D01*
X97450000Y-44450000D02*
X97000000Y-44000000D01*
X64000000Y-46000000D02*
X64000000Y-49000000D01*
X96000000Y-62000000D02*
X101000000Y-62000000D01*
X118000000Y-67000000D02*
X117450000Y-66450000D01*
X123275000Y-56950000D02*
X128000000Y-56950000D01*
X142000000Y-87000000D02*
X144000000Y-87000000D01*
X171725000Y-54750000D02*
X171725000Y-56675000D01*
X102550000Y-27700000D02*
X102550000Y-28550000D01*
X104000000Y-84000000D02*
X104000000Y-87000000D01*
X142550000Y-63550000D02*
X142550000Y-64200000D01*
X96000000Y-45000000D02*
X96000000Y-43000000D01*
X116000000Y-81000000D02*
X121000000Y-81000000D01*
X91000000Y-111025000D02*
X91000000Y-108950000D01*
X102550000Y-103700000D02*
X102550000Y-104550000D01*
X84000000Y-106000000D02*
X84000000Y-103000000D01*
X182550000Y-65700000D02*
X182550000Y-66550000D01*
X104000000Y-30000000D02*
X102000000Y-30000000D01*
X101000000Y-86000000D02*
X98000000Y-86000000D01*
X157450000Y-84750000D02*
X157450000Y-85450000D01*
X162000000Y-30000000D02*
X164000000Y-30000000D01*
X71725000Y-73750000D02*
X71725000Y-75675000D01*
X91725000Y-35750000D02*
X91000000Y-35025000D01*
X97450000Y-63450000D02*
X97000000Y-63000000D01*
X205000000Y-42000000D02*
X206500000Y-42000000D01*
X82550000Y-101540000D02*
X81010000Y-100000000D01*
X151950000Y-107449999D02*
X151499999Y-107000000D01*
X81010000Y-24000000D02*
X76000000Y-24000000D01*
X157450000Y-28450000D02*
X158000000Y-29000000D01*
X162550000Y-44590000D02*
X160960000Y-43000000D01*
X82550000Y-85550000D02*
X83000000Y-86000000D01*
X200256020Y-146743980D02*
X201466086Y-147759346D01*
X129475428Y-111454762D02*
X126521005Y-111975707D01*
X62550000Y-101550000D02*
X61000000Y-100000000D01*
X141000000Y-24000000D02*
X142550000Y-25550000D01*
X88000000Y-113950000D02*
X88000000Y-94950000D01*
X121000000Y-43000000D02*
X122550000Y-44550000D01*
X207000000Y-49000000D02*
X216000000Y-49000000D01*
X216000000Y-51500000D02*
X218070000Y-49430000D01*
X77450000Y-83200000D02*
X77450000Y-82450000D01*
X71725000Y-37675000D02*
X72000000Y-37950000D01*
X116000000Y-83000000D02*
X116000000Y-81000000D01*
X88000000Y-94950000D02*
X88000000Y-75950000D01*
X104000000Y-87000000D02*
X102000000Y-87000000D01*
X181678808Y-121677118D02*
X181081136Y-120395404D01*
X71725000Y-111750000D02*
X71000000Y-111025000D01*
X171725000Y-92750000D02*
X171000000Y-92025000D01*
X51725000Y-56725000D02*
X52000000Y-57000000D01*
X142550000Y-47550000D02*
X143000000Y-48000000D01*
X71725000Y-111750000D02*
X71725000Y-113675000D01*
X215000000Y-58000000D02*
X211500000Y-61500000D01*
X57450000Y-47450000D02*
X57450000Y-46750000D01*
X122550000Y-82550000D02*
X122550000Y-83200000D01*
X144000000Y-68000000D02*
X144000000Y-65000000D01*
X182550000Y-63550000D02*
X181000000Y-62000000D01*
X157050000Y-107550000D02*
X157050000Y-108200000D01*
X168000000Y-96000000D02*
X168000000Y-95000000D01*
X108000000Y-56950000D02*
X108000000Y-75950000D01*
X131725000Y-56675000D02*
X132000000Y-56950000D01*
X121000000Y-81000000D02*
X122550000Y-82550000D01*
X208500000Y-44000000D02*
X216000000Y-44000000D01*
X205230000Y-39270000D02*
X219660000Y-39270000D01*
X163275000Y-76000000D02*
X168000000Y-76000000D01*
X96000000Y-81000000D02*
X101000000Y-81000000D01*
X122000000Y-87000000D02*
X121000000Y-86000000D01*
X51725000Y-73800000D02*
X51000000Y-73075000D01*
X183558193Y-122361157D02*
X181678808Y-121677118D01*
X201979982Y-137812567D02*
X201856727Y-136403734D01*
X182550000Y-66550000D02*
X183000000Y-67000000D01*
X211000000Y-55000000D02*
X211000000Y-56000000D01*
X137450000Y-66450000D02*
X138000000Y-67000000D01*
X151000000Y-92075000D02*
X151000000Y-90000000D01*
X122550000Y-84700000D02*
X122550000Y-85550000D01*
X171725000Y-73750000D02*
X171725000Y-75675000D01*
X181000000Y-24000000D02*
X176000000Y-24000000D01*
X111725000Y-35750000D02*
X111725000Y-37675000D01*
X193000000Y-30000000D02*
X193000000Y-32000000D01*
X91725000Y-73750000D02*
X91000000Y-73025000D01*
X71725000Y-94675000D02*
X72000000Y-94950000D01*
X151725000Y-73800000D02*
X151000000Y-73075000D01*
X120673581Y-119124711D02*
X120313261Y-117081235D01*
X64000000Y-30000000D02*
X62000000Y-30000000D01*
X199410000Y-26500000D02*
X199340000Y-26570000D01*
X205000000Y-47000000D02*
X207000000Y-49000000D01*
X181000000Y-81000000D02*
X176000000Y-81000000D01*
X168000000Y-38000000D02*
X168000000Y-56950000D01*
X64000000Y-68000000D02*
X62000000Y-68000000D01*
X162550000Y-84750000D02*
X162550000Y-85550000D01*
X157450000Y-66450000D02*
X158000000Y-67000000D01*
X184584253Y-119542080D02*
X183558193Y-122361157D01*
X218190000Y-41810000D02*
X219660000Y-41810000D01*
X77450000Y-85450000D02*
X78000000Y-86000000D01*
X77450000Y-26200000D02*
X77450000Y-25450000D01*
X136000000Y-62000000D02*
X141000000Y-62000000D01*
X88000000Y-75950000D02*
X88000000Y-56950000D01*
X57450000Y-85450000D02*
X57450000Y-84750000D01*
X63275000Y-95000000D02*
X68000000Y-95000000D01*
X82550000Y-26200000D02*
X82550000Y-25540000D01*
X177933338Y-118664402D02*
X178189854Y-117959632D01*
X98000000Y-67000000D02*
X97450000Y-66450000D01*
X63275000Y-57000000D02*
X68000000Y-57000000D01*
X178702884Y-116550095D02*
X178959399Y-115845325D01*
X82550000Y-64200000D02*
X82550000Y-63540000D01*
X162550000Y-26250000D02*
X162550000Y-25590000D01*
X184000000Y-49000000D02*
X184000000Y-46000000D01*
X156000000Y-81000000D02*
X156000000Y-83000000D01*
X163275000Y-38000000D02*
X168000000Y-38000000D01*
X71725000Y-75675000D02*
X72000000Y-75950000D01*
X77450000Y-102200000D02*
X77450000Y-101450000D01*
X128000000Y-56950000D02*
X128000000Y-75950000D01*
X121513462Y-119712802D02*
X121847735Y-121608557D01*
X122550000Y-27700000D02*
X122550000Y-28550000D01*
X83275000Y-113950000D02*
X88000000Y-113950000D01*
X71725000Y-92750000D02*
X71000000Y-92025000D01*
X97450000Y-85450000D02*
X97450000Y-84700000D01*
X125493146Y-109313752D02*
X125362910Y-108575146D01*
X162550000Y-25590000D02*
X160960000Y-24000000D01*
X123275000Y-37950000D02*
X128000000Y-37950000D01*
X138000000Y-67000000D02*
X141000000Y-67000000D01*
X204500000Y-53500000D02*
X216500000Y-53500000D01*
X212000000Y-55500000D02*
X212000000Y-56500000D01*
X96000000Y-83000000D02*
X96000000Y-81000000D01*
X216000000Y-55500000D02*
X216000000Y-58500000D01*
X190412846Y-135612680D02*
X189175481Y-137087315D01*
X158499999Y-111999999D02*
X156500000Y-112000000D01*
X97450000Y-25450000D02*
X97000000Y-25000000D01*
X64000000Y-49000000D02*
X62000000Y-49000000D01*
X171725000Y-54750000D02*
X171000000Y-54025000D01*
X193500000Y-41000000D02*
X189000000Y-41000000D01*
X51725000Y-111800000D02*
X51725000Y-113725000D01*
X196000000Y-55000000D02*
X196000000Y-41000000D01*
X131725000Y-73750000D02*
X131000000Y-73025000D01*
X101000000Y-105000000D02*
X98000000Y-105000000D01*
X122000000Y-68000000D02*
X121000000Y-67000000D01*
X64000000Y-84000000D02*
X64000000Y-87000000D01*
X171000000Y-92025000D02*
X171000000Y-89950000D01*
X171725000Y-94675000D02*
X172000000Y-94950000D01*
X62550000Y-26250000D02*
X62550000Y-25550000D01*
X137450000Y-44450000D02*
X137000000Y-44000000D01*
X218070000Y-49430000D02*
X219660000Y-49430000D01*
X197000000Y-39000000D02*
X196000000Y-38000000D01*
X205000000Y-48500000D02*
X206500000Y-50000000D01*
X216000000Y-58500000D02*
X212000000Y-62500000D01*
X77450000Y-27700000D02*
X77450000Y-28450000D01*
X200937073Y-131976915D02*
X201419165Y-131402381D01*
X155000000Y-99000000D02*
X152050000Y-99000000D01*
X102550000Y-66550000D02*
X103000000Y-67000000D01*
X182550000Y-45200000D02*
X182550000Y-44550000D01*
X207000000Y-41000000D02*
X204000000Y-41000000D01*
X212000000Y-62500000D02*
X196000000Y-62500000D01*
X71725000Y-73750000D02*
X71000000Y-73025000D01*
X142550000Y-25550000D02*
X142550000Y-26200000D01*
X169623539Y-122636850D02*
X170333230Y-120686989D01*
X111000000Y-35025000D02*
X111000000Y-32950000D01*
X137450000Y-83200000D02*
X137450000Y-82450000D01*
X162550000Y-45250000D02*
X162550000Y-44590000D01*
X78000000Y-86000000D02*
X81000000Y-86000000D01*
X196000000Y-62500000D02*
X194000000Y-64500000D01*
X104000000Y-103000000D02*
X104000000Y-106000000D01*
X188000000Y-37950000D02*
X188000000Y-56950000D01*
X97450000Y-82450000D02*
X97000000Y-82000000D01*
X162550000Y-85550000D02*
X163000000Y-86000000D01*
X51000000Y-73075000D02*
X51000000Y-71000000D01*
X96000000Y-24000000D02*
X101000000Y-24000000D01*
X56000000Y-81000000D02*
X61000000Y-81000000D01*
X102550000Y-28550000D02*
X103000000Y-29000000D01*
X122550000Y-46700000D02*
X122550000Y-47550000D01*
X194000000Y-25000000D02*
X193000000Y-24000000D01*
X177450000Y-64200000D02*
X177450000Y-63450000D01*
X216500000Y-53500000D02*
X218030000Y-51970000D01*
X121000000Y-48000000D02*
X118000000Y-48000000D01*
X84000000Y-49000000D02*
X84000000Y-46000000D01*
X164000000Y-49000000D02*
X164000000Y-46000000D01*
X57450000Y-26250000D02*
X57450000Y-25450000D01*
X191000000Y-78000000D02*
X189000000Y-78000000D01*
X124000000Y-65000000D02*
X124000000Y-68000000D01*
X104000000Y-27000000D02*
X104000000Y-30000000D01*
X193000000Y-26000000D02*
X191000000Y-26000000D01*
X205000000Y-37000000D02*
X205270000Y-36730000D01*
X91725000Y-111750000D02*
X91000000Y-111025000D01*
X155500000Y-105999999D02*
X157050000Y-107550000D01*
X82000000Y-106000000D02*
X84000000Y-106000000D01*
X205500000Y-44500000D02*
X207000000Y-46000000D01*
X177450000Y-28450000D02*
X178000000Y-29000000D01*
X158000000Y-29000000D02*
X161000000Y-29000000D01*
X102550000Y-44550000D02*
X102550000Y-45200000D01*
X121000000Y-62000000D02*
X122550000Y-63550000D01*
X163000000Y-120000000D02*
X163000000Y-107000000D01*
X205000000Y-44500000D02*
X205500000Y-44500000D01*
X82000000Y-68000000D02*
X84000000Y-68000000D01*
X57450000Y-101450000D02*
X57000000Y-101000000D01*
X97450000Y-47450000D02*
X97450000Y-46700000D01*
X77450000Y-82450000D02*
X77000000Y-82000000D01*
X56000000Y-102000000D02*
X56000000Y-100000000D01*
X131725000Y-37675000D02*
X132000000Y-37950000D01*
X217890000Y-29110000D02*
X217500000Y-29500000D01*
X131725000Y-54750000D02*
X131000000Y-54025000D01*
X62550000Y-103750000D02*
X62550000Y-104550000D01*
X183717628Y-117683596D02*
X183495315Y-118294397D01*
X177450000Y-82450000D02*
X177000000Y-82000000D01*
X128000000Y-75950000D02*
X128000000Y-56950000D01*
X157450000Y-83250000D02*
X157450000Y-82450000D01*
X204000000Y-53000000D02*
X204500000Y-53500000D01*
X143275000Y-75950000D02*
X148000000Y-75950000D01*
X62550000Y-28550000D02*
X63000000Y-29000000D01*
X180157856Y-129583749D02*
X184000000Y-130982176D01*
X61000000Y-105000000D02*
X58000000Y-105000000D01*
X211500000Y-61500000D02*
X195500000Y-61500000D01*
X51725000Y-113725000D02*
X52000000Y-114000000D01*
X117450000Y-45200000D02*
X117450000Y-44450000D01*
X151725000Y-35800000D02*
X151000000Y-35075000D01*
X111000000Y-73025000D02*
X111000000Y-70950000D01*
X62550000Y-47550000D02*
X63000000Y-48000000D01*
X157450000Y-82450000D02*
X157000000Y-82000000D01*
%TD*%
M02*
