M48
; DRILL file {KiCad 7.0.7} date Sun 03 Sep 2023 08:27:51 PM MST
; FORMAT={-:-/ absolute / inch / decimal}
; #@! TF.CreationDate,2023-09-03T20:27:51-07:00
; #@! TF.GenerationSoftware,Kicad,Pcbnew,7.0.7
; #@! TF.FileFunction,NonPlated,1,2,NPTH
FMAT,2
INCH
; #@! TA.AperFunction,NonPlated,NPTH,ComponentDrill
T1C0.0390
; #@! TA.AperFunction,NonPlated,NPTH,ComponentDrill
T2C0.0669
; #@! TA.AperFunction,NonPlated,NPTH,ComponentDrill
T3C0.0670
; #@! TA.AperFunction,NonPlated,NPTH,ComponentDrill
T4C0.1181
; #@! TA.AperFunction,NonPlated,NPTH,ComponentDrill
T5C0.1350
%
G90
G05
T1
X2.1567Y-1.0965
X2.1567Y-1.8445
X2.1567Y-2.5925
X2.1567Y-3.3406
X2.1567Y-4.0886
X2.5677Y-1.0965
X2.5677Y-1.8445
X2.5677Y-2.5925
X2.5677Y-3.3406
X2.5677Y-4.0886
X2.9441Y-1.0945
X2.9441Y-1.8425
X2.9441Y-2.5906
X2.9441Y-3.3386
X2.9441Y-4.0866
X3.3551Y-1.0945
X3.3551Y-1.8425
X3.3551Y-2.5906
X3.3551Y-3.3386
X3.3551Y-4.0866
X3.7315Y-1.0945
X3.7315Y-1.8425
X3.7315Y-2.5906
X3.7315Y-3.3386
X3.7315Y-4.0866
X4.1425Y-1.0945
X4.1425Y-1.8425
X4.1425Y-2.5906
X4.1425Y-3.3386
X4.1425Y-4.0866
X4.5189Y-1.0945
X4.5189Y-1.8425
X4.5189Y-2.5906
X4.5189Y-3.3386
X4.8481Y-4.384
X4.9299Y-1.0945
X4.9299Y-1.8425
X4.9299Y-2.5906
X4.9299Y-3.3386
X5.2529Y-4.3126
X5.3063Y-1.0945
X5.3063Y-1.8425
X5.3063Y-2.5906
X5.3063Y-3.3386
X5.7173Y-1.0945
X5.7173Y-1.8425
X5.7173Y-2.5906
X5.7173Y-3.3386
X5.8772Y-4.3228
X6.0937Y-1.0965
X6.0937Y-1.8445
X6.0937Y-2.5925
X6.0937Y-3.3406
X6.2882Y-4.3228
X6.5047Y-1.0965
X6.5047Y-1.8445
X6.5047Y-2.5925
X6.5047Y-3.3406
X6.8811Y-1.0945
X6.8811Y-1.8425
X6.8811Y-2.5906
X6.8811Y-3.3386
X6.9152Y-4.6118
X7.2921Y-1.0945
X7.2921Y-1.8425
X7.2921Y-2.5906
X7.2921Y-3.3386
X7.3015Y-4.7524
X7.7899Y-5.1766
X8.1048Y-5.4408
T2
X8.3957Y-2.8945
X8.3959Y-2.7055
X8.6713Y-2.8945
X8.6715Y-2.7055
T3
X2.1457Y-1.2618
X2.1457Y-2.0098
X2.1457Y-2.7579
X2.1457Y-3.5059
X2.1457Y-4.2539
X2.5787Y-1.2618
X2.5787Y-2.0098
X2.5787Y-2.7579
X2.5787Y-3.5059
X2.5787Y-4.2539
X2.9331Y-1.2598
X2.9331Y-2.0079
X2.9331Y-2.7559
X2.9331Y-3.5039
X2.9331Y-4.252
X3.3661Y-1.2598
X3.3661Y-2.0079
X3.3661Y-2.7559
X3.3661Y-3.5039
X3.3661Y-4.252
X3.7205Y-1.2598
X3.7205Y-2.0079
X3.7205Y-2.7559
X3.7205Y-3.5039
X3.7205Y-4.252
X4.1535Y-1.2598
X4.1535Y-2.0079
X4.1535Y-2.7559
X4.1535Y-3.5039
X4.1535Y-4.252
X4.5079Y-1.2598
X4.5079Y-2.0079
X4.5079Y-2.7559
X4.5079Y-3.5039
X4.8659Y-4.5487
X4.9409Y-1.2598
X4.9409Y-2.0079
X4.9409Y-2.7559
X4.9409Y-3.5039
X5.2924Y-4.4735
X5.2953Y-1.2598
X5.2953Y-2.0079
X5.2953Y-2.7559
X5.2953Y-3.5039
X5.7283Y-1.2598
X5.7283Y-2.0079
X5.7283Y-2.7559
X5.7283Y-3.5039
X5.8661Y-4.4882
X6.0827Y-1.2618
X6.0827Y-2.0098
X6.0827Y-2.7579
X6.0827Y-3.5059
X6.2992Y-4.4882
X6.5157Y-1.2618
X6.5157Y-2.0098
X6.5157Y-2.7579
X6.5157Y-3.5059
X6.8483Y-4.7634
X6.8701Y-1.2598
X6.8701Y-2.0079
X6.8701Y-2.7559
X6.8701Y-3.5039
X7.2553Y-4.9116
X7.3031Y-1.2598
X7.3031Y-2.0079
X7.3031Y-2.7559
X7.3031Y-3.5039
X7.6752Y-5.2962
X8.0069Y-5.5746
T4
X2.1654Y-1.4094
X2.1654Y-2.1575
X2.1654Y-2.9055
X2.1654Y-3.6535
X2.1654Y-4.4016
X2.3622Y-1.4961
X2.3622Y-2.2441
X2.3622Y-2.9921
X2.3622Y-3.7402
X2.3622Y-4.4882
X2.5591Y-1.4094
X2.5591Y-2.1575
X2.5591Y-2.9055
X2.5591Y-3.6535
X2.5591Y-4.4016
X2.9528Y-1.4075
X2.9528Y-2.1555
X2.9528Y-2.9035
X2.9528Y-3.6516
X2.9528Y-4.3996
X3.1496Y-1.4941
X3.1496Y-2.2421
X3.1496Y-2.9902
X3.1496Y-3.7382
X3.1496Y-4.4862
X3.3465Y-1.4075
X3.3465Y-2.1555
X3.3465Y-2.9035
X3.3465Y-3.6516
X3.3465Y-4.3996
X3.7402Y-1.4075
X3.7402Y-2.1555
X3.7402Y-2.9035
X3.7402Y-3.6516
X3.7402Y-4.3996
X3.937Y-1.4941
X3.937Y-2.2421
X3.937Y-2.9902
X3.937Y-3.7382
X3.937Y-4.4862
X4.1339Y-1.4075
X4.1339Y-2.1555
X4.1339Y-2.9035
X4.1339Y-3.6516
X4.1339Y-4.3996
X4.5276Y-1.4075
X4.5276Y-2.1555
X4.5276Y-2.9035
X4.5276Y-3.6516
X4.7244Y-1.4941
X4.7244Y-2.2421
X4.7244Y-2.9902
X4.7244Y-3.7382
X4.911Y-4.6907
X4.9213Y-1.4075
X4.9213Y-2.1555
X4.9213Y-2.9035
X4.9213Y-3.6516
X5.1199Y-4.7418
X5.2987Y-4.6223
X5.315Y-1.4075
X5.315Y-2.1555
X5.315Y-2.9035
X5.315Y-3.6516
X5.5118Y-1.4941
X5.5118Y-2.2421
X5.5118Y-2.9902
X5.5118Y-3.7382
X5.7087Y-1.4075
X5.7087Y-2.1555
X5.7087Y-2.9035
X5.7087Y-3.6516
X5.8858Y-4.6358
X6.0827Y-4.7224
X6.1024Y-1.4094
X6.1024Y-2.1575
X6.1024Y-2.9055
X6.1024Y-3.6535
X6.2795Y-4.6358
X6.2992Y-1.4961
X6.2992Y-2.2441
X6.2992Y-2.9921
X6.2992Y-3.7402
X6.4961Y-1.4094
X6.4961Y-2.1575
X6.4961Y-2.9055
X6.4961Y-3.6535
X6.8163Y-4.9089
X6.8898Y-1.4075
X6.8898Y-2.1555
X6.8898Y-2.9035
X6.8898Y-3.6516
X6.9717Y-5.0576
X7.0866Y-1.4941
X7.0866Y-2.2421
X7.0866Y-2.9902
X7.0866Y-3.7382
X7.1863Y-5.0436
X7.2835Y-1.4075
X7.2835Y-2.1555
X7.2835Y-2.9035
X7.2835Y-3.6516
X7.5953Y-5.422
X7.6905Y-5.6148
X7.8969Y-5.675
T5
X2.3622Y-1.2618
X2.3622Y-2.0098
X2.3622Y-2.7579
X2.3622Y-3.5059
X2.3622Y-4.2539
X3.1496Y-1.2598
X3.1496Y-2.0079
X3.1496Y-2.7559
X3.1496Y-3.5039
X3.1496Y-4.252
X3.937Y-1.2598
X3.937Y-2.0079
X3.937Y-2.7559
X3.937Y-3.5039
X3.937Y-4.252
X4.7244Y-1.2598
X4.7244Y-2.0079
X4.7244Y-2.7559
X4.7244Y-3.5039
X5.0792Y-4.5111
X5.5118Y-1.2598
X5.5118Y-2.0079
X5.5118Y-2.7559
X5.5118Y-3.5039
X6.0827Y-4.4882
X6.2992Y-1.2618
X6.2992Y-2.0098
X6.2992Y-2.7579
X6.2992Y-3.5059
X7.0518Y-4.8375
X7.0866Y-1.2598
X7.0866Y-2.0079
X7.0866Y-2.7559
X7.0866Y-3.5039
X7.841Y-5.4354
T0
M30
